M48
;DRILL file {Pcbnew (2013-07-07 BZR 4022)-stable} date 21/01/2014 23:37:18
;FORMAT={-:-/ absolute / inch / decimal}
FMAT,2
INCH,TZ
T1C0.025
T2C0.031
T3C0.032
T4C0.032
T5C0.039
T6C0.047
T7C0.138
%
G90
G05
M72
T1
X4.995Y-4.585
X4.995Y-5.9236
X4.995Y-7.2622
X5.025Y-4.3
X5.025Y-5.6386
X5.025Y-6.9772
X5.035Y-4.165
X5.035Y-5.5036
X5.035Y-6.8422
X5.295Y-4.25
X5.295Y-5.5886
X5.295Y-6.9272
X5.49Y-4.3
X5.49Y-5.6386
X5.49Y-6.9772
X5.55Y-4.195
X5.55Y-5.5336
X5.55Y-6.8722
X5.75Y-4.13
X5.75Y-5.4686
X5.75Y-6.8072
X5.85Y-4.265
X5.85Y-5.6036
X5.85Y-6.9422
X5.95Y-4.23
X5.95Y-5.5686
X5.95Y-6.9072
X6.05Y-4.195
X6.05Y-5.5336
X6.05Y-6.8722
X6.15Y-4.57
X6.15Y-5.9086
X6.15Y-7.2472
X6.25Y-4.13
X6.25Y-5.4686
X6.25Y-6.8072
X6.35Y-4.265
X6.35Y-5.6036
X6.35Y-6.9422
X6.45Y-4.23
X6.45Y-5.5686
X6.45Y-6.9072
X6.55Y-4.195
X6.55Y-5.5336
X6.55Y-6.8722
X6.6Y-4.41
X6.6Y-4.69
X6.6Y-5.7486
X6.6Y-6.0286
X6.6Y-7.0872
X6.6Y-7.3672
X6.65Y-4.545
X6.65Y-5.8836
X6.65Y-7.2222
X6.7Y-4.69
X6.7Y-6.0286
X6.7Y-7.3672
X6.715Y-4.375
X6.715Y-5.7136
X6.715Y-7.0522
X6.75Y-4.13
X6.75Y-5.4686
X6.75Y-6.8072
X6.85Y-4.265
X6.85Y-5.6036
X6.85Y-6.9422
X6.95Y-4.23
X6.95Y-5.5686
X6.95Y-6.9072
X7.Y-4.34
X7.Y-4.69
X7.Y-5.6786
X7.Y-6.0286
X7.Y-7.0172
X7.Y-7.3672
X7.05Y-4.195
X7.05Y-5.5336
X7.05Y-6.8722
X7.15Y-4.52
X7.15Y-5.8586
X7.15Y-7.1972
X7.25Y-4.13
X7.25Y-5.4686
X7.25Y-6.8072
X7.35Y-4.265
X7.35Y-5.6036
X7.35Y-6.9422
X7.45Y-4.23
X7.45Y-5.5686
X7.45Y-6.9072
X7.55Y-4.195
X7.55Y-5.5336
X7.55Y-6.8722
X7.75Y-4.13
X7.75Y-5.4686
X7.75Y-6.8072
X7.85Y-4.265
X7.85Y-5.6036
X7.85Y-6.9422
X7.95Y-4.23
X7.95Y-5.5686
X7.95Y-6.9072
X7.975Y-4.13
X7.975Y-5.4686
X7.975Y-6.8072
X8.01Y-4.27
X8.01Y-5.6086
X8.01Y-6.9472
X8.09Y-4.235
X8.09Y-5.5736
X8.09Y-6.9122
X8.13Y-4.18
X8.13Y-5.5186
X8.13Y-6.8572
X8.185Y-4.13
X8.185Y-5.4686
X8.185Y-6.8072
X8.2Y-4.3
X8.2Y-4.69
X8.2Y-5.6386
X8.2Y-6.0286
X8.2Y-6.9772
X8.2Y-7.3672
X8.35Y-4.47
X8.35Y-5.8086
X8.35Y-7.1472
X8.89Y-4.69
X8.89Y-6.0286
X8.89Y-7.3672
X8.93Y-4.66
X8.93Y-5.9986
X8.93Y-7.3372
X8.965Y-4.69
X8.965Y-6.0286
X8.965Y-7.3672
X9.Y-4.66
X9.Y-5.9986
X9.Y-7.3372
X9.04Y-4.69
X9.04Y-6.0286
X9.04Y-7.3672
X9.075Y-4.66
X9.075Y-5.9986
X9.075Y-7.3372
X9.115Y-4.69
X9.115Y-6.0286
X9.115Y-7.3672
X9.25Y-4.74
X9.25Y-6.0786
X9.25Y-7.4172
T2
X4.3Y-4.45
X4.3Y-4.55
X4.3Y-5.7886
X4.3Y-5.8886
X4.3Y-7.1272
X4.3Y-7.2272
X4.35Y-4.9
X4.35Y-5.1
X4.35Y-6.2386
X4.35Y-6.4386
X4.35Y-7.5772
X4.35Y-7.7772
X4.45Y-4.8
X4.45Y-5.
X4.45Y-6.1386
X4.45Y-6.3386
X4.45Y-7.4772
X4.45Y-7.6772
X4.65Y-4.825
X4.65Y-5.025
X4.65Y-5.1
X4.65Y-6.1636
X4.65Y-6.3636
X4.65Y-6.4386
X4.65Y-7.5022
X4.65Y-7.7022
X4.65Y-7.7772
X4.7Y-4.55
X4.7Y-4.75
X4.7Y-5.8886
X4.7Y-6.0886
X4.7Y-7.2272
X4.7Y-7.4272
X4.75Y-4.825
X4.75Y-5.025
X4.75Y-5.1
X4.75Y-6.1636
X4.75Y-6.3636
X4.75Y-6.4386
X4.75Y-7.5022
X4.75Y-7.7022
X4.75Y-7.7772
X4.95Y-4.05
X4.95Y-4.15
X4.95Y-4.25
X4.95Y-4.35
X4.95Y-4.45
X4.95Y-4.65
X4.95Y-5.3886
X4.95Y-5.4886
X4.95Y-5.5886
X4.95Y-5.6886
X4.95Y-5.7886
X4.95Y-5.9886
X4.95Y-6.7272
X4.95Y-6.8272
X4.95Y-6.9272
X4.95Y-7.0272
X4.95Y-7.1272
X4.95Y-7.3272
X5.05Y-4.05
X5.05Y-4.65
X5.05Y-5.3886
X5.05Y-5.9886
X5.05Y-6.7272
X5.05Y-7.3272
X5.15Y-4.05
X5.15Y-4.15
X5.15Y-4.25
X5.15Y-4.35
X5.15Y-4.45
X5.15Y-4.65
X5.15Y-5.3886
X5.15Y-5.4886
X5.15Y-5.5886
X5.15Y-5.6886
X5.15Y-5.7886
X5.15Y-5.9886
X5.15Y-6.7272
X5.15Y-6.8272
X5.15Y-6.9272
X5.15Y-7.0272
X5.15Y-7.1272
X5.15Y-7.3272
X5.225Y-4.2
X5.225Y-4.3
X5.225Y-4.4
X5.225Y-4.5
X5.225Y-5.5386
X5.225Y-5.6386
X5.225Y-5.7386
X5.225Y-5.8386
X5.225Y-6.8772
X5.225Y-6.9772
X5.225Y-7.0772
X5.225Y-7.1772
X5.25Y-4.05
X5.25Y-4.65
X5.25Y-5.3886
X5.25Y-5.9886
X5.25Y-6.7272
X5.25Y-7.3272
X5.35Y-4.05
X5.35Y-4.65
X5.35Y-5.3886
X5.35Y-5.9886
X5.35Y-6.7272
X5.35Y-7.3272
X5.425Y-4.2
X5.425Y-4.3
X5.425Y-4.4
X5.425Y-4.5
X5.425Y-5.5386
X5.425Y-5.6386
X5.425Y-5.7386
X5.425Y-5.8386
X5.425Y-6.8772
X5.425Y-6.9772
X5.425Y-7.0772
X5.425Y-7.1772
X5.45Y-4.05
X5.45Y-4.65
X5.45Y-4.9
X5.45Y-5.3886
X5.45Y-5.9886
X5.45Y-6.2386
X5.45Y-6.7272
X5.45Y-7.3272
X5.45Y-7.5772
X5.55Y-4.05
X5.55Y-4.65
X5.55Y-5.3886
X5.55Y-5.9886
X5.55Y-6.7272
X5.55Y-7.3272
X5.65Y-4.05
X5.65Y-4.65
X5.65Y-4.9
X5.65Y-5.
X5.65Y-5.3886
X5.65Y-5.9886
X5.65Y-6.2386
X5.65Y-6.3386
X5.65Y-6.7272
X5.65Y-7.3272
X5.65Y-7.5772
X5.65Y-7.6772
X5.75Y-4.05
X5.75Y-4.65
X5.75Y-5.3886
X5.75Y-5.9886
X5.75Y-6.7272
X5.75Y-7.3272
X5.85Y-4.05
X5.85Y-4.65
X5.85Y-5.
X5.85Y-5.3886
X5.85Y-5.9886
X5.85Y-6.3386
X5.85Y-6.7272
X5.85Y-7.3272
X5.85Y-7.6772
X5.95Y-4.05
X5.95Y-4.65
X5.95Y-5.
X5.95Y-5.1
X5.95Y-5.3886
X5.95Y-5.9886
X5.95Y-6.3386
X5.95Y-6.4386
X5.95Y-6.7272
X5.95Y-7.3272
X5.95Y-7.6772
X5.95Y-7.7772
X6.05Y-4.05
X6.05Y-4.65
X6.05Y-5.
X6.05Y-5.1
X6.05Y-5.3886
X6.05Y-5.9886
X6.05Y-6.3386
X6.05Y-6.4386
X6.05Y-6.7272
X6.05Y-7.3272
X6.05Y-7.6772
X6.05Y-7.7772
X6.15Y-4.05
X6.15Y-4.65
X6.15Y-5.
X6.15Y-5.1
X6.15Y-5.3886
X6.15Y-5.9886
X6.15Y-6.3386
X6.15Y-6.4386
X6.15Y-6.7272
X6.15Y-7.3272
X6.15Y-7.6772
X6.15Y-7.7772
X6.25Y-4.05
X6.25Y-4.65
X6.25Y-5.
X6.25Y-5.1
X6.25Y-5.3886
X6.25Y-5.9886
X6.25Y-6.3386
X6.25Y-6.4386
X6.25Y-6.7272
X6.25Y-7.3272
X6.25Y-7.6772
X6.25Y-7.7772
X6.3Y-4.8
X6.3Y-4.9
X6.3Y-6.1386
X6.3Y-6.2386
X6.3Y-7.4772
X6.3Y-7.5772
X6.35Y-4.05
X6.35Y-4.65
X6.35Y-5.3886
X6.35Y-5.9886
X6.35Y-6.7272
X6.35Y-7.3272
X6.45Y-4.05
X6.45Y-4.65
X6.45Y-5.3886
X6.45Y-5.9886
X6.45Y-6.7272
X6.45Y-7.3272
X6.55Y-4.05
X6.55Y-4.65
X6.55Y-5.3886
X6.55Y-5.9886
X6.55Y-6.7272
X6.55Y-7.3272
X6.65Y-4.05
X6.65Y-4.65
X6.65Y-5.3886
X6.65Y-5.9886
X6.65Y-6.7272
X6.65Y-7.3272
X6.75Y-4.05
X6.75Y-4.65
X6.75Y-5.3886
X6.75Y-5.9886
X6.75Y-6.7272
X6.75Y-7.3272
X6.85Y-4.05
X6.85Y-4.65
X6.85Y-5.3886
X6.85Y-5.9886
X6.85Y-6.7272
X6.85Y-7.3272
X6.95Y-4.05
X6.95Y-4.65
X6.95Y-5.3886
X6.95Y-5.9886
X6.95Y-6.7272
X6.95Y-7.3272
X7.05Y-4.05
X7.05Y-4.65
X7.05Y-5.3886
X7.05Y-5.9886
X7.05Y-6.7272
X7.05Y-7.3272
X7.15Y-4.05
X7.15Y-4.65
X7.15Y-5.3886
X7.15Y-5.9886
X7.15Y-6.7272
X7.15Y-7.3272
X7.25Y-4.05
X7.25Y-4.65
X7.25Y-5.3886
X7.25Y-5.9886
X7.25Y-6.7272
X7.25Y-7.3272
X7.35Y-4.05
X7.35Y-4.65
X7.35Y-5.3886
X7.35Y-5.9886
X7.35Y-6.7272
X7.35Y-7.3272
X7.45Y-4.05
X7.45Y-4.65
X7.45Y-5.3886
X7.45Y-5.9886
X7.45Y-6.7272
X7.45Y-7.3272
X7.55Y-4.05
X7.55Y-4.65
X7.55Y-5.3886
X7.55Y-5.9886
X7.55Y-6.7272
X7.55Y-7.3272
X7.65Y-4.05
X7.65Y-4.65
X7.65Y-5.3886
X7.65Y-5.9886
X7.65Y-6.7272
X7.65Y-7.3272
X7.75Y-4.05
X7.75Y-4.65
X7.75Y-5.3886
X7.75Y-5.9886
X7.75Y-6.7272
X7.75Y-7.3272
X7.85Y-4.05
X7.85Y-4.65
X7.85Y-5.3886
X7.85Y-5.9886
X7.85Y-6.7272
X7.85Y-7.3272
X7.95Y-4.05
X7.95Y-4.65
X7.95Y-5.3886
X7.95Y-5.9886
X7.95Y-6.7272
X7.95Y-7.3272
X8.05Y-4.05
X8.05Y-4.65
X8.05Y-5.3886
X8.05Y-5.9886
X8.05Y-6.7272
X8.05Y-7.3272
X8.15Y-4.05
X8.15Y-4.65
X8.15Y-5.3886
X8.15Y-5.9886
X8.15Y-6.7272
X8.15Y-7.3272
X8.25Y-4.05
X8.25Y-4.15
X8.25Y-4.25
X8.25Y-4.35
X8.25Y-4.45
X8.25Y-4.65
X8.25Y-5.3886
X8.25Y-5.4886
X8.25Y-5.5886
X8.25Y-5.6886
X8.25Y-5.7886
X8.25Y-5.9886
X8.25Y-6.7272
X8.25Y-6.8272
X8.25Y-6.9272
X8.25Y-7.0272
X8.25Y-7.1272
X8.25Y-7.3272
X8.35Y-4.05
X8.35Y-4.65
X8.35Y-5.3886
X8.35Y-5.9886
X8.35Y-6.7272
X8.35Y-7.3272
X8.45Y-4.05
X8.45Y-4.15
X8.45Y-4.25
X8.45Y-4.35
X8.45Y-4.45
X8.45Y-4.65
X8.45Y-5.3886
X8.45Y-5.4886
X8.45Y-5.5886
X8.45Y-5.6886
X8.45Y-5.7886
X8.45Y-5.9886
X8.45Y-6.7272
X8.45Y-6.8272
X8.45Y-6.9272
X8.45Y-7.0272
X8.45Y-7.1272
X8.45Y-7.3272
X8.55Y-4.05
X8.55Y-4.65
X8.55Y-5.3886
X8.55Y-5.9886
X8.55Y-6.7272
X8.55Y-7.3272
X8.65Y-4.05
X8.65Y-4.175
X8.65Y-4.275
X8.65Y-4.375
X8.65Y-4.475
X8.65Y-4.65
X8.65Y-5.3886
X8.65Y-5.5136
X8.65Y-5.6136
X8.65Y-5.7136
X8.65Y-5.8136
X8.65Y-5.9886
X8.65Y-6.7272
X8.65Y-6.8522
X8.65Y-6.9522
X8.65Y-7.0522
X8.65Y-7.1522
X8.65Y-7.3272
X8.75Y-4.05
X8.75Y-4.65
X8.75Y-5.3886
X8.75Y-5.9886
X8.75Y-6.7272
X8.75Y-7.3272
X8.85Y-4.05
X8.85Y-4.175
X8.85Y-4.275
X8.85Y-4.375
X8.85Y-4.475
X8.85Y-4.65
X8.85Y-5.3886
X8.85Y-5.5136
X8.85Y-5.6136
X8.85Y-5.7136
X8.85Y-5.8136
X8.85Y-5.9886
X8.85Y-6.7272
X8.85Y-6.8522
X8.85Y-6.9522
X8.85Y-7.0522
X8.85Y-7.1522
X8.85Y-7.3272
T3
X5.925Y-4.825
X5.925Y-6.1636
X5.925Y-7.5022
X6.125Y-4.825
X6.125Y-6.1636
X6.125Y-7.5022
X8.55Y-4.85
X8.55Y-5.15
X8.55Y-6.1886
X8.55Y-6.4886
X8.55Y-7.5272
X8.55Y-7.8272
X8.65Y-4.85
X8.65Y-5.15
X8.65Y-6.1886
X8.65Y-6.4886
X8.65Y-7.5272
X8.65Y-7.8272
X8.75Y-4.85
X8.75Y-5.15
X8.75Y-6.1886
X8.75Y-6.4886
X8.75Y-7.5272
X8.75Y-7.8272
X8.85Y-4.85
X8.85Y-5.15
X8.85Y-6.1886
X8.85Y-6.4886
X8.85Y-7.5272
X8.85Y-7.8272
X8.95Y-4.85
X8.95Y-5.15
X8.95Y-6.1886
X8.95Y-6.4886
X8.95Y-7.5272
X8.95Y-7.8272
X9.05Y-4.85
X9.05Y-5.15
X9.05Y-6.1886
X9.05Y-6.4886
X9.05Y-7.5272
X9.05Y-7.8272
X9.15Y-4.85
X9.15Y-5.15
X9.15Y-6.1886
X9.15Y-6.4886
X9.15Y-7.5272
X9.15Y-7.8272
X9.25Y-4.85
X9.25Y-5.15
X9.25Y-6.1886
X9.25Y-6.4886
X9.25Y-7.5272
X9.25Y-7.8272
X9.425Y-4.85
X9.425Y-6.1886
X9.425Y-7.5272
X9.525Y-4.85
X9.525Y-6.1886
X9.525Y-7.5272
X9.625Y-4.65
X9.625Y-5.9886
X9.625Y-7.3272
X9.725Y-4.3
X9.725Y-4.4
X9.725Y-4.55
X9.725Y-4.75
X9.725Y-5.6386
X9.725Y-5.7386
X9.725Y-5.8886
X9.725Y-6.0886
X9.725Y-6.9772
X9.725Y-7.0772
X9.725Y-7.2272
X9.725Y-7.4272
T4
X4.55Y-4.05
X4.55Y-4.15
X4.55Y-4.25
X4.55Y-4.35
X4.55Y-4.45
X4.55Y-4.55
X4.55Y-4.65
X4.55Y-4.75
X4.55Y-4.85
X4.55Y-4.95
X4.55Y-5.3886
X4.55Y-5.4886
X4.55Y-5.5886
X4.55Y-5.6886
X4.55Y-5.7886
X4.55Y-5.8886
X4.55Y-5.9886
X4.55Y-6.0886
X4.55Y-6.1886
X4.55Y-6.2886
X4.55Y-6.7272
X4.55Y-6.8272
X4.55Y-6.9272
X4.55Y-7.0272
X4.55Y-7.1272
X4.55Y-7.2272
X4.55Y-7.3272
X4.55Y-7.4272
X4.55Y-7.5272
X4.55Y-7.6272
X4.85Y-4.05
X4.85Y-4.15
X4.85Y-4.25
X4.85Y-4.35
X4.85Y-4.45
X4.85Y-4.55
X4.85Y-4.65
X4.85Y-4.75
X4.85Y-4.85
X4.85Y-4.95
X4.85Y-5.3886
X4.85Y-5.4886
X4.85Y-5.5886
X4.85Y-5.6886
X4.85Y-5.7886
X4.85Y-5.8886
X4.85Y-5.9886
X4.85Y-6.0886
X4.85Y-6.1886
X4.85Y-6.2886
X4.85Y-6.7272
X4.85Y-6.8272
X4.85Y-6.9272
X4.85Y-7.0272
X4.85Y-7.1272
X4.85Y-7.2272
X4.85Y-7.3272
X4.85Y-7.4272
X4.85Y-7.5272
X4.85Y-7.6272
X5.Y-4.8
X5.Y-5.1
X5.Y-6.1386
X5.Y-6.4386
X5.Y-7.4772
X5.Y-7.7772
X5.1Y-4.8
X5.1Y-5.1
X5.1Y-6.1386
X5.1Y-6.4386
X5.1Y-7.4772
X5.1Y-7.7772
X5.2Y-4.8
X5.2Y-5.1
X5.2Y-6.1386
X5.2Y-6.4386
X5.2Y-7.4772
X5.2Y-7.7772
X5.3Y-4.8
X5.3Y-5.1
X5.3Y-6.1386
X5.3Y-6.4386
X5.3Y-7.4772
X5.3Y-7.7772
X5.4Y-4.8
X5.4Y-5.1
X5.4Y-6.1386
X5.4Y-6.4386
X5.4Y-7.4772
X5.4Y-7.7772
X5.5Y-4.8
X5.5Y-5.1
X5.5Y-6.1386
X5.5Y-6.4386
X5.5Y-7.4772
X5.5Y-7.7772
X5.6Y-4.8
X5.6Y-5.1
X5.6Y-6.1386
X5.6Y-6.4386
X5.6Y-7.4772
X5.6Y-7.7772
X5.7Y-4.8
X5.7Y-5.1
X5.7Y-6.1386
X5.7Y-6.4386
X5.7Y-7.4772
X5.7Y-7.7772
X6.45Y-4.8
X6.45Y-5.1
X6.45Y-6.1386
X6.45Y-6.4386
X6.45Y-7.4772
X6.45Y-7.7772
X6.55Y-4.8
X6.55Y-5.1
X6.55Y-6.1386
X6.55Y-6.4386
X6.55Y-7.4772
X6.55Y-7.7772
X6.65Y-4.8
X6.65Y-5.1
X6.65Y-6.1386
X6.65Y-6.4386
X6.65Y-7.4772
X6.65Y-7.7772
X6.75Y-4.8
X6.75Y-5.1
X6.75Y-6.1386
X6.75Y-6.4386
X6.75Y-7.4772
X6.75Y-7.7772
X6.85Y-4.8
X6.85Y-5.1
X6.85Y-6.1386
X6.85Y-6.4386
X6.85Y-7.4772
X6.85Y-7.7772
X6.95Y-4.8
X6.95Y-5.1
X6.95Y-6.1386
X6.95Y-6.4386
X6.95Y-7.4772
X6.95Y-7.7772
X7.05Y-4.8
X7.05Y-5.1
X7.05Y-6.1386
X7.05Y-6.4386
X7.05Y-7.4772
X7.05Y-7.7772
X7.15Y-4.8
X7.15Y-5.1
X7.15Y-6.1386
X7.15Y-6.4386
X7.15Y-7.4772
X7.15Y-7.7772
X7.45Y-4.8
X7.45Y-5.1
X7.45Y-6.1386
X7.45Y-6.4386
X7.45Y-7.4772
X7.45Y-7.7772
X7.55Y-4.8
X7.55Y-5.1
X7.55Y-6.1386
X7.55Y-6.4386
X7.55Y-7.4772
X7.55Y-7.7772
X7.65Y-4.8
X7.65Y-5.1
X7.65Y-6.1386
X7.65Y-6.4386
X7.65Y-7.4772
X7.65Y-7.7772
X7.75Y-4.8
X7.75Y-5.1
X7.75Y-6.1386
X7.75Y-6.4386
X7.75Y-7.4772
X7.75Y-7.7772
X7.85Y-4.8
X7.85Y-5.1
X7.85Y-6.1386
X7.85Y-6.4386
X7.85Y-7.4772
X7.85Y-7.7772
X7.95Y-4.8
X7.95Y-5.1
X7.95Y-6.1386
X7.95Y-6.4386
X7.95Y-7.4772
X7.95Y-7.7772
X8.05Y-4.8
X8.05Y-5.1
X8.05Y-6.1386
X8.05Y-6.4386
X8.05Y-7.4772
X8.05Y-7.7772
X8.15Y-4.8
X8.15Y-5.1
X8.15Y-6.1386
X8.15Y-6.4386
X8.15Y-7.4772
X8.15Y-7.7772
X8.25Y-4.8
X8.25Y-5.1
X8.25Y-6.1386
X8.25Y-6.4386
X8.25Y-7.4772
X8.25Y-7.7772
T5
X4.075Y-4.265
X4.075Y-4.365
X4.075Y-4.465
X4.075Y-4.565
X4.075Y-4.665
X4.075Y-4.765
X4.075Y-4.865
X4.075Y-5.6036
X4.075Y-5.7036
X4.075Y-5.8036
X4.075Y-5.9036
X4.075Y-6.0036
X4.075Y-6.1036
X4.075Y-6.2036
X4.075Y-6.9422
X4.075Y-7.0422
X4.075Y-7.1422
X4.075Y-7.2422
X4.075Y-7.3422
X4.075Y-7.4422
X4.075Y-7.5422
X4.3Y-4.7
X4.3Y-4.8
X4.3Y-6.0386
X4.3Y-6.1386
X4.3Y-7.3772
X4.3Y-7.4772
X4.4421Y-4.45
X4.4421Y-4.55
X4.4421Y-5.7886
X4.4421Y-5.8886
X4.4421Y-7.1272
X4.4421Y-7.2272
X4.45Y-5.1
X4.45Y-6.4386
X4.45Y-7.7772
X4.4579Y-4.35
X4.4579Y-4.65
X4.4579Y-5.6886
X4.4579Y-5.9886
X4.4579Y-7.0272
X4.4579Y-7.3272
X4.55Y-5.1
X4.55Y-6.4386
X4.55Y-7.7772
X8.55Y-4.9
X8.55Y-5.
X8.55Y-6.2386
X8.55Y-6.3386
X8.55Y-7.5772
X8.55Y-7.6772
X8.65Y-4.9
X8.65Y-5.
X8.65Y-6.2386
X8.65Y-6.3386
X8.65Y-7.5772
X8.65Y-7.6772
X8.75Y-4.9
X8.75Y-5.
X8.75Y-6.2386
X8.75Y-6.3386
X8.75Y-7.5772
X8.75Y-7.6772
X8.85Y-4.9
X8.85Y-5.
X8.85Y-6.2386
X8.85Y-6.3386
X8.85Y-7.5772
X8.85Y-7.6772
X8.95Y-4.9
X8.95Y-5.
X8.95Y-6.2386
X8.95Y-6.3386
X8.95Y-7.5772
X8.95Y-7.6772
X9.05Y-4.9
X9.05Y-5.
X9.05Y-6.2386
X9.05Y-6.3386
X9.05Y-7.5772
X9.05Y-7.6772
X9.15Y-4.9
X9.15Y-5.
X9.15Y-6.2386
X9.15Y-6.3386
X9.15Y-7.5772
X9.15Y-7.6772
X9.175Y-4.
X9.175Y-4.1
X9.175Y-4.2
X9.175Y-4.3
X9.175Y-4.4
X9.175Y-4.5
X9.175Y-4.6
X9.175Y-5.3386
X9.175Y-5.4386
X9.175Y-5.5386
X9.175Y-5.6386
X9.175Y-5.7386
X9.175Y-5.8386
X9.175Y-5.9386
X9.175Y-6.6772
X9.175Y-6.7772
X9.175Y-6.8772
X9.175Y-6.9772
X9.175Y-7.0772
X9.175Y-7.1772
X9.175Y-7.2772
X9.25Y-4.9
X9.25Y-5.
X9.25Y-6.2386
X9.25Y-6.3386
X9.25Y-7.5772
X9.25Y-7.6772
X9.275Y-4.
X9.275Y-4.1
X9.275Y-4.2
X9.275Y-4.3
X9.275Y-4.4
X9.275Y-4.5
X9.275Y-4.6
X9.275Y-5.3386
X9.275Y-5.4386
X9.275Y-5.5386
X9.275Y-5.6386
X9.275Y-5.7386
X9.275Y-5.8386
X9.275Y-5.9386
X9.275Y-6.6772
X9.275Y-6.7772
X9.275Y-6.8772
X9.275Y-6.9772
X9.275Y-7.0772
X9.275Y-7.1772
X9.275Y-7.2772
X9.4Y-5.075
X9.4Y-6.4136
X9.4Y-7.7522
X9.5Y-5.075
X9.5Y-6.4136
X9.5Y-7.7522
T6
X9.375Y-4.3
X9.375Y-5.6386
X9.375Y-6.9772
X9.475Y-4.2
X9.475Y-4.4
X9.475Y-5.5386
X9.475Y-5.7386
X9.475Y-6.8772
X9.475Y-7.0772
T7
X4.0945Y-4.0945
X4.0945Y-5.0394
X4.0945Y-5.4331
X4.0945Y-6.378
X4.0945Y-6.7717
X4.0945Y-7.7165
X9.685Y-4.0945
X9.685Y-5.0394
X9.685Y-5.4331
X9.685Y-6.378
X9.685Y-6.7717
X9.685Y-7.7165
T0
M30
