G04 (created by PCBNEW (2013-07-07 BZR 4022)-stable) date 15/01/2014 06:25:56*
%MOIN*%
G04 Gerber Fmt 3.4, Leading zero omitted, Abs format*
%FSLAX34Y34*%
G01*
G70*
G90*
G04 APERTURE LIST*
%ADD10C,0.00590551*%
%ADD11C,0.015*%
%ADD12C,0.012*%
%ADD13C,0.00787402*%
G04 APERTURE END LIST*
G54D10*
G54D11*
X94881Y-52755D02*
X42913Y-52755D01*
X42913Y-51968D02*
X94881Y-51968D01*
X94881Y-66141D02*
X42913Y-66141D01*
X42913Y-65354D02*
X94881Y-65354D01*
G54D12*
X83907Y-75826D02*
X84107Y-75826D01*
X84107Y-76245D02*
X84107Y-75445D01*
X83821Y-75445D01*
X83250Y-76169D02*
X83278Y-76207D01*
X83364Y-76245D01*
X83421Y-76245D01*
X83507Y-76207D01*
X83564Y-76131D01*
X83592Y-76054D01*
X83621Y-75902D01*
X83621Y-75788D01*
X83592Y-75635D01*
X83564Y-75559D01*
X83507Y-75483D01*
X83421Y-75445D01*
X83364Y-75445D01*
X83278Y-75483D01*
X83250Y-75521D01*
X82878Y-75445D02*
X82821Y-75445D01*
X82764Y-75483D01*
X82735Y-75521D01*
X82707Y-75597D01*
X82678Y-75750D01*
X82678Y-75940D01*
X82707Y-76093D01*
X82735Y-76169D01*
X82764Y-76207D01*
X82821Y-76245D01*
X82878Y-76245D01*
X82935Y-76207D01*
X82964Y-76169D01*
X82992Y-76093D01*
X83021Y-75940D01*
X83021Y-75750D01*
X82992Y-75597D01*
X82964Y-75521D01*
X82935Y-75483D01*
X82878Y-75445D01*
X82307Y-75445D02*
X82250Y-75445D01*
X82192Y-75483D01*
X82164Y-75521D01*
X82135Y-75597D01*
X82107Y-75750D01*
X82107Y-75940D01*
X82135Y-76093D01*
X82164Y-76169D01*
X82192Y-76207D01*
X82250Y-76245D01*
X82307Y-76245D01*
X82364Y-76207D01*
X82392Y-76169D01*
X82421Y-76093D01*
X82450Y-75940D01*
X82450Y-75750D01*
X82421Y-75597D01*
X82392Y-75521D01*
X82364Y-75483D01*
X82307Y-75445D01*
X81907Y-75445D02*
X81535Y-75445D01*
X81735Y-75750D01*
X81650Y-75750D01*
X81592Y-75788D01*
X81564Y-75826D01*
X81535Y-75902D01*
X81535Y-76093D01*
X81564Y-76169D01*
X81592Y-76207D01*
X81650Y-76245D01*
X81821Y-76245D01*
X81878Y-76207D01*
X81907Y-76169D01*
X80821Y-75940D02*
X80364Y-75940D01*
X79621Y-76245D02*
X79621Y-75445D01*
X79478Y-75445D01*
X79392Y-75483D01*
X79335Y-75559D01*
X79307Y-75635D01*
X79278Y-75788D01*
X79278Y-75902D01*
X79307Y-76054D01*
X79335Y-76131D01*
X79392Y-76207D01*
X79478Y-76245D01*
X79621Y-76245D01*
X79021Y-75826D02*
X78821Y-75826D01*
X78735Y-76245D02*
X79021Y-76245D01*
X79021Y-75445D01*
X78735Y-75445D01*
X78507Y-76207D02*
X78421Y-76245D01*
X78278Y-76245D01*
X78221Y-76207D01*
X78192Y-76169D01*
X78164Y-76093D01*
X78164Y-76016D01*
X78192Y-75940D01*
X78221Y-75902D01*
X78278Y-75864D01*
X78392Y-75826D01*
X78449Y-75788D01*
X78478Y-75750D01*
X78507Y-75674D01*
X78507Y-75597D01*
X78478Y-75521D01*
X78449Y-75483D01*
X78392Y-75445D01*
X78249Y-75445D01*
X78164Y-75483D01*
X77907Y-76245D02*
X77907Y-75445D01*
X77307Y-75483D02*
X77364Y-75445D01*
X77449Y-75445D01*
X77535Y-75483D01*
X77592Y-75559D01*
X77621Y-75635D01*
X77649Y-75788D01*
X77649Y-75902D01*
X77621Y-76054D01*
X77592Y-76131D01*
X77535Y-76207D01*
X77449Y-76245D01*
X77392Y-76245D01*
X77307Y-76207D01*
X77278Y-76169D01*
X77278Y-75902D01*
X77392Y-75902D01*
X77021Y-76245D02*
X77021Y-75445D01*
X76678Y-76245D01*
X76678Y-75445D01*
X76392Y-75826D02*
X76192Y-75826D01*
X76107Y-76245D02*
X76392Y-76245D01*
X76392Y-75445D01*
X76107Y-75445D01*
X75850Y-76245D02*
X75850Y-75445D01*
X75707Y-75445D01*
X75621Y-75483D01*
X75564Y-75559D01*
X75535Y-75635D01*
X75507Y-75788D01*
X75507Y-75902D01*
X75535Y-76054D01*
X75564Y-76131D01*
X75621Y-76207D01*
X75707Y-76245D01*
X75850Y-76245D01*
X74592Y-75826D02*
X74507Y-75864D01*
X74478Y-75902D01*
X74450Y-75978D01*
X74450Y-76093D01*
X74478Y-76169D01*
X74507Y-76207D01*
X74564Y-76245D01*
X74792Y-76245D01*
X74792Y-75445D01*
X74592Y-75445D01*
X74535Y-75483D01*
X74507Y-75521D01*
X74478Y-75597D01*
X74478Y-75674D01*
X74507Y-75750D01*
X74535Y-75788D01*
X74592Y-75826D01*
X74792Y-75826D01*
X74078Y-75864D02*
X74078Y-76245D01*
X74278Y-75445D02*
X74078Y-75864D01*
X73878Y-75445D01*
X73249Y-76207D02*
X73164Y-76245D01*
X73021Y-76245D01*
X72964Y-76207D01*
X72935Y-76169D01*
X72907Y-76093D01*
X72907Y-76016D01*
X72935Y-75940D01*
X72964Y-75902D01*
X73021Y-75864D01*
X73135Y-75826D01*
X73192Y-75788D01*
X73221Y-75750D01*
X73249Y-75674D01*
X73249Y-75597D01*
X73221Y-75521D01*
X73192Y-75483D01*
X73135Y-75445D01*
X72992Y-75445D01*
X72907Y-75483D01*
X72649Y-75445D02*
X72649Y-76093D01*
X72621Y-76169D01*
X72592Y-76207D01*
X72535Y-76245D01*
X72421Y-76245D01*
X72364Y-76207D01*
X72335Y-76169D01*
X72307Y-76093D01*
X72307Y-75445D01*
X71821Y-75826D02*
X72021Y-75826D01*
X72021Y-76245D02*
X72021Y-75445D01*
X71735Y-75445D01*
X83907Y-62440D02*
X84107Y-62440D01*
X84107Y-62859D02*
X84107Y-62059D01*
X83821Y-62059D01*
X83250Y-62783D02*
X83278Y-62821D01*
X83364Y-62859D01*
X83421Y-62859D01*
X83507Y-62821D01*
X83564Y-62745D01*
X83592Y-62669D01*
X83621Y-62516D01*
X83621Y-62402D01*
X83592Y-62250D01*
X83564Y-62173D01*
X83507Y-62097D01*
X83421Y-62059D01*
X83364Y-62059D01*
X83278Y-62097D01*
X83250Y-62135D01*
X82878Y-62059D02*
X82821Y-62059D01*
X82764Y-62097D01*
X82735Y-62135D01*
X82707Y-62212D01*
X82678Y-62364D01*
X82678Y-62554D01*
X82707Y-62707D01*
X82735Y-62783D01*
X82764Y-62821D01*
X82821Y-62859D01*
X82878Y-62859D01*
X82935Y-62821D01*
X82964Y-62783D01*
X82992Y-62707D01*
X83021Y-62554D01*
X83021Y-62364D01*
X82992Y-62212D01*
X82964Y-62135D01*
X82935Y-62097D01*
X82878Y-62059D01*
X82307Y-62059D02*
X82250Y-62059D01*
X82192Y-62097D01*
X82164Y-62135D01*
X82135Y-62212D01*
X82107Y-62364D01*
X82107Y-62554D01*
X82135Y-62707D01*
X82164Y-62783D01*
X82192Y-62821D01*
X82250Y-62859D01*
X82307Y-62859D01*
X82364Y-62821D01*
X82392Y-62783D01*
X82421Y-62707D01*
X82450Y-62554D01*
X82450Y-62364D01*
X82421Y-62212D01*
X82392Y-62135D01*
X82364Y-62097D01*
X82307Y-62059D01*
X81907Y-62059D02*
X81535Y-62059D01*
X81735Y-62364D01*
X81650Y-62364D01*
X81592Y-62402D01*
X81564Y-62440D01*
X81535Y-62516D01*
X81535Y-62707D01*
X81564Y-62783D01*
X81592Y-62821D01*
X81650Y-62859D01*
X81821Y-62859D01*
X81878Y-62821D01*
X81907Y-62783D01*
X80821Y-62554D02*
X80364Y-62554D01*
X79621Y-62859D02*
X79621Y-62059D01*
X79478Y-62059D01*
X79392Y-62097D01*
X79335Y-62173D01*
X79307Y-62250D01*
X79278Y-62402D01*
X79278Y-62516D01*
X79307Y-62669D01*
X79335Y-62745D01*
X79392Y-62821D01*
X79478Y-62859D01*
X79621Y-62859D01*
X79021Y-62440D02*
X78821Y-62440D01*
X78735Y-62859D02*
X79021Y-62859D01*
X79021Y-62059D01*
X78735Y-62059D01*
X78507Y-62821D02*
X78421Y-62859D01*
X78278Y-62859D01*
X78221Y-62821D01*
X78192Y-62783D01*
X78164Y-62707D01*
X78164Y-62631D01*
X78192Y-62554D01*
X78221Y-62516D01*
X78278Y-62478D01*
X78392Y-62440D01*
X78449Y-62402D01*
X78478Y-62364D01*
X78507Y-62288D01*
X78507Y-62212D01*
X78478Y-62135D01*
X78449Y-62097D01*
X78392Y-62059D01*
X78249Y-62059D01*
X78164Y-62097D01*
X77907Y-62859D02*
X77907Y-62059D01*
X77307Y-62097D02*
X77364Y-62059D01*
X77449Y-62059D01*
X77535Y-62097D01*
X77592Y-62173D01*
X77621Y-62250D01*
X77649Y-62402D01*
X77649Y-62516D01*
X77621Y-62669D01*
X77592Y-62745D01*
X77535Y-62821D01*
X77449Y-62859D01*
X77392Y-62859D01*
X77307Y-62821D01*
X77278Y-62783D01*
X77278Y-62516D01*
X77392Y-62516D01*
X77021Y-62859D02*
X77021Y-62059D01*
X76678Y-62859D01*
X76678Y-62059D01*
X76392Y-62440D02*
X76192Y-62440D01*
X76107Y-62859D02*
X76392Y-62859D01*
X76392Y-62059D01*
X76107Y-62059D01*
X75850Y-62859D02*
X75850Y-62059D01*
X75707Y-62059D01*
X75621Y-62097D01*
X75564Y-62173D01*
X75535Y-62250D01*
X75507Y-62402D01*
X75507Y-62516D01*
X75535Y-62669D01*
X75564Y-62745D01*
X75621Y-62821D01*
X75707Y-62859D01*
X75850Y-62859D01*
X74592Y-62440D02*
X74507Y-62478D01*
X74478Y-62516D01*
X74450Y-62592D01*
X74450Y-62707D01*
X74478Y-62783D01*
X74507Y-62821D01*
X74564Y-62859D01*
X74792Y-62859D01*
X74792Y-62059D01*
X74592Y-62059D01*
X74535Y-62097D01*
X74507Y-62135D01*
X74478Y-62212D01*
X74478Y-62288D01*
X74507Y-62364D01*
X74535Y-62402D01*
X74592Y-62440D01*
X74792Y-62440D01*
X74078Y-62478D02*
X74078Y-62859D01*
X74278Y-62059D02*
X74078Y-62478D01*
X73878Y-62059D01*
X73249Y-62821D02*
X73164Y-62859D01*
X73021Y-62859D01*
X72964Y-62821D01*
X72935Y-62783D01*
X72907Y-62707D01*
X72907Y-62631D01*
X72935Y-62554D01*
X72964Y-62516D01*
X73021Y-62478D01*
X73135Y-62440D01*
X73192Y-62402D01*
X73221Y-62364D01*
X73249Y-62288D01*
X73249Y-62212D01*
X73221Y-62135D01*
X73192Y-62097D01*
X73135Y-62059D01*
X72992Y-62059D01*
X72907Y-62097D01*
X72649Y-62059D02*
X72649Y-62707D01*
X72621Y-62783D01*
X72592Y-62821D01*
X72535Y-62859D01*
X72421Y-62859D01*
X72364Y-62821D01*
X72335Y-62783D01*
X72307Y-62707D01*
X72307Y-62059D01*
X71821Y-62440D02*
X72021Y-62440D01*
X72021Y-62859D02*
X72021Y-62059D01*
X71735Y-62059D01*
X83907Y-49054D02*
X84107Y-49054D01*
X84107Y-49473D02*
X84107Y-48673D01*
X83821Y-48673D01*
X83250Y-49397D02*
X83278Y-49435D01*
X83364Y-49473D01*
X83421Y-49473D01*
X83507Y-49435D01*
X83564Y-49359D01*
X83592Y-49283D01*
X83621Y-49130D01*
X83621Y-49016D01*
X83592Y-48864D01*
X83564Y-48788D01*
X83507Y-48711D01*
X83421Y-48673D01*
X83364Y-48673D01*
X83278Y-48711D01*
X83250Y-48750D01*
X82878Y-48673D02*
X82821Y-48673D01*
X82764Y-48711D01*
X82735Y-48750D01*
X82707Y-48826D01*
X82678Y-48978D01*
X82678Y-49169D01*
X82707Y-49321D01*
X82735Y-49397D01*
X82764Y-49435D01*
X82821Y-49473D01*
X82878Y-49473D01*
X82935Y-49435D01*
X82964Y-49397D01*
X82992Y-49321D01*
X83021Y-49169D01*
X83021Y-48978D01*
X82992Y-48826D01*
X82964Y-48750D01*
X82935Y-48711D01*
X82878Y-48673D01*
X82307Y-48673D02*
X82250Y-48673D01*
X82192Y-48711D01*
X82164Y-48750D01*
X82135Y-48826D01*
X82107Y-48978D01*
X82107Y-49169D01*
X82135Y-49321D01*
X82164Y-49397D01*
X82192Y-49435D01*
X82250Y-49473D01*
X82307Y-49473D01*
X82364Y-49435D01*
X82392Y-49397D01*
X82421Y-49321D01*
X82450Y-49169D01*
X82450Y-48978D01*
X82421Y-48826D01*
X82392Y-48750D01*
X82364Y-48711D01*
X82307Y-48673D01*
X81907Y-48673D02*
X81535Y-48673D01*
X81735Y-48978D01*
X81650Y-48978D01*
X81592Y-49016D01*
X81564Y-49054D01*
X81535Y-49130D01*
X81535Y-49321D01*
X81564Y-49397D01*
X81592Y-49435D01*
X81650Y-49473D01*
X81821Y-49473D01*
X81878Y-49435D01*
X81907Y-49397D01*
X80821Y-49169D02*
X80364Y-49169D01*
X79621Y-49473D02*
X79621Y-48673D01*
X79478Y-48673D01*
X79392Y-48711D01*
X79335Y-48788D01*
X79307Y-48864D01*
X79278Y-49016D01*
X79278Y-49130D01*
X79307Y-49283D01*
X79335Y-49359D01*
X79392Y-49435D01*
X79478Y-49473D01*
X79621Y-49473D01*
X79021Y-49054D02*
X78821Y-49054D01*
X78735Y-49473D02*
X79021Y-49473D01*
X79021Y-48673D01*
X78735Y-48673D01*
X78507Y-49435D02*
X78421Y-49473D01*
X78278Y-49473D01*
X78221Y-49435D01*
X78192Y-49397D01*
X78164Y-49321D01*
X78164Y-49245D01*
X78192Y-49169D01*
X78221Y-49130D01*
X78278Y-49092D01*
X78392Y-49054D01*
X78449Y-49016D01*
X78478Y-48978D01*
X78507Y-48902D01*
X78507Y-48826D01*
X78478Y-48750D01*
X78449Y-48711D01*
X78392Y-48673D01*
X78249Y-48673D01*
X78164Y-48711D01*
X77907Y-49473D02*
X77907Y-48673D01*
X77307Y-48711D02*
X77364Y-48673D01*
X77449Y-48673D01*
X77535Y-48711D01*
X77592Y-48788D01*
X77621Y-48864D01*
X77649Y-49016D01*
X77649Y-49130D01*
X77621Y-49283D01*
X77592Y-49359D01*
X77535Y-49435D01*
X77449Y-49473D01*
X77392Y-49473D01*
X77307Y-49435D01*
X77278Y-49397D01*
X77278Y-49130D01*
X77392Y-49130D01*
X77021Y-49473D02*
X77021Y-48673D01*
X76678Y-49473D01*
X76678Y-48673D01*
X76392Y-49054D02*
X76192Y-49054D01*
X76107Y-49473D02*
X76392Y-49473D01*
X76392Y-48673D01*
X76107Y-48673D01*
X75850Y-49473D02*
X75850Y-48673D01*
X75707Y-48673D01*
X75621Y-48711D01*
X75564Y-48788D01*
X75535Y-48864D01*
X75507Y-49016D01*
X75507Y-49130D01*
X75535Y-49283D01*
X75564Y-49359D01*
X75621Y-49435D01*
X75707Y-49473D01*
X75850Y-49473D01*
X74592Y-49054D02*
X74507Y-49092D01*
X74478Y-49130D01*
X74450Y-49207D01*
X74450Y-49321D01*
X74478Y-49397D01*
X74507Y-49435D01*
X74564Y-49473D01*
X74792Y-49473D01*
X74792Y-48673D01*
X74592Y-48673D01*
X74535Y-48711D01*
X74507Y-48750D01*
X74478Y-48826D01*
X74478Y-48902D01*
X74507Y-48978D01*
X74535Y-49016D01*
X74592Y-49054D01*
X74792Y-49054D01*
X74078Y-49092D02*
X74078Y-49473D01*
X74278Y-48673D02*
X74078Y-49092D01*
X73878Y-48673D01*
X73249Y-49435D02*
X73164Y-49473D01*
X73021Y-49473D01*
X72964Y-49435D01*
X72935Y-49397D01*
X72907Y-49321D01*
X72907Y-49245D01*
X72935Y-49169D01*
X72964Y-49130D01*
X73021Y-49092D01*
X73135Y-49054D01*
X73192Y-49016D01*
X73221Y-48978D01*
X73249Y-48902D01*
X73249Y-48826D01*
X73221Y-48750D01*
X73192Y-48711D01*
X73135Y-48673D01*
X72992Y-48673D01*
X72907Y-48711D01*
X72649Y-48673D02*
X72649Y-49321D01*
X72621Y-49397D01*
X72592Y-49435D01*
X72535Y-49473D01*
X72421Y-49473D01*
X72364Y-49435D01*
X72335Y-49397D01*
X72307Y-49321D01*
X72307Y-48673D01*
X71821Y-49054D02*
X72021Y-49054D01*
X72021Y-49473D02*
X72021Y-48673D01*
X71735Y-48673D01*
G54D13*
X53750Y-68771D02*
X54250Y-68771D01*
X52250Y-68771D02*
X52750Y-68771D01*
X53750Y-69021D02*
X53750Y-68521D01*
X53750Y-68521D02*
X52750Y-68521D01*
X52750Y-68521D02*
X52750Y-69021D01*
X52750Y-69021D02*
X53750Y-69021D01*
X51000Y-69271D02*
X51500Y-69271D01*
X49500Y-69271D02*
X50000Y-69271D01*
X51000Y-69521D02*
X51000Y-69021D01*
X51000Y-69021D02*
X50000Y-69021D01*
X50000Y-69021D02*
X50000Y-69521D01*
X50000Y-69521D02*
X51000Y-69521D01*
X47000Y-73771D02*
X47000Y-73271D01*
X47000Y-75271D02*
X47000Y-74771D01*
X47250Y-73771D02*
X46750Y-73771D01*
X46750Y-73771D02*
X46750Y-74771D01*
X46750Y-74771D02*
X47250Y-74771D01*
X47250Y-74771D02*
X47250Y-73771D01*
X51000Y-68271D02*
X51500Y-68271D01*
X49500Y-68271D02*
X50000Y-68271D01*
X51000Y-68521D02*
X51000Y-68021D01*
X51000Y-68021D02*
X50000Y-68021D01*
X50000Y-68021D02*
X50000Y-68521D01*
X50000Y-68521D02*
X51000Y-68521D01*
X53750Y-71771D02*
X54250Y-71771D01*
X52250Y-71771D02*
X52750Y-71771D01*
X53750Y-72021D02*
X53750Y-71521D01*
X53750Y-71521D02*
X52750Y-71521D01*
X52750Y-71521D02*
X52750Y-72021D01*
X52750Y-72021D02*
X53750Y-72021D01*
X53750Y-69771D02*
X54250Y-69771D01*
X52250Y-69771D02*
X52750Y-69771D01*
X53750Y-70021D02*
X53750Y-69521D01*
X53750Y-69521D02*
X52750Y-69521D01*
X52750Y-69521D02*
X52750Y-70021D01*
X52750Y-70021D02*
X53750Y-70021D01*
X51000Y-70271D02*
X51500Y-70271D01*
X49500Y-70271D02*
X50000Y-70271D01*
X51000Y-70521D02*
X51000Y-70021D01*
X51000Y-70021D02*
X50000Y-70021D01*
X50000Y-70021D02*
X50000Y-70521D01*
X50000Y-70521D02*
X51000Y-70521D01*
X53750Y-70771D02*
X54250Y-70771D01*
X52250Y-70771D02*
X52750Y-70771D01*
X53750Y-71021D02*
X53750Y-70521D01*
X53750Y-70521D02*
X52750Y-70521D01*
X52750Y-70521D02*
X52750Y-71021D01*
X52750Y-71021D02*
X53750Y-71021D01*
X51000Y-71271D02*
X51500Y-71271D01*
X49500Y-71271D02*
X50000Y-71271D01*
X51000Y-71521D02*
X51000Y-71021D01*
X51000Y-71021D02*
X50000Y-71021D01*
X50000Y-71021D02*
X50000Y-71521D01*
X50000Y-71521D02*
X51000Y-71521D01*
X58000Y-76771D02*
X58500Y-76771D01*
X56500Y-76771D02*
X57000Y-76771D01*
X58000Y-77021D02*
X58000Y-76521D01*
X58000Y-76521D02*
X57000Y-76521D01*
X57000Y-76521D02*
X57000Y-77021D01*
X57000Y-77021D02*
X58000Y-77021D01*
X56000Y-75771D02*
X56500Y-75771D01*
X54500Y-75771D02*
X55000Y-75771D01*
X56000Y-76021D02*
X56000Y-75521D01*
X56000Y-75521D02*
X55000Y-75521D01*
X55000Y-75521D02*
X55000Y-76021D01*
X55000Y-76021D02*
X56000Y-76021D01*
X87100Y-68271D02*
X87100Y-68771D01*
X87000Y-68521D02*
X86500Y-68521D01*
X88500Y-68521D02*
X88000Y-68521D01*
X87000Y-68271D02*
X87000Y-68771D01*
X87000Y-68771D02*
X88000Y-68771D01*
X88000Y-68771D02*
X88000Y-68271D01*
X88000Y-68271D02*
X87000Y-68271D01*
X83100Y-68021D02*
X83100Y-68521D01*
X83000Y-68271D02*
X82500Y-68271D01*
X84500Y-68271D02*
X84000Y-68271D01*
X83000Y-68021D02*
X83000Y-68521D01*
X83000Y-68521D02*
X84000Y-68521D01*
X84000Y-68521D02*
X84000Y-68021D01*
X84000Y-68021D02*
X83000Y-68021D01*
X87100Y-71271D02*
X87100Y-71771D01*
X87000Y-71521D02*
X86500Y-71521D01*
X88500Y-71521D02*
X88000Y-71521D01*
X87000Y-71271D02*
X87000Y-71771D01*
X87000Y-71771D02*
X88000Y-71771D01*
X88000Y-71771D02*
X88000Y-71271D01*
X88000Y-71271D02*
X87000Y-71271D01*
X83100Y-71021D02*
X83100Y-71521D01*
X83000Y-71271D02*
X82500Y-71271D01*
X84500Y-71271D02*
X84000Y-71271D01*
X83000Y-71021D02*
X83000Y-71521D01*
X83000Y-71521D02*
X84000Y-71521D01*
X84000Y-71521D02*
X84000Y-71021D01*
X84000Y-71021D02*
X83000Y-71021D01*
X87100Y-70271D02*
X87100Y-70771D01*
X87000Y-70521D02*
X86500Y-70521D01*
X88500Y-70521D02*
X88000Y-70521D01*
X87000Y-70271D02*
X87000Y-70771D01*
X87000Y-70771D02*
X88000Y-70771D01*
X88000Y-70771D02*
X88000Y-70271D01*
X88000Y-70271D02*
X87000Y-70271D01*
X83100Y-70021D02*
X83100Y-70521D01*
X83000Y-70271D02*
X82500Y-70271D01*
X84500Y-70271D02*
X84000Y-70271D01*
X83000Y-70021D02*
X83000Y-70521D01*
X83000Y-70521D02*
X84000Y-70521D01*
X84000Y-70521D02*
X84000Y-70021D01*
X84000Y-70021D02*
X83000Y-70021D01*
X87100Y-69271D02*
X87100Y-69771D01*
X87000Y-69521D02*
X86500Y-69521D01*
X88500Y-69521D02*
X88000Y-69521D01*
X87000Y-69271D02*
X87000Y-69771D01*
X87000Y-69771D02*
X88000Y-69771D01*
X88000Y-69771D02*
X88000Y-69271D01*
X88000Y-69271D02*
X87000Y-69271D01*
X83100Y-69021D02*
X83100Y-69521D01*
X83000Y-69271D02*
X82500Y-69271D01*
X84500Y-69271D02*
X84000Y-69271D01*
X83000Y-69021D02*
X83000Y-69521D01*
X83000Y-69521D02*
X84000Y-69521D01*
X84000Y-69521D02*
X84000Y-69021D01*
X84000Y-69021D02*
X83000Y-69021D01*
X83100Y-55635D02*
X83100Y-56135D01*
X83000Y-55885D02*
X82500Y-55885D01*
X84500Y-55885D02*
X84000Y-55885D01*
X83000Y-55635D02*
X83000Y-56135D01*
X83000Y-56135D02*
X84000Y-56135D01*
X84000Y-56135D02*
X84000Y-55635D01*
X84000Y-55635D02*
X83000Y-55635D01*
X87100Y-55885D02*
X87100Y-56385D01*
X87000Y-56135D02*
X86500Y-56135D01*
X88500Y-56135D02*
X88000Y-56135D01*
X87000Y-55885D02*
X87000Y-56385D01*
X87000Y-56385D02*
X88000Y-56385D01*
X88000Y-56385D02*
X88000Y-55885D01*
X88000Y-55885D02*
X87000Y-55885D01*
X83100Y-56635D02*
X83100Y-57135D01*
X83000Y-56885D02*
X82500Y-56885D01*
X84500Y-56885D02*
X84000Y-56885D01*
X83000Y-56635D02*
X83000Y-57135D01*
X83000Y-57135D02*
X84000Y-57135D01*
X84000Y-57135D02*
X84000Y-56635D01*
X84000Y-56635D02*
X83000Y-56635D01*
X87100Y-56885D02*
X87100Y-57385D01*
X87000Y-57135D02*
X86500Y-57135D01*
X88500Y-57135D02*
X88000Y-57135D01*
X87000Y-56885D02*
X87000Y-57385D01*
X87000Y-57385D02*
X88000Y-57385D01*
X88000Y-57385D02*
X88000Y-56885D01*
X88000Y-56885D02*
X87000Y-56885D01*
X83100Y-57635D02*
X83100Y-58135D01*
X83000Y-57885D02*
X82500Y-57885D01*
X84500Y-57885D02*
X84000Y-57885D01*
X83000Y-57635D02*
X83000Y-58135D01*
X83000Y-58135D02*
X84000Y-58135D01*
X84000Y-58135D02*
X84000Y-57635D01*
X84000Y-57635D02*
X83000Y-57635D01*
X87100Y-57885D02*
X87100Y-58385D01*
X87000Y-58135D02*
X86500Y-58135D01*
X88500Y-58135D02*
X88000Y-58135D01*
X87000Y-57885D02*
X87000Y-58385D01*
X87000Y-58385D02*
X88000Y-58385D01*
X88000Y-58385D02*
X88000Y-57885D01*
X88000Y-57885D02*
X87000Y-57885D01*
X83100Y-54635D02*
X83100Y-55135D01*
X83000Y-54885D02*
X82500Y-54885D01*
X84500Y-54885D02*
X84000Y-54885D01*
X83000Y-54635D02*
X83000Y-55135D01*
X83000Y-55135D02*
X84000Y-55135D01*
X84000Y-55135D02*
X84000Y-54635D01*
X84000Y-54635D02*
X83000Y-54635D01*
X87100Y-54885D02*
X87100Y-55385D01*
X87000Y-55135D02*
X86500Y-55135D01*
X88500Y-55135D02*
X88000Y-55135D01*
X87000Y-54885D02*
X87000Y-55385D01*
X87000Y-55385D02*
X88000Y-55385D01*
X88000Y-55385D02*
X88000Y-54885D01*
X88000Y-54885D02*
X87000Y-54885D01*
X56000Y-62385D02*
X56500Y-62385D01*
X54500Y-62385D02*
X55000Y-62385D01*
X56000Y-62635D02*
X56000Y-62135D01*
X56000Y-62135D02*
X55000Y-62135D01*
X55000Y-62135D02*
X55000Y-62635D01*
X55000Y-62635D02*
X56000Y-62635D01*
X58000Y-63385D02*
X58500Y-63385D01*
X56500Y-63385D02*
X57000Y-63385D01*
X58000Y-63635D02*
X58000Y-63135D01*
X58000Y-63135D02*
X57000Y-63135D01*
X57000Y-63135D02*
X57000Y-63635D01*
X57000Y-63635D02*
X58000Y-63635D01*
X51000Y-57885D02*
X51500Y-57885D01*
X49500Y-57885D02*
X50000Y-57885D01*
X51000Y-58135D02*
X51000Y-57635D01*
X51000Y-57635D02*
X50000Y-57635D01*
X50000Y-57635D02*
X50000Y-58135D01*
X50000Y-58135D02*
X51000Y-58135D01*
X53750Y-57385D02*
X54250Y-57385D01*
X52250Y-57385D02*
X52750Y-57385D01*
X53750Y-57635D02*
X53750Y-57135D01*
X53750Y-57135D02*
X52750Y-57135D01*
X52750Y-57135D02*
X52750Y-57635D01*
X52750Y-57635D02*
X53750Y-57635D01*
X51000Y-56885D02*
X51500Y-56885D01*
X49500Y-56885D02*
X50000Y-56885D01*
X51000Y-57135D02*
X51000Y-56635D01*
X51000Y-56635D02*
X50000Y-56635D01*
X50000Y-56635D02*
X50000Y-57135D01*
X50000Y-57135D02*
X51000Y-57135D01*
X53750Y-56385D02*
X54250Y-56385D01*
X52250Y-56385D02*
X52750Y-56385D01*
X53750Y-56635D02*
X53750Y-56135D01*
X53750Y-56135D02*
X52750Y-56135D01*
X52750Y-56135D02*
X52750Y-56635D01*
X52750Y-56635D02*
X53750Y-56635D01*
X53750Y-58385D02*
X54250Y-58385D01*
X52250Y-58385D02*
X52750Y-58385D01*
X53750Y-58635D02*
X53750Y-58135D01*
X53750Y-58135D02*
X52750Y-58135D01*
X52750Y-58135D02*
X52750Y-58635D01*
X52750Y-58635D02*
X53750Y-58635D01*
X51000Y-54885D02*
X51500Y-54885D01*
X49500Y-54885D02*
X50000Y-54885D01*
X51000Y-55135D02*
X51000Y-54635D01*
X51000Y-54635D02*
X50000Y-54635D01*
X50000Y-54635D02*
X50000Y-55135D01*
X50000Y-55135D02*
X51000Y-55135D01*
X47000Y-60385D02*
X47000Y-59885D01*
X47000Y-61885D02*
X47000Y-61385D01*
X47250Y-60385D02*
X46750Y-60385D01*
X46750Y-60385D02*
X46750Y-61385D01*
X46750Y-61385D02*
X47250Y-61385D01*
X47250Y-61385D02*
X47250Y-60385D01*
X51000Y-55885D02*
X51500Y-55885D01*
X49500Y-55885D02*
X50000Y-55885D01*
X51000Y-56135D02*
X51000Y-55635D01*
X51000Y-55635D02*
X50000Y-55635D01*
X50000Y-55635D02*
X50000Y-56135D01*
X50000Y-56135D02*
X51000Y-56135D01*
X53750Y-55385D02*
X54250Y-55385D01*
X52250Y-55385D02*
X52750Y-55385D01*
X53750Y-55635D02*
X53750Y-55135D01*
X53750Y-55135D02*
X52750Y-55135D01*
X52750Y-55135D02*
X52750Y-55635D01*
X52750Y-55635D02*
X53750Y-55635D01*
X53750Y-42000D02*
X54250Y-42000D01*
X52250Y-42000D02*
X52750Y-42000D01*
X53750Y-42250D02*
X53750Y-41750D01*
X53750Y-41750D02*
X52750Y-41750D01*
X52750Y-41750D02*
X52750Y-42250D01*
X52750Y-42250D02*
X53750Y-42250D01*
X51000Y-42500D02*
X51500Y-42500D01*
X49500Y-42500D02*
X50000Y-42500D01*
X51000Y-42750D02*
X51000Y-42250D01*
X51000Y-42250D02*
X50000Y-42250D01*
X50000Y-42250D02*
X50000Y-42750D01*
X50000Y-42750D02*
X51000Y-42750D01*
X47000Y-47000D02*
X47000Y-46500D01*
X47000Y-48500D02*
X47000Y-48000D01*
X47250Y-47000D02*
X46750Y-47000D01*
X46750Y-47000D02*
X46750Y-48000D01*
X46750Y-48000D02*
X47250Y-48000D01*
X47250Y-48000D02*
X47250Y-47000D01*
X51000Y-41500D02*
X51500Y-41500D01*
X49500Y-41500D02*
X50000Y-41500D01*
X51000Y-41750D02*
X51000Y-41250D01*
X51000Y-41250D02*
X50000Y-41250D01*
X50000Y-41250D02*
X50000Y-41750D01*
X50000Y-41750D02*
X51000Y-41750D01*
X53750Y-45000D02*
X54250Y-45000D01*
X52250Y-45000D02*
X52750Y-45000D01*
X53750Y-45250D02*
X53750Y-44750D01*
X53750Y-44750D02*
X52750Y-44750D01*
X52750Y-44750D02*
X52750Y-45250D01*
X52750Y-45250D02*
X53750Y-45250D01*
X53750Y-43000D02*
X54250Y-43000D01*
X52250Y-43000D02*
X52750Y-43000D01*
X53750Y-43250D02*
X53750Y-42750D01*
X53750Y-42750D02*
X52750Y-42750D01*
X52750Y-42750D02*
X52750Y-43250D01*
X52750Y-43250D02*
X53750Y-43250D01*
X51000Y-43500D02*
X51500Y-43500D01*
X49500Y-43500D02*
X50000Y-43500D01*
X51000Y-43750D02*
X51000Y-43250D01*
X51000Y-43250D02*
X50000Y-43250D01*
X50000Y-43250D02*
X50000Y-43750D01*
X50000Y-43750D02*
X51000Y-43750D01*
X53750Y-44000D02*
X54250Y-44000D01*
X52250Y-44000D02*
X52750Y-44000D01*
X53750Y-44250D02*
X53750Y-43750D01*
X53750Y-43750D02*
X52750Y-43750D01*
X52750Y-43750D02*
X52750Y-44250D01*
X52750Y-44250D02*
X53750Y-44250D01*
X51000Y-44500D02*
X51500Y-44500D01*
X49500Y-44500D02*
X50000Y-44500D01*
X51000Y-44750D02*
X51000Y-44250D01*
X51000Y-44250D02*
X50000Y-44250D01*
X50000Y-44250D02*
X50000Y-44750D01*
X50000Y-44750D02*
X51000Y-44750D01*
X58000Y-50000D02*
X58500Y-50000D01*
X56500Y-50000D02*
X57000Y-50000D01*
X58000Y-50250D02*
X58000Y-49750D01*
X58000Y-49750D02*
X57000Y-49750D01*
X57000Y-49750D02*
X57000Y-50250D01*
X57000Y-50250D02*
X58000Y-50250D01*
X56000Y-49000D02*
X56500Y-49000D01*
X54500Y-49000D02*
X55000Y-49000D01*
X56000Y-49250D02*
X56000Y-48750D01*
X56000Y-48750D02*
X55000Y-48750D01*
X55000Y-48750D02*
X55000Y-49250D01*
X55000Y-49250D02*
X56000Y-49250D01*
X87100Y-41500D02*
X87100Y-42000D01*
X87000Y-41750D02*
X86500Y-41750D01*
X88500Y-41750D02*
X88000Y-41750D01*
X87000Y-41500D02*
X87000Y-42000D01*
X87000Y-42000D02*
X88000Y-42000D01*
X88000Y-42000D02*
X88000Y-41500D01*
X88000Y-41500D02*
X87000Y-41500D01*
X83100Y-41250D02*
X83100Y-41750D01*
X83000Y-41500D02*
X82500Y-41500D01*
X84500Y-41500D02*
X84000Y-41500D01*
X83000Y-41250D02*
X83000Y-41750D01*
X83000Y-41750D02*
X84000Y-41750D01*
X84000Y-41750D02*
X84000Y-41250D01*
X84000Y-41250D02*
X83000Y-41250D01*
X87100Y-44500D02*
X87100Y-45000D01*
X87000Y-44750D02*
X86500Y-44750D01*
X88500Y-44750D02*
X88000Y-44750D01*
X87000Y-44500D02*
X87000Y-45000D01*
X87000Y-45000D02*
X88000Y-45000D01*
X88000Y-45000D02*
X88000Y-44500D01*
X88000Y-44500D02*
X87000Y-44500D01*
X83100Y-44250D02*
X83100Y-44750D01*
X83000Y-44500D02*
X82500Y-44500D01*
X84500Y-44500D02*
X84000Y-44500D01*
X83000Y-44250D02*
X83000Y-44750D01*
X83000Y-44750D02*
X84000Y-44750D01*
X84000Y-44750D02*
X84000Y-44250D01*
X84000Y-44250D02*
X83000Y-44250D01*
X87100Y-43500D02*
X87100Y-44000D01*
X87000Y-43750D02*
X86500Y-43750D01*
X88500Y-43750D02*
X88000Y-43750D01*
X87000Y-43500D02*
X87000Y-44000D01*
X87000Y-44000D02*
X88000Y-44000D01*
X88000Y-44000D02*
X88000Y-43500D01*
X88000Y-43500D02*
X87000Y-43500D01*
X83100Y-43250D02*
X83100Y-43750D01*
X83000Y-43500D02*
X82500Y-43500D01*
X84500Y-43500D02*
X84000Y-43500D01*
X83000Y-43250D02*
X83000Y-43750D01*
X83000Y-43750D02*
X84000Y-43750D01*
X84000Y-43750D02*
X84000Y-43250D01*
X84000Y-43250D02*
X83000Y-43250D01*
X87100Y-42500D02*
X87100Y-43000D01*
X87000Y-42750D02*
X86500Y-42750D01*
X88500Y-42750D02*
X88000Y-42750D01*
X87000Y-42500D02*
X87000Y-43000D01*
X87000Y-43000D02*
X88000Y-43000D01*
X88000Y-43000D02*
X88000Y-42500D01*
X88000Y-42500D02*
X87000Y-42500D01*
X83100Y-42250D02*
X83100Y-42750D01*
X83000Y-42500D02*
X82500Y-42500D01*
X84500Y-42500D02*
X84000Y-42500D01*
X83000Y-42250D02*
X83000Y-42750D01*
X83000Y-42750D02*
X84000Y-42750D01*
X84000Y-42750D02*
X84000Y-42250D01*
X84000Y-42250D02*
X83000Y-42250D01*
X53503Y-68931D02*
X53634Y-68743D01*
X53728Y-68931D02*
X53728Y-68537D01*
X53578Y-68537D01*
X53540Y-68556D01*
X53521Y-68574D01*
X53503Y-68612D01*
X53503Y-68668D01*
X53521Y-68706D01*
X53540Y-68724D01*
X53578Y-68743D01*
X53728Y-68743D01*
X53128Y-68931D02*
X53353Y-68931D01*
X53240Y-68931D02*
X53240Y-68537D01*
X53278Y-68593D01*
X53315Y-68631D01*
X53353Y-68649D01*
X52996Y-68537D02*
X52753Y-68537D01*
X52884Y-68687D01*
X52828Y-68687D01*
X52790Y-68706D01*
X52771Y-68724D01*
X52753Y-68762D01*
X52753Y-68856D01*
X52771Y-68893D01*
X52790Y-68912D01*
X52828Y-68931D01*
X52940Y-68931D01*
X52978Y-68912D01*
X52996Y-68893D01*
X50753Y-69431D02*
X50884Y-69243D01*
X50978Y-69431D02*
X50978Y-69037D01*
X50828Y-69037D01*
X50790Y-69056D01*
X50771Y-69074D01*
X50753Y-69112D01*
X50753Y-69168D01*
X50771Y-69206D01*
X50790Y-69224D01*
X50828Y-69243D01*
X50978Y-69243D01*
X50378Y-69431D02*
X50603Y-69431D01*
X50490Y-69431D02*
X50490Y-69037D01*
X50528Y-69093D01*
X50565Y-69131D01*
X50603Y-69149D01*
X50040Y-69168D02*
X50040Y-69431D01*
X50134Y-69018D02*
X50228Y-69299D01*
X49984Y-69299D01*
X47159Y-74206D02*
X46971Y-74074D01*
X47159Y-73981D02*
X46765Y-73981D01*
X46765Y-74131D01*
X46784Y-74168D01*
X46803Y-74187D01*
X46840Y-74206D01*
X46896Y-74206D01*
X46934Y-74187D01*
X46953Y-74168D01*
X46971Y-74131D01*
X46971Y-73981D01*
X46765Y-74337D02*
X46765Y-74580D01*
X46915Y-74449D01*
X46915Y-74505D01*
X46934Y-74543D01*
X46953Y-74562D01*
X46990Y-74580D01*
X47084Y-74580D01*
X47121Y-74562D01*
X47140Y-74543D01*
X47159Y-74505D01*
X47159Y-74393D01*
X47140Y-74356D01*
X47121Y-74337D01*
X50753Y-68431D02*
X50884Y-68243D01*
X50978Y-68431D02*
X50978Y-68037D01*
X50828Y-68037D01*
X50790Y-68056D01*
X50771Y-68074D01*
X50753Y-68112D01*
X50753Y-68168D01*
X50771Y-68206D01*
X50790Y-68224D01*
X50828Y-68243D01*
X50978Y-68243D01*
X50378Y-68431D02*
X50603Y-68431D01*
X50490Y-68431D02*
X50490Y-68037D01*
X50528Y-68093D01*
X50565Y-68131D01*
X50603Y-68149D01*
X50228Y-68074D02*
X50209Y-68056D01*
X50171Y-68037D01*
X50078Y-68037D01*
X50040Y-68056D01*
X50021Y-68074D01*
X50003Y-68112D01*
X50003Y-68149D01*
X50021Y-68206D01*
X50246Y-68431D01*
X50003Y-68431D01*
X53503Y-71931D02*
X53634Y-71743D01*
X53728Y-71931D02*
X53728Y-71537D01*
X53578Y-71537D01*
X53540Y-71556D01*
X53521Y-71574D01*
X53503Y-71612D01*
X53503Y-71668D01*
X53521Y-71706D01*
X53540Y-71724D01*
X53578Y-71743D01*
X53728Y-71743D01*
X53128Y-71931D02*
X53353Y-71931D01*
X53240Y-71931D02*
X53240Y-71537D01*
X53278Y-71593D01*
X53315Y-71631D01*
X53353Y-71649D01*
X52940Y-71931D02*
X52865Y-71931D01*
X52828Y-71912D01*
X52809Y-71893D01*
X52771Y-71837D01*
X52753Y-71762D01*
X52753Y-71612D01*
X52771Y-71574D01*
X52790Y-71556D01*
X52828Y-71537D01*
X52903Y-71537D01*
X52940Y-71556D01*
X52959Y-71574D01*
X52978Y-71612D01*
X52978Y-71706D01*
X52959Y-71743D01*
X52940Y-71762D01*
X52903Y-71781D01*
X52828Y-71781D01*
X52790Y-71762D01*
X52771Y-71743D01*
X52753Y-71706D01*
X53503Y-69931D02*
X53634Y-69743D01*
X53728Y-69931D02*
X53728Y-69537D01*
X53578Y-69537D01*
X53540Y-69556D01*
X53521Y-69574D01*
X53503Y-69612D01*
X53503Y-69668D01*
X53521Y-69706D01*
X53540Y-69724D01*
X53578Y-69743D01*
X53728Y-69743D01*
X53128Y-69931D02*
X53353Y-69931D01*
X53240Y-69931D02*
X53240Y-69537D01*
X53278Y-69593D01*
X53315Y-69631D01*
X53353Y-69649D01*
X52771Y-69537D02*
X52959Y-69537D01*
X52978Y-69724D01*
X52959Y-69706D01*
X52921Y-69687D01*
X52828Y-69687D01*
X52790Y-69706D01*
X52771Y-69724D01*
X52753Y-69762D01*
X52753Y-69856D01*
X52771Y-69893D01*
X52790Y-69912D01*
X52828Y-69931D01*
X52921Y-69931D01*
X52959Y-69912D01*
X52978Y-69893D01*
X50753Y-70431D02*
X50884Y-70243D01*
X50978Y-70431D02*
X50978Y-70037D01*
X50828Y-70037D01*
X50790Y-70056D01*
X50771Y-70074D01*
X50753Y-70112D01*
X50753Y-70168D01*
X50771Y-70206D01*
X50790Y-70224D01*
X50828Y-70243D01*
X50978Y-70243D01*
X50378Y-70431D02*
X50603Y-70431D01*
X50490Y-70431D02*
X50490Y-70037D01*
X50528Y-70093D01*
X50565Y-70131D01*
X50603Y-70149D01*
X50040Y-70037D02*
X50115Y-70037D01*
X50153Y-70056D01*
X50171Y-70074D01*
X50209Y-70131D01*
X50228Y-70206D01*
X50228Y-70356D01*
X50209Y-70393D01*
X50190Y-70412D01*
X50153Y-70431D01*
X50078Y-70431D01*
X50040Y-70412D01*
X50021Y-70393D01*
X50003Y-70356D01*
X50003Y-70262D01*
X50021Y-70224D01*
X50040Y-70206D01*
X50078Y-70187D01*
X50153Y-70187D01*
X50190Y-70206D01*
X50209Y-70224D01*
X50228Y-70262D01*
X53503Y-70931D02*
X53634Y-70743D01*
X53728Y-70931D02*
X53728Y-70537D01*
X53578Y-70537D01*
X53540Y-70556D01*
X53521Y-70574D01*
X53503Y-70612D01*
X53503Y-70668D01*
X53521Y-70706D01*
X53540Y-70724D01*
X53578Y-70743D01*
X53728Y-70743D01*
X53128Y-70931D02*
X53353Y-70931D01*
X53240Y-70931D02*
X53240Y-70537D01*
X53278Y-70593D01*
X53315Y-70631D01*
X53353Y-70649D01*
X52996Y-70537D02*
X52734Y-70537D01*
X52903Y-70931D01*
X50753Y-71431D02*
X50884Y-71243D01*
X50978Y-71431D02*
X50978Y-71037D01*
X50828Y-71037D01*
X50790Y-71056D01*
X50771Y-71074D01*
X50753Y-71112D01*
X50753Y-71168D01*
X50771Y-71206D01*
X50790Y-71224D01*
X50828Y-71243D01*
X50978Y-71243D01*
X50378Y-71431D02*
X50603Y-71431D01*
X50490Y-71431D02*
X50490Y-71037D01*
X50528Y-71093D01*
X50565Y-71131D01*
X50603Y-71149D01*
X50153Y-71206D02*
X50190Y-71187D01*
X50209Y-71168D01*
X50228Y-71131D01*
X50228Y-71112D01*
X50209Y-71074D01*
X50190Y-71056D01*
X50153Y-71037D01*
X50078Y-71037D01*
X50040Y-71056D01*
X50021Y-71074D01*
X50003Y-71112D01*
X50003Y-71131D01*
X50021Y-71168D01*
X50040Y-71187D01*
X50078Y-71206D01*
X50153Y-71206D01*
X50190Y-71224D01*
X50209Y-71243D01*
X50228Y-71281D01*
X50228Y-71356D01*
X50209Y-71393D01*
X50190Y-71412D01*
X50153Y-71431D01*
X50078Y-71431D01*
X50040Y-71412D01*
X50021Y-71393D01*
X50003Y-71356D01*
X50003Y-71281D01*
X50021Y-71243D01*
X50040Y-71224D01*
X50078Y-71206D01*
X57565Y-76931D02*
X57696Y-76743D01*
X57790Y-76931D02*
X57790Y-76537D01*
X57640Y-76537D01*
X57603Y-76556D01*
X57584Y-76574D01*
X57565Y-76612D01*
X57565Y-76668D01*
X57584Y-76706D01*
X57603Y-76724D01*
X57640Y-76743D01*
X57790Y-76743D01*
X57415Y-76574D02*
X57396Y-76556D01*
X57359Y-76537D01*
X57265Y-76537D01*
X57228Y-76556D01*
X57209Y-76574D01*
X57190Y-76612D01*
X57190Y-76649D01*
X57209Y-76706D01*
X57434Y-76931D01*
X57190Y-76931D01*
X55565Y-75931D02*
X55696Y-75743D01*
X55790Y-75931D02*
X55790Y-75537D01*
X55640Y-75537D01*
X55603Y-75556D01*
X55584Y-75574D01*
X55565Y-75612D01*
X55565Y-75668D01*
X55584Y-75706D01*
X55603Y-75724D01*
X55640Y-75743D01*
X55790Y-75743D01*
X55190Y-75931D02*
X55415Y-75931D01*
X55303Y-75931D02*
X55303Y-75537D01*
X55340Y-75593D01*
X55378Y-75631D01*
X55415Y-75649D01*
X87790Y-68681D02*
X87790Y-68287D01*
X87696Y-68287D01*
X87640Y-68306D01*
X87603Y-68343D01*
X87584Y-68381D01*
X87565Y-68456D01*
X87565Y-68512D01*
X87584Y-68587D01*
X87603Y-68624D01*
X87640Y-68662D01*
X87696Y-68681D01*
X87790Y-68681D01*
X87415Y-68324D02*
X87396Y-68306D01*
X87359Y-68287D01*
X87265Y-68287D01*
X87228Y-68306D01*
X87209Y-68324D01*
X87190Y-68362D01*
X87190Y-68399D01*
X87209Y-68456D01*
X87434Y-68681D01*
X87190Y-68681D01*
X83790Y-68431D02*
X83790Y-68037D01*
X83696Y-68037D01*
X83640Y-68056D01*
X83603Y-68093D01*
X83584Y-68131D01*
X83565Y-68206D01*
X83565Y-68262D01*
X83584Y-68337D01*
X83603Y-68374D01*
X83640Y-68412D01*
X83696Y-68431D01*
X83790Y-68431D01*
X83190Y-68431D02*
X83415Y-68431D01*
X83303Y-68431D02*
X83303Y-68037D01*
X83340Y-68093D01*
X83378Y-68131D01*
X83415Y-68149D01*
X87790Y-71681D02*
X87790Y-71287D01*
X87696Y-71287D01*
X87640Y-71306D01*
X87603Y-71343D01*
X87584Y-71381D01*
X87565Y-71456D01*
X87565Y-71512D01*
X87584Y-71587D01*
X87603Y-71624D01*
X87640Y-71662D01*
X87696Y-71681D01*
X87790Y-71681D01*
X87340Y-71456D02*
X87378Y-71437D01*
X87396Y-71418D01*
X87415Y-71381D01*
X87415Y-71362D01*
X87396Y-71324D01*
X87378Y-71306D01*
X87340Y-71287D01*
X87265Y-71287D01*
X87228Y-71306D01*
X87209Y-71324D01*
X87190Y-71362D01*
X87190Y-71381D01*
X87209Y-71418D01*
X87228Y-71437D01*
X87265Y-71456D01*
X87340Y-71456D01*
X87378Y-71474D01*
X87396Y-71493D01*
X87415Y-71531D01*
X87415Y-71606D01*
X87396Y-71643D01*
X87378Y-71662D01*
X87340Y-71681D01*
X87265Y-71681D01*
X87228Y-71662D01*
X87209Y-71643D01*
X87190Y-71606D01*
X87190Y-71531D01*
X87209Y-71493D01*
X87228Y-71474D01*
X87265Y-71456D01*
X83790Y-71431D02*
X83790Y-71037D01*
X83696Y-71037D01*
X83640Y-71056D01*
X83603Y-71093D01*
X83584Y-71131D01*
X83565Y-71206D01*
X83565Y-71262D01*
X83584Y-71337D01*
X83603Y-71374D01*
X83640Y-71412D01*
X83696Y-71431D01*
X83790Y-71431D01*
X83434Y-71037D02*
X83171Y-71037D01*
X83340Y-71431D01*
X87790Y-70681D02*
X87790Y-70287D01*
X87696Y-70287D01*
X87640Y-70306D01*
X87603Y-70343D01*
X87584Y-70381D01*
X87565Y-70456D01*
X87565Y-70512D01*
X87584Y-70587D01*
X87603Y-70624D01*
X87640Y-70662D01*
X87696Y-70681D01*
X87790Y-70681D01*
X87228Y-70287D02*
X87303Y-70287D01*
X87340Y-70306D01*
X87359Y-70324D01*
X87396Y-70381D01*
X87415Y-70456D01*
X87415Y-70606D01*
X87396Y-70643D01*
X87378Y-70662D01*
X87340Y-70681D01*
X87265Y-70681D01*
X87228Y-70662D01*
X87209Y-70643D01*
X87190Y-70606D01*
X87190Y-70512D01*
X87209Y-70474D01*
X87228Y-70456D01*
X87265Y-70437D01*
X87340Y-70437D01*
X87378Y-70456D01*
X87396Y-70474D01*
X87415Y-70512D01*
X83790Y-70431D02*
X83790Y-70037D01*
X83696Y-70037D01*
X83640Y-70056D01*
X83603Y-70093D01*
X83584Y-70131D01*
X83565Y-70206D01*
X83565Y-70262D01*
X83584Y-70337D01*
X83603Y-70374D01*
X83640Y-70412D01*
X83696Y-70431D01*
X83790Y-70431D01*
X83209Y-70037D02*
X83396Y-70037D01*
X83415Y-70224D01*
X83396Y-70206D01*
X83359Y-70187D01*
X83265Y-70187D01*
X83228Y-70206D01*
X83209Y-70224D01*
X83190Y-70262D01*
X83190Y-70356D01*
X83209Y-70393D01*
X83228Y-70412D01*
X83265Y-70431D01*
X83359Y-70431D01*
X83396Y-70412D01*
X83415Y-70393D01*
X87790Y-69681D02*
X87790Y-69287D01*
X87696Y-69287D01*
X87640Y-69306D01*
X87603Y-69343D01*
X87584Y-69381D01*
X87565Y-69456D01*
X87565Y-69512D01*
X87584Y-69587D01*
X87603Y-69624D01*
X87640Y-69662D01*
X87696Y-69681D01*
X87790Y-69681D01*
X87228Y-69418D02*
X87228Y-69681D01*
X87321Y-69268D02*
X87415Y-69549D01*
X87171Y-69549D01*
X83790Y-69431D02*
X83790Y-69037D01*
X83696Y-69037D01*
X83640Y-69056D01*
X83603Y-69093D01*
X83584Y-69131D01*
X83565Y-69206D01*
X83565Y-69262D01*
X83584Y-69337D01*
X83603Y-69374D01*
X83640Y-69412D01*
X83696Y-69431D01*
X83790Y-69431D01*
X83434Y-69037D02*
X83190Y-69037D01*
X83321Y-69187D01*
X83265Y-69187D01*
X83228Y-69206D01*
X83209Y-69224D01*
X83190Y-69262D01*
X83190Y-69356D01*
X83209Y-69393D01*
X83228Y-69412D01*
X83265Y-69431D01*
X83378Y-69431D01*
X83415Y-69412D01*
X83434Y-69393D01*
X83790Y-56045D02*
X83790Y-55651D01*
X83696Y-55651D01*
X83640Y-55670D01*
X83603Y-55707D01*
X83584Y-55745D01*
X83565Y-55820D01*
X83565Y-55876D01*
X83584Y-55951D01*
X83603Y-55988D01*
X83640Y-56026D01*
X83696Y-56045D01*
X83790Y-56045D01*
X83434Y-55651D02*
X83190Y-55651D01*
X83321Y-55801D01*
X83265Y-55801D01*
X83228Y-55820D01*
X83209Y-55838D01*
X83190Y-55876D01*
X83190Y-55970D01*
X83209Y-56007D01*
X83228Y-56026D01*
X83265Y-56045D01*
X83378Y-56045D01*
X83415Y-56026D01*
X83434Y-56007D01*
X87790Y-56295D02*
X87790Y-55901D01*
X87696Y-55901D01*
X87640Y-55920D01*
X87603Y-55957D01*
X87584Y-55995D01*
X87565Y-56070D01*
X87565Y-56126D01*
X87584Y-56201D01*
X87603Y-56238D01*
X87640Y-56276D01*
X87696Y-56295D01*
X87790Y-56295D01*
X87228Y-56032D02*
X87228Y-56295D01*
X87321Y-55882D02*
X87415Y-56163D01*
X87171Y-56163D01*
X83790Y-57045D02*
X83790Y-56651D01*
X83696Y-56651D01*
X83640Y-56670D01*
X83603Y-56707D01*
X83584Y-56745D01*
X83565Y-56820D01*
X83565Y-56876D01*
X83584Y-56951D01*
X83603Y-56988D01*
X83640Y-57026D01*
X83696Y-57045D01*
X83790Y-57045D01*
X83209Y-56651D02*
X83396Y-56651D01*
X83415Y-56838D01*
X83396Y-56820D01*
X83359Y-56801D01*
X83265Y-56801D01*
X83228Y-56820D01*
X83209Y-56838D01*
X83190Y-56876D01*
X83190Y-56970D01*
X83209Y-57007D01*
X83228Y-57026D01*
X83265Y-57045D01*
X83359Y-57045D01*
X83396Y-57026D01*
X83415Y-57007D01*
X87790Y-57295D02*
X87790Y-56901D01*
X87696Y-56901D01*
X87640Y-56920D01*
X87603Y-56957D01*
X87584Y-56995D01*
X87565Y-57070D01*
X87565Y-57126D01*
X87584Y-57201D01*
X87603Y-57238D01*
X87640Y-57276D01*
X87696Y-57295D01*
X87790Y-57295D01*
X87228Y-56901D02*
X87303Y-56901D01*
X87340Y-56920D01*
X87359Y-56938D01*
X87396Y-56995D01*
X87415Y-57070D01*
X87415Y-57220D01*
X87396Y-57257D01*
X87378Y-57276D01*
X87340Y-57295D01*
X87265Y-57295D01*
X87228Y-57276D01*
X87209Y-57257D01*
X87190Y-57220D01*
X87190Y-57126D01*
X87209Y-57088D01*
X87228Y-57070D01*
X87265Y-57051D01*
X87340Y-57051D01*
X87378Y-57070D01*
X87396Y-57088D01*
X87415Y-57126D01*
X83790Y-58045D02*
X83790Y-57651D01*
X83696Y-57651D01*
X83640Y-57670D01*
X83603Y-57707D01*
X83584Y-57745D01*
X83565Y-57820D01*
X83565Y-57876D01*
X83584Y-57951D01*
X83603Y-57988D01*
X83640Y-58026D01*
X83696Y-58045D01*
X83790Y-58045D01*
X83434Y-57651D02*
X83171Y-57651D01*
X83340Y-58045D01*
X87790Y-58295D02*
X87790Y-57901D01*
X87696Y-57901D01*
X87640Y-57920D01*
X87603Y-57957D01*
X87584Y-57995D01*
X87565Y-58070D01*
X87565Y-58126D01*
X87584Y-58201D01*
X87603Y-58238D01*
X87640Y-58276D01*
X87696Y-58295D01*
X87790Y-58295D01*
X87340Y-58070D02*
X87378Y-58051D01*
X87396Y-58032D01*
X87415Y-57995D01*
X87415Y-57976D01*
X87396Y-57938D01*
X87378Y-57920D01*
X87340Y-57901D01*
X87265Y-57901D01*
X87228Y-57920D01*
X87209Y-57938D01*
X87190Y-57976D01*
X87190Y-57995D01*
X87209Y-58032D01*
X87228Y-58051D01*
X87265Y-58070D01*
X87340Y-58070D01*
X87378Y-58088D01*
X87396Y-58107D01*
X87415Y-58145D01*
X87415Y-58220D01*
X87396Y-58257D01*
X87378Y-58276D01*
X87340Y-58295D01*
X87265Y-58295D01*
X87228Y-58276D01*
X87209Y-58257D01*
X87190Y-58220D01*
X87190Y-58145D01*
X87209Y-58107D01*
X87228Y-58088D01*
X87265Y-58070D01*
X83790Y-55045D02*
X83790Y-54651D01*
X83696Y-54651D01*
X83640Y-54670D01*
X83603Y-54707D01*
X83584Y-54745D01*
X83565Y-54820D01*
X83565Y-54876D01*
X83584Y-54951D01*
X83603Y-54988D01*
X83640Y-55026D01*
X83696Y-55045D01*
X83790Y-55045D01*
X83190Y-55045D02*
X83415Y-55045D01*
X83303Y-55045D02*
X83303Y-54651D01*
X83340Y-54707D01*
X83378Y-54745D01*
X83415Y-54763D01*
X87790Y-55295D02*
X87790Y-54901D01*
X87696Y-54901D01*
X87640Y-54920D01*
X87603Y-54957D01*
X87584Y-54995D01*
X87565Y-55070D01*
X87565Y-55126D01*
X87584Y-55201D01*
X87603Y-55238D01*
X87640Y-55276D01*
X87696Y-55295D01*
X87790Y-55295D01*
X87415Y-54938D02*
X87396Y-54920D01*
X87359Y-54901D01*
X87265Y-54901D01*
X87228Y-54920D01*
X87209Y-54938D01*
X87190Y-54976D01*
X87190Y-55013D01*
X87209Y-55070D01*
X87434Y-55295D01*
X87190Y-55295D01*
X55565Y-62545D02*
X55696Y-62357D01*
X55790Y-62545D02*
X55790Y-62151D01*
X55640Y-62151D01*
X55603Y-62170D01*
X55584Y-62188D01*
X55565Y-62226D01*
X55565Y-62282D01*
X55584Y-62320D01*
X55603Y-62338D01*
X55640Y-62357D01*
X55790Y-62357D01*
X55190Y-62545D02*
X55415Y-62545D01*
X55303Y-62545D02*
X55303Y-62151D01*
X55340Y-62207D01*
X55378Y-62245D01*
X55415Y-62263D01*
X57565Y-63545D02*
X57696Y-63357D01*
X57790Y-63545D02*
X57790Y-63151D01*
X57640Y-63151D01*
X57603Y-63170D01*
X57584Y-63188D01*
X57565Y-63226D01*
X57565Y-63282D01*
X57584Y-63320D01*
X57603Y-63338D01*
X57640Y-63357D01*
X57790Y-63357D01*
X57415Y-63188D02*
X57396Y-63170D01*
X57359Y-63151D01*
X57265Y-63151D01*
X57228Y-63170D01*
X57209Y-63188D01*
X57190Y-63226D01*
X57190Y-63263D01*
X57209Y-63320D01*
X57434Y-63545D01*
X57190Y-63545D01*
X50753Y-58045D02*
X50884Y-57857D01*
X50978Y-58045D02*
X50978Y-57651D01*
X50828Y-57651D01*
X50790Y-57670D01*
X50771Y-57688D01*
X50753Y-57726D01*
X50753Y-57782D01*
X50771Y-57820D01*
X50790Y-57838D01*
X50828Y-57857D01*
X50978Y-57857D01*
X50378Y-58045D02*
X50603Y-58045D01*
X50490Y-58045D02*
X50490Y-57651D01*
X50528Y-57707D01*
X50565Y-57745D01*
X50603Y-57763D01*
X50153Y-57820D02*
X50190Y-57801D01*
X50209Y-57782D01*
X50228Y-57745D01*
X50228Y-57726D01*
X50209Y-57688D01*
X50190Y-57670D01*
X50153Y-57651D01*
X50078Y-57651D01*
X50040Y-57670D01*
X50021Y-57688D01*
X50003Y-57726D01*
X50003Y-57745D01*
X50021Y-57782D01*
X50040Y-57801D01*
X50078Y-57820D01*
X50153Y-57820D01*
X50190Y-57838D01*
X50209Y-57857D01*
X50228Y-57895D01*
X50228Y-57970D01*
X50209Y-58007D01*
X50190Y-58026D01*
X50153Y-58045D01*
X50078Y-58045D01*
X50040Y-58026D01*
X50021Y-58007D01*
X50003Y-57970D01*
X50003Y-57895D01*
X50021Y-57857D01*
X50040Y-57838D01*
X50078Y-57820D01*
X53503Y-57545D02*
X53634Y-57357D01*
X53728Y-57545D02*
X53728Y-57151D01*
X53578Y-57151D01*
X53540Y-57170D01*
X53521Y-57188D01*
X53503Y-57226D01*
X53503Y-57282D01*
X53521Y-57320D01*
X53540Y-57338D01*
X53578Y-57357D01*
X53728Y-57357D01*
X53128Y-57545D02*
X53353Y-57545D01*
X53240Y-57545D02*
X53240Y-57151D01*
X53278Y-57207D01*
X53315Y-57245D01*
X53353Y-57263D01*
X52996Y-57151D02*
X52734Y-57151D01*
X52903Y-57545D01*
X50753Y-57045D02*
X50884Y-56857D01*
X50978Y-57045D02*
X50978Y-56651D01*
X50828Y-56651D01*
X50790Y-56670D01*
X50771Y-56688D01*
X50753Y-56726D01*
X50753Y-56782D01*
X50771Y-56820D01*
X50790Y-56838D01*
X50828Y-56857D01*
X50978Y-56857D01*
X50378Y-57045D02*
X50603Y-57045D01*
X50490Y-57045D02*
X50490Y-56651D01*
X50528Y-56707D01*
X50565Y-56745D01*
X50603Y-56763D01*
X50040Y-56651D02*
X50115Y-56651D01*
X50153Y-56670D01*
X50171Y-56688D01*
X50209Y-56745D01*
X50228Y-56820D01*
X50228Y-56970D01*
X50209Y-57007D01*
X50190Y-57026D01*
X50153Y-57045D01*
X50078Y-57045D01*
X50040Y-57026D01*
X50021Y-57007D01*
X50003Y-56970D01*
X50003Y-56876D01*
X50021Y-56838D01*
X50040Y-56820D01*
X50078Y-56801D01*
X50153Y-56801D01*
X50190Y-56820D01*
X50209Y-56838D01*
X50228Y-56876D01*
X53503Y-56545D02*
X53634Y-56357D01*
X53728Y-56545D02*
X53728Y-56151D01*
X53578Y-56151D01*
X53540Y-56170D01*
X53521Y-56188D01*
X53503Y-56226D01*
X53503Y-56282D01*
X53521Y-56320D01*
X53540Y-56338D01*
X53578Y-56357D01*
X53728Y-56357D01*
X53128Y-56545D02*
X53353Y-56545D01*
X53240Y-56545D02*
X53240Y-56151D01*
X53278Y-56207D01*
X53315Y-56245D01*
X53353Y-56263D01*
X52771Y-56151D02*
X52959Y-56151D01*
X52978Y-56338D01*
X52959Y-56320D01*
X52921Y-56301D01*
X52828Y-56301D01*
X52790Y-56320D01*
X52771Y-56338D01*
X52753Y-56376D01*
X52753Y-56470D01*
X52771Y-56507D01*
X52790Y-56526D01*
X52828Y-56545D01*
X52921Y-56545D01*
X52959Y-56526D01*
X52978Y-56507D01*
X53503Y-58545D02*
X53634Y-58357D01*
X53728Y-58545D02*
X53728Y-58151D01*
X53578Y-58151D01*
X53540Y-58170D01*
X53521Y-58188D01*
X53503Y-58226D01*
X53503Y-58282D01*
X53521Y-58320D01*
X53540Y-58338D01*
X53578Y-58357D01*
X53728Y-58357D01*
X53128Y-58545D02*
X53353Y-58545D01*
X53240Y-58545D02*
X53240Y-58151D01*
X53278Y-58207D01*
X53315Y-58245D01*
X53353Y-58263D01*
X52940Y-58545D02*
X52865Y-58545D01*
X52828Y-58526D01*
X52809Y-58507D01*
X52771Y-58451D01*
X52753Y-58376D01*
X52753Y-58226D01*
X52771Y-58188D01*
X52790Y-58170D01*
X52828Y-58151D01*
X52903Y-58151D01*
X52940Y-58170D01*
X52959Y-58188D01*
X52978Y-58226D01*
X52978Y-58320D01*
X52959Y-58357D01*
X52940Y-58376D01*
X52903Y-58395D01*
X52828Y-58395D01*
X52790Y-58376D01*
X52771Y-58357D01*
X52753Y-58320D01*
X50753Y-55045D02*
X50884Y-54857D01*
X50978Y-55045D02*
X50978Y-54651D01*
X50828Y-54651D01*
X50790Y-54670D01*
X50771Y-54688D01*
X50753Y-54726D01*
X50753Y-54782D01*
X50771Y-54820D01*
X50790Y-54838D01*
X50828Y-54857D01*
X50978Y-54857D01*
X50378Y-55045D02*
X50603Y-55045D01*
X50490Y-55045D02*
X50490Y-54651D01*
X50528Y-54707D01*
X50565Y-54745D01*
X50603Y-54763D01*
X50228Y-54688D02*
X50209Y-54670D01*
X50171Y-54651D01*
X50078Y-54651D01*
X50040Y-54670D01*
X50021Y-54688D01*
X50003Y-54726D01*
X50003Y-54763D01*
X50021Y-54820D01*
X50246Y-55045D01*
X50003Y-55045D01*
X47159Y-60820D02*
X46971Y-60688D01*
X47159Y-60595D02*
X46765Y-60595D01*
X46765Y-60745D01*
X46784Y-60782D01*
X46803Y-60801D01*
X46840Y-60820D01*
X46896Y-60820D01*
X46934Y-60801D01*
X46953Y-60782D01*
X46971Y-60745D01*
X46971Y-60595D01*
X46765Y-60951D02*
X46765Y-61195D01*
X46915Y-61063D01*
X46915Y-61120D01*
X46934Y-61157D01*
X46953Y-61176D01*
X46990Y-61195D01*
X47084Y-61195D01*
X47121Y-61176D01*
X47140Y-61157D01*
X47159Y-61120D01*
X47159Y-61007D01*
X47140Y-60970D01*
X47121Y-60951D01*
X50753Y-56045D02*
X50884Y-55857D01*
X50978Y-56045D02*
X50978Y-55651D01*
X50828Y-55651D01*
X50790Y-55670D01*
X50771Y-55688D01*
X50753Y-55726D01*
X50753Y-55782D01*
X50771Y-55820D01*
X50790Y-55838D01*
X50828Y-55857D01*
X50978Y-55857D01*
X50378Y-56045D02*
X50603Y-56045D01*
X50490Y-56045D02*
X50490Y-55651D01*
X50528Y-55707D01*
X50565Y-55745D01*
X50603Y-55763D01*
X50040Y-55782D02*
X50040Y-56045D01*
X50134Y-55632D02*
X50228Y-55913D01*
X49984Y-55913D01*
X53503Y-55545D02*
X53634Y-55357D01*
X53728Y-55545D02*
X53728Y-55151D01*
X53578Y-55151D01*
X53540Y-55170D01*
X53521Y-55188D01*
X53503Y-55226D01*
X53503Y-55282D01*
X53521Y-55320D01*
X53540Y-55338D01*
X53578Y-55357D01*
X53728Y-55357D01*
X53128Y-55545D02*
X53353Y-55545D01*
X53240Y-55545D02*
X53240Y-55151D01*
X53278Y-55207D01*
X53315Y-55245D01*
X53353Y-55263D01*
X52996Y-55151D02*
X52753Y-55151D01*
X52884Y-55301D01*
X52828Y-55301D01*
X52790Y-55320D01*
X52771Y-55338D01*
X52753Y-55376D01*
X52753Y-55470D01*
X52771Y-55507D01*
X52790Y-55526D01*
X52828Y-55545D01*
X52940Y-55545D01*
X52978Y-55526D01*
X52996Y-55507D01*
X53503Y-42159D02*
X53634Y-41971D01*
X53728Y-42159D02*
X53728Y-41765D01*
X53578Y-41765D01*
X53540Y-41784D01*
X53521Y-41803D01*
X53503Y-41840D01*
X53503Y-41896D01*
X53521Y-41934D01*
X53540Y-41953D01*
X53578Y-41971D01*
X53728Y-41971D01*
X53128Y-42159D02*
X53353Y-42159D01*
X53240Y-42159D02*
X53240Y-41765D01*
X53278Y-41821D01*
X53315Y-41859D01*
X53353Y-41878D01*
X52996Y-41765D02*
X52753Y-41765D01*
X52884Y-41915D01*
X52828Y-41915D01*
X52790Y-41934D01*
X52771Y-41953D01*
X52753Y-41990D01*
X52753Y-42084D01*
X52771Y-42121D01*
X52790Y-42140D01*
X52828Y-42159D01*
X52940Y-42159D01*
X52978Y-42140D01*
X52996Y-42121D01*
X50753Y-42659D02*
X50884Y-42471D01*
X50978Y-42659D02*
X50978Y-42265D01*
X50828Y-42265D01*
X50790Y-42284D01*
X50771Y-42303D01*
X50753Y-42340D01*
X50753Y-42396D01*
X50771Y-42434D01*
X50790Y-42453D01*
X50828Y-42471D01*
X50978Y-42471D01*
X50378Y-42659D02*
X50603Y-42659D01*
X50490Y-42659D02*
X50490Y-42265D01*
X50528Y-42321D01*
X50565Y-42359D01*
X50603Y-42378D01*
X50040Y-42396D02*
X50040Y-42659D01*
X50134Y-42246D02*
X50228Y-42528D01*
X49984Y-42528D01*
X47159Y-47434D02*
X46971Y-47303D01*
X47159Y-47209D02*
X46765Y-47209D01*
X46765Y-47359D01*
X46784Y-47396D01*
X46803Y-47415D01*
X46840Y-47434D01*
X46896Y-47434D01*
X46934Y-47415D01*
X46953Y-47396D01*
X46971Y-47359D01*
X46971Y-47209D01*
X46765Y-47565D02*
X46765Y-47809D01*
X46915Y-47678D01*
X46915Y-47734D01*
X46934Y-47771D01*
X46953Y-47790D01*
X46990Y-47809D01*
X47084Y-47809D01*
X47121Y-47790D01*
X47140Y-47771D01*
X47159Y-47734D01*
X47159Y-47621D01*
X47140Y-47584D01*
X47121Y-47565D01*
X50753Y-41659D02*
X50884Y-41471D01*
X50978Y-41659D02*
X50978Y-41265D01*
X50828Y-41265D01*
X50790Y-41284D01*
X50771Y-41303D01*
X50753Y-41340D01*
X50753Y-41396D01*
X50771Y-41434D01*
X50790Y-41453D01*
X50828Y-41471D01*
X50978Y-41471D01*
X50378Y-41659D02*
X50603Y-41659D01*
X50490Y-41659D02*
X50490Y-41265D01*
X50528Y-41321D01*
X50565Y-41359D01*
X50603Y-41378D01*
X50228Y-41303D02*
X50209Y-41284D01*
X50171Y-41265D01*
X50078Y-41265D01*
X50040Y-41284D01*
X50021Y-41303D01*
X50003Y-41340D01*
X50003Y-41378D01*
X50021Y-41434D01*
X50246Y-41659D01*
X50003Y-41659D01*
X53503Y-45159D02*
X53634Y-44971D01*
X53728Y-45159D02*
X53728Y-44765D01*
X53578Y-44765D01*
X53540Y-44784D01*
X53521Y-44803D01*
X53503Y-44840D01*
X53503Y-44896D01*
X53521Y-44934D01*
X53540Y-44953D01*
X53578Y-44971D01*
X53728Y-44971D01*
X53128Y-45159D02*
X53353Y-45159D01*
X53240Y-45159D02*
X53240Y-44765D01*
X53278Y-44821D01*
X53315Y-44859D01*
X53353Y-44878D01*
X52940Y-45159D02*
X52865Y-45159D01*
X52828Y-45140D01*
X52809Y-45121D01*
X52771Y-45065D01*
X52753Y-44990D01*
X52753Y-44840D01*
X52771Y-44803D01*
X52790Y-44784D01*
X52828Y-44765D01*
X52903Y-44765D01*
X52940Y-44784D01*
X52959Y-44803D01*
X52978Y-44840D01*
X52978Y-44934D01*
X52959Y-44971D01*
X52940Y-44990D01*
X52903Y-45009D01*
X52828Y-45009D01*
X52790Y-44990D01*
X52771Y-44971D01*
X52753Y-44934D01*
X53503Y-43159D02*
X53634Y-42971D01*
X53728Y-43159D02*
X53728Y-42765D01*
X53578Y-42765D01*
X53540Y-42784D01*
X53521Y-42803D01*
X53503Y-42840D01*
X53503Y-42896D01*
X53521Y-42934D01*
X53540Y-42953D01*
X53578Y-42971D01*
X53728Y-42971D01*
X53128Y-43159D02*
X53353Y-43159D01*
X53240Y-43159D02*
X53240Y-42765D01*
X53278Y-42821D01*
X53315Y-42859D01*
X53353Y-42878D01*
X52771Y-42765D02*
X52959Y-42765D01*
X52978Y-42953D01*
X52959Y-42934D01*
X52921Y-42915D01*
X52828Y-42915D01*
X52790Y-42934D01*
X52771Y-42953D01*
X52753Y-42990D01*
X52753Y-43084D01*
X52771Y-43121D01*
X52790Y-43140D01*
X52828Y-43159D01*
X52921Y-43159D01*
X52959Y-43140D01*
X52978Y-43121D01*
X50753Y-43659D02*
X50884Y-43471D01*
X50978Y-43659D02*
X50978Y-43265D01*
X50828Y-43265D01*
X50790Y-43284D01*
X50771Y-43303D01*
X50753Y-43340D01*
X50753Y-43396D01*
X50771Y-43434D01*
X50790Y-43453D01*
X50828Y-43471D01*
X50978Y-43471D01*
X50378Y-43659D02*
X50603Y-43659D01*
X50490Y-43659D02*
X50490Y-43265D01*
X50528Y-43321D01*
X50565Y-43359D01*
X50603Y-43378D01*
X50040Y-43265D02*
X50115Y-43265D01*
X50153Y-43284D01*
X50171Y-43303D01*
X50209Y-43359D01*
X50228Y-43434D01*
X50228Y-43584D01*
X50209Y-43621D01*
X50190Y-43640D01*
X50153Y-43659D01*
X50078Y-43659D01*
X50040Y-43640D01*
X50021Y-43621D01*
X50003Y-43584D01*
X50003Y-43490D01*
X50021Y-43453D01*
X50040Y-43434D01*
X50078Y-43415D01*
X50153Y-43415D01*
X50190Y-43434D01*
X50209Y-43453D01*
X50228Y-43490D01*
X53503Y-44159D02*
X53634Y-43971D01*
X53728Y-44159D02*
X53728Y-43765D01*
X53578Y-43765D01*
X53540Y-43784D01*
X53521Y-43803D01*
X53503Y-43840D01*
X53503Y-43896D01*
X53521Y-43934D01*
X53540Y-43953D01*
X53578Y-43971D01*
X53728Y-43971D01*
X53128Y-44159D02*
X53353Y-44159D01*
X53240Y-44159D02*
X53240Y-43765D01*
X53278Y-43821D01*
X53315Y-43859D01*
X53353Y-43878D01*
X52996Y-43765D02*
X52734Y-43765D01*
X52903Y-44159D01*
X50753Y-44659D02*
X50884Y-44471D01*
X50978Y-44659D02*
X50978Y-44265D01*
X50828Y-44265D01*
X50790Y-44284D01*
X50771Y-44303D01*
X50753Y-44340D01*
X50753Y-44396D01*
X50771Y-44434D01*
X50790Y-44453D01*
X50828Y-44471D01*
X50978Y-44471D01*
X50378Y-44659D02*
X50603Y-44659D01*
X50490Y-44659D02*
X50490Y-44265D01*
X50528Y-44321D01*
X50565Y-44359D01*
X50603Y-44378D01*
X50153Y-44434D02*
X50190Y-44415D01*
X50209Y-44396D01*
X50228Y-44359D01*
X50228Y-44340D01*
X50209Y-44303D01*
X50190Y-44284D01*
X50153Y-44265D01*
X50078Y-44265D01*
X50040Y-44284D01*
X50021Y-44303D01*
X50003Y-44340D01*
X50003Y-44359D01*
X50021Y-44396D01*
X50040Y-44415D01*
X50078Y-44434D01*
X50153Y-44434D01*
X50190Y-44453D01*
X50209Y-44471D01*
X50228Y-44509D01*
X50228Y-44584D01*
X50209Y-44621D01*
X50190Y-44640D01*
X50153Y-44659D01*
X50078Y-44659D01*
X50040Y-44640D01*
X50021Y-44621D01*
X50003Y-44584D01*
X50003Y-44509D01*
X50021Y-44471D01*
X50040Y-44453D01*
X50078Y-44434D01*
X57565Y-50159D02*
X57696Y-49971D01*
X57790Y-50159D02*
X57790Y-49765D01*
X57640Y-49765D01*
X57603Y-49784D01*
X57584Y-49803D01*
X57565Y-49840D01*
X57565Y-49896D01*
X57584Y-49934D01*
X57603Y-49953D01*
X57640Y-49971D01*
X57790Y-49971D01*
X57415Y-49803D02*
X57396Y-49784D01*
X57359Y-49765D01*
X57265Y-49765D01*
X57228Y-49784D01*
X57209Y-49803D01*
X57190Y-49840D01*
X57190Y-49878D01*
X57209Y-49934D01*
X57434Y-50159D01*
X57190Y-50159D01*
X55565Y-49159D02*
X55696Y-48971D01*
X55790Y-49159D02*
X55790Y-48765D01*
X55640Y-48765D01*
X55603Y-48784D01*
X55584Y-48803D01*
X55565Y-48840D01*
X55565Y-48896D01*
X55584Y-48934D01*
X55603Y-48953D01*
X55640Y-48971D01*
X55790Y-48971D01*
X55190Y-49159D02*
X55415Y-49159D01*
X55303Y-49159D02*
X55303Y-48765D01*
X55340Y-48821D01*
X55378Y-48859D01*
X55415Y-48878D01*
X87790Y-41909D02*
X87790Y-41515D01*
X87696Y-41515D01*
X87640Y-41534D01*
X87603Y-41571D01*
X87584Y-41609D01*
X87565Y-41684D01*
X87565Y-41740D01*
X87584Y-41815D01*
X87603Y-41853D01*
X87640Y-41890D01*
X87696Y-41909D01*
X87790Y-41909D01*
X87415Y-41553D02*
X87396Y-41534D01*
X87359Y-41515D01*
X87265Y-41515D01*
X87228Y-41534D01*
X87209Y-41553D01*
X87190Y-41590D01*
X87190Y-41628D01*
X87209Y-41684D01*
X87434Y-41909D01*
X87190Y-41909D01*
X83790Y-41659D02*
X83790Y-41265D01*
X83696Y-41265D01*
X83640Y-41284D01*
X83603Y-41321D01*
X83584Y-41359D01*
X83565Y-41434D01*
X83565Y-41490D01*
X83584Y-41565D01*
X83603Y-41603D01*
X83640Y-41640D01*
X83696Y-41659D01*
X83790Y-41659D01*
X83190Y-41659D02*
X83415Y-41659D01*
X83303Y-41659D02*
X83303Y-41265D01*
X83340Y-41321D01*
X83378Y-41359D01*
X83415Y-41378D01*
X87790Y-44909D02*
X87790Y-44515D01*
X87696Y-44515D01*
X87640Y-44534D01*
X87603Y-44571D01*
X87584Y-44609D01*
X87565Y-44684D01*
X87565Y-44740D01*
X87584Y-44815D01*
X87603Y-44853D01*
X87640Y-44890D01*
X87696Y-44909D01*
X87790Y-44909D01*
X87340Y-44684D02*
X87378Y-44665D01*
X87396Y-44646D01*
X87415Y-44609D01*
X87415Y-44590D01*
X87396Y-44553D01*
X87378Y-44534D01*
X87340Y-44515D01*
X87265Y-44515D01*
X87228Y-44534D01*
X87209Y-44553D01*
X87190Y-44590D01*
X87190Y-44609D01*
X87209Y-44646D01*
X87228Y-44665D01*
X87265Y-44684D01*
X87340Y-44684D01*
X87378Y-44703D01*
X87396Y-44721D01*
X87415Y-44759D01*
X87415Y-44834D01*
X87396Y-44871D01*
X87378Y-44890D01*
X87340Y-44909D01*
X87265Y-44909D01*
X87228Y-44890D01*
X87209Y-44871D01*
X87190Y-44834D01*
X87190Y-44759D01*
X87209Y-44721D01*
X87228Y-44703D01*
X87265Y-44684D01*
X83790Y-44659D02*
X83790Y-44265D01*
X83696Y-44265D01*
X83640Y-44284D01*
X83603Y-44321D01*
X83584Y-44359D01*
X83565Y-44434D01*
X83565Y-44490D01*
X83584Y-44565D01*
X83603Y-44603D01*
X83640Y-44640D01*
X83696Y-44659D01*
X83790Y-44659D01*
X83434Y-44265D02*
X83171Y-44265D01*
X83340Y-44659D01*
X87790Y-43909D02*
X87790Y-43515D01*
X87696Y-43515D01*
X87640Y-43534D01*
X87603Y-43571D01*
X87584Y-43609D01*
X87565Y-43684D01*
X87565Y-43740D01*
X87584Y-43815D01*
X87603Y-43853D01*
X87640Y-43890D01*
X87696Y-43909D01*
X87790Y-43909D01*
X87228Y-43515D02*
X87303Y-43515D01*
X87340Y-43534D01*
X87359Y-43553D01*
X87396Y-43609D01*
X87415Y-43684D01*
X87415Y-43834D01*
X87396Y-43871D01*
X87378Y-43890D01*
X87340Y-43909D01*
X87265Y-43909D01*
X87228Y-43890D01*
X87209Y-43871D01*
X87190Y-43834D01*
X87190Y-43740D01*
X87209Y-43703D01*
X87228Y-43684D01*
X87265Y-43665D01*
X87340Y-43665D01*
X87378Y-43684D01*
X87396Y-43703D01*
X87415Y-43740D01*
X83790Y-43659D02*
X83790Y-43265D01*
X83696Y-43265D01*
X83640Y-43284D01*
X83603Y-43321D01*
X83584Y-43359D01*
X83565Y-43434D01*
X83565Y-43490D01*
X83584Y-43565D01*
X83603Y-43603D01*
X83640Y-43640D01*
X83696Y-43659D01*
X83790Y-43659D01*
X83209Y-43265D02*
X83396Y-43265D01*
X83415Y-43453D01*
X83396Y-43434D01*
X83359Y-43415D01*
X83265Y-43415D01*
X83228Y-43434D01*
X83209Y-43453D01*
X83190Y-43490D01*
X83190Y-43584D01*
X83209Y-43621D01*
X83228Y-43640D01*
X83265Y-43659D01*
X83359Y-43659D01*
X83396Y-43640D01*
X83415Y-43621D01*
X87790Y-42909D02*
X87790Y-42515D01*
X87696Y-42515D01*
X87640Y-42534D01*
X87603Y-42571D01*
X87584Y-42609D01*
X87565Y-42684D01*
X87565Y-42740D01*
X87584Y-42815D01*
X87603Y-42853D01*
X87640Y-42890D01*
X87696Y-42909D01*
X87790Y-42909D01*
X87228Y-42646D02*
X87228Y-42909D01*
X87321Y-42496D02*
X87415Y-42778D01*
X87171Y-42778D01*
X83790Y-42659D02*
X83790Y-42265D01*
X83696Y-42265D01*
X83640Y-42284D01*
X83603Y-42321D01*
X83584Y-42359D01*
X83565Y-42434D01*
X83565Y-42490D01*
X83584Y-42565D01*
X83603Y-42603D01*
X83640Y-42640D01*
X83696Y-42659D01*
X83790Y-42659D01*
X83434Y-42265D02*
X83190Y-42265D01*
X83321Y-42415D01*
X83265Y-42415D01*
X83228Y-42434D01*
X83209Y-42453D01*
X83190Y-42490D01*
X83190Y-42584D01*
X83209Y-42621D01*
X83228Y-42640D01*
X83265Y-42659D01*
X83378Y-42659D01*
X83415Y-42640D01*
X83434Y-42621D01*
M02*
