G04 (created by PCBNEW (2013-07-07 BZR 4022)-stable) date 21/01/2014 23:36:15*
%MOIN*%
G04 Gerber Fmt 3.4, Leading zero omitted, Abs format*
%FSLAX34Y34*%
G01*
G70*
G90*
G04 APERTURE LIST*
%ADD10C,0.00590551*%
%ADD11C,0.015*%
G04 APERTURE END LIST*
G54D10*
G54D11*
X43307Y-52755D02*
X43307Y-51968D01*
X40944Y-52755D02*
X43307Y-52755D01*
X40944Y-66141D02*
X43307Y-66141D01*
X40944Y-65354D02*
X43307Y-65354D01*
X43307Y-65354D02*
X43307Y-66141D01*
X94488Y-66141D02*
X96850Y-66141D01*
X94488Y-65354D02*
X96850Y-65354D01*
X94488Y-52755D02*
X96850Y-52755D01*
X94488Y-51968D02*
X96850Y-51968D01*
X94488Y-52755D02*
X94488Y-51968D01*
X94488Y-65354D02*
X94488Y-66141D01*
X40944Y-66141D02*
G75*
G03X39370Y-67716I0J-1574D01*
G74*
G01*
X39370Y-77165D02*
G75*
G03X40944Y-78740I1574J0D01*
G74*
G01*
X98425Y-67716D02*
G75*
G03X96850Y-66141I-1574J0D01*
G74*
G01*
X96850Y-78740D02*
G75*
G03X98425Y-77165I0J1574D01*
G74*
G01*
X96850Y-78740D02*
X40944Y-78740D01*
X98425Y-67716D02*
X98425Y-77165D01*
X39370Y-67716D02*
X39370Y-77165D01*
X39370Y-54330D02*
X39370Y-63779D01*
X98425Y-54330D02*
X98425Y-63779D01*
X96850Y-65354D02*
G75*
G03X98425Y-63779I0J1574D01*
G74*
G01*
X98425Y-54330D02*
G75*
G03X96850Y-52755I-1574J0D01*
G74*
G01*
X39370Y-63779D02*
G75*
G03X40944Y-65354I1574J0D01*
G74*
G01*
X40944Y-52755D02*
G75*
G03X39370Y-54330I0J-1574D01*
G74*
G01*
X40944Y-39370D02*
G75*
G03X39370Y-40944I0J-1574D01*
G74*
G01*
X39370Y-50393D02*
G75*
G03X40944Y-51968I1574J0D01*
G74*
G01*
X98425Y-40944D02*
G75*
G03X96850Y-39370I-1574J0D01*
G74*
G01*
X96850Y-51968D02*
G75*
G03X98425Y-50393I0J1574D01*
G74*
G01*
X98425Y-40944D02*
X98425Y-50393D01*
X40944Y-39370D02*
X96850Y-39370D01*
X39370Y-40944D02*
X39370Y-50393D01*
M02*
