G04 (created by PCBNEW (2013-07-07 BZR 4022)-stable) date 15/01/2014 06:25:56*
%MOIN*%
G04 Gerber Fmt 3.4, Leading zero omitted, Abs format*
%FSLAX34Y34*%
G01*
G70*
G90*
G04 APERTURE LIST*
%ADD10C,0.00590551*%
%ADD11C,0.0551181*%
%ADD12C,0.19685*%
%ADD13C,0.0787*%
%ADD14C,0.0669*%
%ADD15R,0.055X0.055*%
%ADD16C,0.055*%
%ADD17C,0.0708661*%
%ADD18C,0.035*%
%ADD19C,0.019685*%
%ADD20C,0.0393701*%
%ADD21C,0.01*%
G04 APERTURE END LIST*
G54D10*
G54D11*
X92500Y-75271D03*
X91500Y-75271D03*
X90500Y-75271D03*
X89500Y-75271D03*
X88500Y-75271D03*
X87500Y-75271D03*
X86500Y-75271D03*
X85500Y-75271D03*
X85500Y-78271D03*
X86500Y-78271D03*
X87500Y-78271D03*
X88500Y-78271D03*
X89500Y-78271D03*
X90500Y-78271D03*
X91500Y-78271D03*
X92500Y-78271D03*
X92500Y-61885D03*
X91500Y-61885D03*
X90500Y-61885D03*
X89500Y-61885D03*
X88500Y-61885D03*
X87500Y-61885D03*
X86500Y-61885D03*
X85500Y-61885D03*
X85500Y-64885D03*
X86500Y-64885D03*
X87500Y-64885D03*
X88500Y-64885D03*
X89500Y-64885D03*
X90500Y-64885D03*
X91500Y-64885D03*
X92500Y-64885D03*
G54D12*
X40944Y-67716D03*
X40944Y-77165D03*
X96850Y-67716D03*
X96850Y-77165D03*
G54D13*
X59250Y-75021D03*
X61250Y-75021D03*
G54D11*
X54500Y-73271D03*
X55500Y-73271D03*
X56500Y-73271D03*
X57500Y-73271D03*
X58500Y-73271D03*
X58500Y-67271D03*
X57500Y-67271D03*
X56500Y-67271D03*
X55500Y-67271D03*
X54500Y-67271D03*
X49500Y-73271D03*
X50500Y-73271D03*
X51500Y-73271D03*
X52500Y-73271D03*
X53500Y-73271D03*
X53500Y-67271D03*
X52500Y-67271D03*
X51500Y-67271D03*
X50500Y-67271D03*
X49500Y-67271D03*
X59500Y-73271D03*
X60500Y-73271D03*
X61500Y-73271D03*
X62500Y-73271D03*
X63500Y-73271D03*
X63500Y-67271D03*
X62500Y-67271D03*
X61500Y-67271D03*
X60500Y-67271D03*
X59500Y-67271D03*
X84500Y-73271D03*
X85500Y-73271D03*
X86500Y-73271D03*
X87500Y-73271D03*
X88500Y-73271D03*
X88500Y-67271D03*
X87500Y-67271D03*
X86500Y-67271D03*
X85500Y-67271D03*
X84500Y-67271D03*
X79500Y-73271D03*
X80500Y-73271D03*
X81500Y-73271D03*
X82500Y-73271D03*
X83500Y-73271D03*
X83500Y-67271D03*
X82500Y-67271D03*
X81500Y-67271D03*
X80500Y-67271D03*
X79500Y-67271D03*
X74500Y-73271D03*
X75500Y-73271D03*
X76500Y-73271D03*
X77500Y-73271D03*
X78500Y-73271D03*
X78500Y-67271D03*
X77500Y-67271D03*
X76500Y-67271D03*
X75500Y-67271D03*
X74500Y-67271D03*
X69500Y-73271D03*
X70500Y-73271D03*
X71500Y-73271D03*
X72500Y-73271D03*
X73500Y-73271D03*
X73500Y-67271D03*
X72500Y-67271D03*
X71500Y-67271D03*
X70500Y-67271D03*
X69500Y-67271D03*
X64500Y-73271D03*
X65500Y-73271D03*
X66500Y-73271D03*
X67500Y-73271D03*
X68500Y-73271D03*
X68500Y-67271D03*
X67500Y-67271D03*
X66500Y-67271D03*
X65500Y-67271D03*
X64500Y-67271D03*
G54D14*
X91750Y-66771D03*
X92750Y-66771D03*
X91750Y-67771D03*
X92750Y-67771D03*
X91750Y-68771D03*
X92750Y-68771D03*
X91750Y-69771D03*
X92750Y-69771D03*
X91750Y-70771D03*
X92750Y-70771D03*
X91750Y-71771D03*
X92750Y-71771D03*
X91750Y-72771D03*
X92750Y-72771D03*
X40750Y-73421D03*
X40750Y-74421D03*
X40750Y-75421D03*
X44578Y-73271D03*
X44421Y-72271D03*
X44421Y-71271D03*
X44578Y-70271D03*
X92500Y-75771D03*
X92500Y-76771D03*
X95000Y-77521D03*
X94000Y-77521D03*
X44500Y-77771D03*
X45500Y-77771D03*
X91500Y-75771D03*
X91500Y-76771D03*
X90500Y-75771D03*
X90500Y-76771D03*
X40750Y-72421D03*
X40750Y-71421D03*
X85500Y-75771D03*
X85500Y-76771D03*
X86500Y-75771D03*
X86500Y-76771D03*
X87500Y-75771D03*
X87500Y-76771D03*
X89500Y-75771D03*
X89500Y-76771D03*
X88500Y-75771D03*
X88500Y-76771D03*
G54D11*
X52250Y-68771D03*
X54250Y-68771D03*
X49500Y-69271D03*
X51500Y-69271D03*
X47000Y-75271D03*
X47000Y-73271D03*
X49500Y-68271D03*
X51500Y-68271D03*
X52250Y-71771D03*
X54250Y-71771D03*
X52250Y-69771D03*
X54250Y-69771D03*
X49500Y-70271D03*
X51500Y-70271D03*
X52250Y-70771D03*
X54250Y-70771D03*
X49500Y-71271D03*
X51500Y-71271D03*
X56500Y-76771D03*
X58500Y-76771D03*
X54500Y-75771D03*
X56500Y-75771D03*
X43500Y-76271D03*
X43500Y-78271D03*
X42750Y-77771D03*
X42750Y-75771D03*
X88500Y-68521D03*
X86500Y-68521D03*
X41750Y-74771D03*
X43750Y-74771D03*
X44500Y-74771D03*
X44500Y-76771D03*
X84500Y-68271D03*
X82500Y-68271D03*
X88500Y-71521D03*
X86500Y-71521D03*
X84500Y-71271D03*
X82500Y-71271D03*
X88500Y-70521D03*
X86500Y-70521D03*
X84500Y-70271D03*
X82500Y-70271D03*
X88500Y-69521D03*
X86500Y-69521D03*
X84500Y-69271D03*
X82500Y-69271D03*
G54D15*
X48500Y-76271D03*
G54D16*
X48500Y-75271D03*
X48500Y-74271D03*
X48500Y-73271D03*
X48500Y-72271D03*
X48500Y-71271D03*
X48500Y-70271D03*
X48500Y-69271D03*
X48500Y-68271D03*
X48500Y-67271D03*
X45500Y-67271D03*
X45500Y-68271D03*
X45500Y-69271D03*
X45500Y-70271D03*
X45500Y-71271D03*
X45500Y-72271D03*
X45500Y-73271D03*
X45500Y-74271D03*
X45500Y-75271D03*
X45500Y-76271D03*
G54D15*
X74500Y-77771D03*
G54D16*
X75500Y-77771D03*
X76500Y-77771D03*
X77500Y-77771D03*
X78500Y-77771D03*
X79500Y-77771D03*
X80500Y-77771D03*
X81500Y-77771D03*
X82500Y-77771D03*
X82500Y-74771D03*
X81500Y-74771D03*
X80500Y-74771D03*
X79500Y-74771D03*
X78500Y-74771D03*
X77500Y-74771D03*
X76500Y-74771D03*
X75500Y-74771D03*
X74500Y-74771D03*
G54D15*
X50000Y-77771D03*
G54D16*
X51000Y-77771D03*
X52000Y-77771D03*
X53000Y-77771D03*
X54000Y-77771D03*
X55000Y-77771D03*
X56000Y-77771D03*
X57000Y-77771D03*
X57000Y-74771D03*
X56000Y-74771D03*
X55000Y-74771D03*
X54000Y-74771D03*
X53000Y-74771D03*
X52000Y-74771D03*
X51000Y-74771D03*
X50000Y-74771D03*
G54D15*
X64500Y-77771D03*
G54D16*
X65500Y-77771D03*
X66500Y-77771D03*
X67500Y-77771D03*
X68500Y-77771D03*
X69500Y-77771D03*
X70500Y-77771D03*
X71500Y-77771D03*
X71500Y-74771D03*
X70500Y-74771D03*
X69500Y-74771D03*
X68500Y-74771D03*
X67500Y-74771D03*
X66500Y-74771D03*
X65500Y-74771D03*
X64500Y-74771D03*
G54D11*
X47500Y-77771D03*
X46500Y-77771D03*
X63000Y-74771D03*
X63000Y-75771D03*
X62500Y-76771D03*
X62500Y-77771D03*
X60500Y-76771D03*
X60500Y-77771D03*
X61500Y-76771D03*
X61500Y-77771D03*
X59500Y-76771D03*
X59500Y-77771D03*
X43000Y-72271D03*
X43000Y-71271D03*
X97250Y-74271D03*
X96250Y-73271D03*
X97250Y-72271D03*
G54D17*
X94750Y-68771D03*
X93750Y-69771D03*
X94750Y-70771D03*
G54D11*
X97250Y-70771D03*
X97250Y-69771D03*
X95250Y-75271D03*
X94250Y-75271D03*
G54D14*
X42250Y-73771D03*
X43250Y-73771D03*
X40750Y-69421D03*
X40750Y-70421D03*
X40750Y-56035D03*
X40750Y-57035D03*
X42250Y-60385D03*
X43250Y-60385D03*
G54D11*
X95250Y-61885D03*
X94250Y-61885D03*
X97250Y-57385D03*
X97250Y-56385D03*
G54D17*
X94750Y-55385D03*
X93750Y-56385D03*
X94750Y-57385D03*
G54D11*
X97250Y-60885D03*
X96250Y-59885D03*
X97250Y-58885D03*
X43000Y-58885D03*
X43000Y-57885D03*
X59500Y-63385D03*
X59500Y-64385D03*
X61500Y-63385D03*
X61500Y-64385D03*
X60500Y-63385D03*
X60500Y-64385D03*
X62500Y-63385D03*
X62500Y-64385D03*
X63000Y-61385D03*
X63000Y-62385D03*
X47500Y-64385D03*
X46500Y-64385D03*
G54D15*
X64500Y-64385D03*
G54D16*
X65500Y-64385D03*
X66500Y-64385D03*
X67500Y-64385D03*
X68500Y-64385D03*
X69500Y-64385D03*
X70500Y-64385D03*
X71500Y-64385D03*
X71500Y-61385D03*
X70500Y-61385D03*
X69500Y-61385D03*
X68500Y-61385D03*
X67500Y-61385D03*
X66500Y-61385D03*
X65500Y-61385D03*
X64500Y-61385D03*
G54D15*
X50000Y-64385D03*
G54D16*
X51000Y-64385D03*
X52000Y-64385D03*
X53000Y-64385D03*
X54000Y-64385D03*
X55000Y-64385D03*
X56000Y-64385D03*
X57000Y-64385D03*
X57000Y-61385D03*
X56000Y-61385D03*
X55000Y-61385D03*
X54000Y-61385D03*
X53000Y-61385D03*
X52000Y-61385D03*
X51000Y-61385D03*
X50000Y-61385D03*
G54D15*
X74500Y-64385D03*
G54D16*
X75500Y-64385D03*
X76500Y-64385D03*
X77500Y-64385D03*
X78500Y-64385D03*
X79500Y-64385D03*
X80500Y-64385D03*
X81500Y-64385D03*
X82500Y-64385D03*
X82500Y-61385D03*
X81500Y-61385D03*
X80500Y-61385D03*
X79500Y-61385D03*
X78500Y-61385D03*
X77500Y-61385D03*
X76500Y-61385D03*
X75500Y-61385D03*
X74500Y-61385D03*
G54D15*
X48500Y-62885D03*
G54D16*
X48500Y-61885D03*
X48500Y-60885D03*
X48500Y-59885D03*
X48500Y-58885D03*
X48500Y-57885D03*
X48500Y-56885D03*
X48500Y-55885D03*
X48500Y-54885D03*
X48500Y-53885D03*
X45500Y-53885D03*
X45500Y-54885D03*
X45500Y-55885D03*
X45500Y-56885D03*
X45500Y-57885D03*
X45500Y-58885D03*
X45500Y-59885D03*
X45500Y-60885D03*
X45500Y-61885D03*
X45500Y-62885D03*
G54D11*
X84500Y-55885D03*
X82500Y-55885D03*
X88500Y-56135D03*
X86500Y-56135D03*
X84500Y-56885D03*
X82500Y-56885D03*
X88500Y-57135D03*
X86500Y-57135D03*
X84500Y-57885D03*
X82500Y-57885D03*
X88500Y-58135D03*
X86500Y-58135D03*
X84500Y-54885D03*
X82500Y-54885D03*
X44500Y-61385D03*
X44500Y-63385D03*
X41750Y-61385D03*
X43750Y-61385D03*
X88500Y-55135D03*
X86500Y-55135D03*
X42750Y-64385D03*
X42750Y-62385D03*
X43500Y-62885D03*
X43500Y-64885D03*
X54500Y-62385D03*
X56500Y-62385D03*
X56500Y-63385D03*
X58500Y-63385D03*
X49500Y-57885D03*
X51500Y-57885D03*
X52250Y-57385D03*
X54250Y-57385D03*
X49500Y-56885D03*
X51500Y-56885D03*
X52250Y-56385D03*
X54250Y-56385D03*
X52250Y-58385D03*
X54250Y-58385D03*
X49500Y-54885D03*
X51500Y-54885D03*
X47000Y-61885D03*
X47000Y-59885D03*
X49500Y-55885D03*
X51500Y-55885D03*
X52250Y-55385D03*
X54250Y-55385D03*
G54D14*
X88500Y-62385D03*
X88500Y-63385D03*
X89500Y-62385D03*
X89500Y-63385D03*
X87500Y-62385D03*
X87500Y-63385D03*
X86500Y-62385D03*
X86500Y-63385D03*
X85500Y-62385D03*
X85500Y-63385D03*
X40750Y-59035D03*
X40750Y-58035D03*
X90500Y-62385D03*
X90500Y-63385D03*
X91500Y-62385D03*
X91500Y-63385D03*
X44500Y-64385D03*
X45500Y-64385D03*
X95000Y-64135D03*
X94000Y-64135D03*
X92500Y-62385D03*
X92500Y-63385D03*
X44578Y-59885D03*
X44421Y-58885D03*
X44421Y-57885D03*
X44578Y-56885D03*
X40750Y-60035D03*
X40750Y-61035D03*
X40750Y-62035D03*
X91750Y-53385D03*
X92750Y-53385D03*
X91750Y-54385D03*
X92750Y-54385D03*
X91750Y-55385D03*
X92750Y-55385D03*
X91750Y-56385D03*
X92750Y-56385D03*
X91750Y-57385D03*
X92750Y-57385D03*
X91750Y-58385D03*
X92750Y-58385D03*
X91750Y-59385D03*
X92750Y-59385D03*
G54D11*
X64500Y-59885D03*
X65500Y-59885D03*
X66500Y-59885D03*
X67500Y-59885D03*
X68500Y-59885D03*
X68500Y-53885D03*
X67500Y-53885D03*
X66500Y-53885D03*
X65500Y-53885D03*
X64500Y-53885D03*
X69500Y-59885D03*
X70500Y-59885D03*
X71500Y-59885D03*
X72500Y-59885D03*
X73500Y-59885D03*
X73500Y-53885D03*
X72500Y-53885D03*
X71500Y-53885D03*
X70500Y-53885D03*
X69500Y-53885D03*
X74500Y-59885D03*
X75500Y-59885D03*
X76500Y-59885D03*
X77500Y-59885D03*
X78500Y-59885D03*
X78500Y-53885D03*
X77500Y-53885D03*
X76500Y-53885D03*
X75500Y-53885D03*
X74500Y-53885D03*
X79500Y-59885D03*
X80500Y-59885D03*
X81500Y-59885D03*
X82500Y-59885D03*
X83500Y-59885D03*
X83500Y-53885D03*
X82500Y-53885D03*
X81500Y-53885D03*
X80500Y-53885D03*
X79500Y-53885D03*
X84500Y-59885D03*
X85500Y-59885D03*
X86500Y-59885D03*
X87500Y-59885D03*
X88500Y-59885D03*
X88500Y-53885D03*
X87500Y-53885D03*
X86500Y-53885D03*
X85500Y-53885D03*
X84500Y-53885D03*
X59500Y-59885D03*
X60500Y-59885D03*
X61500Y-59885D03*
X62500Y-59885D03*
X63500Y-59885D03*
X63500Y-53885D03*
X62500Y-53885D03*
X61500Y-53885D03*
X60500Y-53885D03*
X59500Y-53885D03*
X49500Y-59885D03*
X50500Y-59885D03*
X51500Y-59885D03*
X52500Y-59885D03*
X53500Y-59885D03*
X53500Y-53885D03*
X52500Y-53885D03*
X51500Y-53885D03*
X50500Y-53885D03*
X49500Y-53885D03*
X54500Y-59885D03*
X55500Y-59885D03*
X56500Y-59885D03*
X57500Y-59885D03*
X58500Y-59885D03*
X58500Y-53885D03*
X57500Y-53885D03*
X56500Y-53885D03*
X55500Y-53885D03*
X54500Y-53885D03*
G54D13*
X59250Y-61635D03*
X61250Y-61635D03*
G54D12*
X96850Y-63779D03*
X96850Y-54330D03*
X40944Y-63779D03*
X40944Y-54330D03*
X40944Y-40944D03*
X40944Y-50393D03*
X96850Y-40944D03*
X96850Y-50393D03*
G54D13*
X59250Y-48250D03*
X61250Y-48250D03*
G54D11*
X54500Y-46500D03*
X55500Y-46500D03*
X56500Y-46500D03*
X57500Y-46500D03*
X58500Y-46500D03*
X58500Y-40500D03*
X57500Y-40500D03*
X56500Y-40500D03*
X55500Y-40500D03*
X54500Y-40500D03*
X49500Y-46500D03*
X50500Y-46500D03*
X51500Y-46500D03*
X52500Y-46500D03*
X53500Y-46500D03*
X53500Y-40500D03*
X52500Y-40500D03*
X51500Y-40500D03*
X50500Y-40500D03*
X49500Y-40500D03*
X59500Y-46500D03*
X60500Y-46500D03*
X61500Y-46500D03*
X62500Y-46500D03*
X63500Y-46500D03*
X63500Y-40500D03*
X62500Y-40500D03*
X61500Y-40500D03*
X60500Y-40500D03*
X59500Y-40500D03*
X84500Y-46500D03*
X85500Y-46500D03*
X86500Y-46500D03*
X87500Y-46500D03*
X88500Y-46500D03*
X88500Y-40500D03*
X87500Y-40500D03*
X86500Y-40500D03*
X85500Y-40500D03*
X84500Y-40500D03*
X79500Y-46500D03*
X80500Y-46500D03*
X81500Y-46500D03*
X82500Y-46500D03*
X83500Y-46500D03*
X83500Y-40500D03*
X82500Y-40500D03*
X81500Y-40500D03*
X80500Y-40500D03*
X79500Y-40500D03*
X74500Y-46500D03*
X75500Y-46500D03*
X76500Y-46500D03*
X77500Y-46500D03*
X78500Y-46500D03*
X78500Y-40500D03*
X77500Y-40500D03*
X76500Y-40500D03*
X75500Y-40500D03*
X74500Y-40500D03*
X69500Y-46500D03*
X70500Y-46500D03*
X71500Y-46500D03*
X72500Y-46500D03*
X73500Y-46500D03*
X73500Y-40500D03*
X72500Y-40500D03*
X71500Y-40500D03*
X70500Y-40500D03*
X69500Y-40500D03*
X64500Y-46500D03*
X65500Y-46500D03*
X66500Y-46500D03*
X67500Y-46500D03*
X68500Y-46500D03*
X68500Y-40500D03*
X67500Y-40500D03*
X66500Y-40500D03*
X65500Y-40500D03*
X64500Y-40500D03*
X92500Y-48500D03*
X91500Y-48500D03*
X90500Y-48500D03*
X89500Y-48500D03*
X88500Y-48500D03*
X87500Y-48500D03*
X86500Y-48500D03*
X85500Y-48500D03*
X85500Y-51500D03*
X86500Y-51500D03*
X87500Y-51500D03*
X88500Y-51500D03*
X89500Y-51500D03*
X90500Y-51500D03*
X91500Y-51500D03*
X92500Y-51500D03*
G54D14*
X91750Y-40000D03*
X92750Y-40000D03*
X91750Y-41000D03*
X92750Y-41000D03*
X91750Y-42000D03*
X92750Y-42000D03*
X91750Y-43000D03*
X92750Y-43000D03*
X91750Y-44000D03*
X92750Y-44000D03*
X91750Y-45000D03*
X92750Y-45000D03*
X91750Y-46000D03*
X92750Y-46000D03*
X40750Y-46650D03*
X40750Y-47650D03*
X40750Y-48650D03*
X44578Y-46500D03*
X44421Y-45500D03*
X44421Y-44500D03*
X44578Y-43500D03*
X92500Y-49000D03*
X92500Y-50000D03*
X95000Y-50750D03*
X94000Y-50750D03*
X44500Y-51000D03*
X45500Y-51000D03*
X91500Y-49000D03*
X91500Y-50000D03*
X90500Y-49000D03*
X90500Y-50000D03*
X40750Y-45650D03*
X40750Y-44650D03*
X85500Y-49000D03*
X85500Y-50000D03*
X86500Y-49000D03*
X86500Y-50000D03*
X87500Y-49000D03*
X87500Y-50000D03*
X89500Y-49000D03*
X89500Y-50000D03*
X88500Y-49000D03*
X88500Y-50000D03*
G54D11*
X52250Y-42000D03*
X54250Y-42000D03*
X49500Y-42500D03*
X51500Y-42500D03*
X47000Y-48500D03*
X47000Y-46500D03*
X49500Y-41500D03*
X51500Y-41500D03*
X52250Y-45000D03*
X54250Y-45000D03*
X52250Y-43000D03*
X54250Y-43000D03*
X49500Y-43500D03*
X51500Y-43500D03*
X52250Y-44000D03*
X54250Y-44000D03*
X49500Y-44500D03*
X51500Y-44500D03*
X56500Y-50000D03*
X58500Y-50000D03*
X54500Y-49000D03*
X56500Y-49000D03*
X43500Y-49500D03*
X43500Y-51500D03*
X42750Y-51000D03*
X42750Y-49000D03*
X88500Y-41750D03*
X86500Y-41750D03*
X41750Y-48000D03*
X43750Y-48000D03*
X44500Y-48000D03*
X44500Y-50000D03*
X84500Y-41500D03*
X82500Y-41500D03*
X88500Y-44750D03*
X86500Y-44750D03*
X84500Y-44500D03*
X82500Y-44500D03*
X88500Y-43750D03*
X86500Y-43750D03*
X84500Y-43500D03*
X82500Y-43500D03*
X88500Y-42750D03*
X86500Y-42750D03*
X84500Y-42500D03*
X82500Y-42500D03*
G54D15*
X48500Y-49500D03*
G54D16*
X48500Y-48500D03*
X48500Y-47500D03*
X48500Y-46500D03*
X48500Y-45500D03*
X48500Y-44500D03*
X48500Y-43500D03*
X48500Y-42500D03*
X48500Y-41500D03*
X48500Y-40500D03*
X45500Y-40500D03*
X45500Y-41500D03*
X45500Y-42500D03*
X45500Y-43500D03*
X45500Y-44500D03*
X45500Y-45500D03*
X45500Y-46500D03*
X45500Y-47500D03*
X45500Y-48500D03*
X45500Y-49500D03*
G54D15*
X74500Y-51000D03*
G54D16*
X75500Y-51000D03*
X76500Y-51000D03*
X77500Y-51000D03*
X78500Y-51000D03*
X79500Y-51000D03*
X80500Y-51000D03*
X81500Y-51000D03*
X82500Y-51000D03*
X82500Y-48000D03*
X81500Y-48000D03*
X80500Y-48000D03*
X79500Y-48000D03*
X78500Y-48000D03*
X77500Y-48000D03*
X76500Y-48000D03*
X75500Y-48000D03*
X74500Y-48000D03*
G54D15*
X50000Y-51000D03*
G54D16*
X51000Y-51000D03*
X52000Y-51000D03*
X53000Y-51000D03*
X54000Y-51000D03*
X55000Y-51000D03*
X56000Y-51000D03*
X57000Y-51000D03*
X57000Y-48000D03*
X56000Y-48000D03*
X55000Y-48000D03*
X54000Y-48000D03*
X53000Y-48000D03*
X52000Y-48000D03*
X51000Y-48000D03*
X50000Y-48000D03*
G54D15*
X64500Y-51000D03*
G54D16*
X65500Y-51000D03*
X66500Y-51000D03*
X67500Y-51000D03*
X68500Y-51000D03*
X69500Y-51000D03*
X70500Y-51000D03*
X71500Y-51000D03*
X71500Y-48000D03*
X70500Y-48000D03*
X69500Y-48000D03*
X68500Y-48000D03*
X67500Y-48000D03*
X66500Y-48000D03*
X65500Y-48000D03*
X64500Y-48000D03*
G54D11*
X47500Y-51000D03*
X46500Y-51000D03*
X63000Y-48000D03*
X63000Y-49000D03*
X62500Y-50000D03*
X62500Y-51000D03*
X60500Y-50000D03*
X60500Y-51000D03*
X61500Y-50000D03*
X61500Y-51000D03*
X59500Y-50000D03*
X59500Y-51000D03*
X43000Y-45500D03*
X43000Y-44500D03*
X97250Y-47500D03*
X96250Y-46500D03*
X97250Y-45500D03*
G54D17*
X94750Y-42000D03*
X93750Y-43000D03*
X94750Y-44000D03*
G54D11*
X97250Y-44000D03*
X97250Y-43000D03*
X95250Y-48500D03*
X94250Y-48500D03*
G54D14*
X42250Y-47000D03*
X43250Y-47000D03*
X40750Y-42650D03*
X40750Y-43650D03*
G54D18*
X66500Y-72221D03*
X66500Y-58835D03*
X66500Y-45450D03*
X49950Y-72621D03*
X66000Y-73671D03*
X66000Y-70871D03*
X66000Y-57485D03*
X66000Y-60285D03*
X49950Y-59235D03*
X49950Y-45850D03*
X66000Y-46900D03*
X66000Y-44100D03*
X67000Y-73671D03*
X67150Y-70521D03*
X67150Y-57135D03*
X67000Y-60285D03*
X67000Y-46900D03*
X67150Y-43750D03*
X90400Y-73671D03*
X90400Y-60285D03*
X90400Y-46900D03*
X90000Y-73371D03*
X90000Y-59985D03*
X90000Y-46600D03*
X91500Y-73971D03*
X91500Y-60585D03*
X91500Y-47200D03*
X91150Y-73671D03*
X91150Y-60285D03*
X91150Y-46900D03*
X90750Y-73371D03*
X90750Y-59985D03*
X90750Y-46600D03*
X70000Y-73671D03*
X70000Y-70171D03*
X70000Y-56785D03*
X70000Y-60285D03*
X70000Y-46900D03*
X70000Y-43400D03*
X61500Y-72471D03*
X61500Y-59085D03*
X61500Y-45700D03*
X88900Y-73671D03*
X88900Y-60285D03*
X88900Y-46900D03*
X89300Y-73371D03*
X89300Y-59985D03*
X89300Y-46600D03*
X89650Y-73671D03*
X89650Y-60285D03*
X89650Y-46900D03*
X58500Y-69421D03*
X63500Y-69421D03*
X68500Y-69421D03*
X73500Y-69421D03*
X78500Y-69421D03*
X83500Y-71471D03*
X83500Y-58085D03*
X78500Y-56035D03*
X73500Y-56035D03*
X68500Y-56035D03*
X63500Y-56035D03*
X58500Y-56035D03*
X58500Y-42650D03*
X63500Y-42650D03*
X68500Y-42650D03*
X73500Y-42650D03*
X78500Y-42650D03*
X83500Y-44700D03*
X71500Y-71971D03*
X71500Y-58585D03*
X71500Y-45200D03*
X50350Y-68421D03*
X50350Y-55035D03*
X50350Y-41650D03*
X50250Y-69771D03*
X50250Y-56385D03*
X50250Y-43000D03*
X54900Y-69771D03*
X59500Y-69071D03*
X82000Y-73671D03*
X79500Y-69071D03*
X74500Y-69071D03*
X69500Y-69071D03*
X64500Y-69071D03*
X64500Y-55685D03*
X69500Y-55685D03*
X74500Y-55685D03*
X79500Y-55685D03*
X82000Y-60285D03*
X59500Y-55685D03*
X54900Y-56385D03*
X54900Y-43000D03*
X59500Y-42300D03*
X82000Y-46900D03*
X79500Y-42300D03*
X74500Y-42300D03*
X69500Y-42300D03*
X64500Y-42300D03*
X80100Y-69471D03*
X80100Y-56085D03*
X80100Y-42700D03*
X81850Y-68071D03*
X79750Y-68071D03*
X79750Y-54685D03*
X81850Y-54685D03*
X81850Y-41300D03*
X79750Y-41300D03*
X80900Y-69121D03*
X75500Y-68721D03*
X70500Y-68721D03*
X65500Y-68721D03*
X60500Y-68721D03*
X55500Y-68721D03*
X82000Y-69771D03*
X82000Y-56385D03*
X55500Y-55335D03*
X60500Y-55335D03*
X65500Y-55335D03*
X70500Y-55335D03*
X75500Y-55335D03*
X80900Y-55735D03*
X80900Y-42350D03*
X75500Y-41950D03*
X70500Y-41950D03*
X65500Y-41950D03*
X60500Y-41950D03*
X55500Y-41950D03*
X82000Y-43000D03*
X81300Y-68571D03*
X77500Y-68071D03*
X72500Y-68071D03*
X67500Y-68071D03*
X62500Y-68071D03*
X57500Y-68071D03*
X52950Y-69271D03*
X52950Y-55885D03*
X57500Y-54685D03*
X62500Y-54685D03*
X67500Y-54685D03*
X72500Y-54685D03*
X77500Y-54685D03*
X81300Y-55185D03*
X81300Y-41800D03*
X77500Y-41300D03*
X72500Y-41300D03*
X67500Y-41300D03*
X62500Y-41300D03*
X57500Y-41300D03*
X52950Y-42500D03*
G54D19*
X43000Y-71271D02*
X44421Y-71271D01*
G54D20*
X96250Y-73271D02*
X96250Y-69771D01*
X97250Y-69771D02*
X96250Y-69771D01*
X96250Y-69771D02*
X95750Y-69771D01*
X95750Y-69771D02*
X94750Y-68771D01*
X94250Y-75271D02*
X94250Y-77271D01*
X94250Y-77271D02*
X94000Y-77521D01*
X94250Y-75271D02*
X94250Y-73271D01*
X96250Y-73271D02*
X94250Y-73271D01*
X94250Y-73271D02*
X93250Y-73271D01*
X93250Y-73271D02*
X92750Y-72771D01*
X93250Y-59885D02*
X92750Y-59385D01*
X94250Y-59885D02*
X93250Y-59885D01*
X96250Y-59885D02*
X94250Y-59885D01*
X94250Y-61885D02*
X94250Y-59885D01*
X94250Y-63885D02*
X94000Y-64135D01*
X94250Y-61885D02*
X94250Y-63885D01*
X95750Y-56385D02*
X94750Y-55385D01*
X96250Y-56385D02*
X95750Y-56385D01*
X97250Y-56385D02*
X96250Y-56385D01*
X96250Y-59885D02*
X96250Y-56385D01*
G54D19*
X43000Y-57885D02*
X44421Y-57885D01*
X43000Y-44500D02*
X44421Y-44500D01*
G54D20*
X96250Y-46500D02*
X96250Y-43000D01*
X97250Y-43000D02*
X96250Y-43000D01*
X96250Y-43000D02*
X95750Y-43000D01*
X95750Y-43000D02*
X94750Y-42000D01*
X94250Y-48500D02*
X94250Y-50500D01*
X94250Y-50500D02*
X94000Y-50750D01*
X94250Y-48500D02*
X94250Y-46500D01*
X96250Y-46500D02*
X94250Y-46500D01*
X94250Y-46500D02*
X93250Y-46500D01*
X93250Y-46500D02*
X92750Y-46000D01*
G54D21*
X75000Y-73421D02*
X75000Y-73421D01*
X66500Y-72221D02*
X66600Y-72321D01*
X66600Y-72321D02*
X74200Y-72321D01*
X74200Y-72321D02*
X75000Y-73121D01*
X75000Y-73121D02*
X75000Y-73421D01*
X77150Y-74771D02*
X77500Y-74771D01*
X76450Y-74071D02*
X77150Y-74771D01*
X75650Y-74071D02*
X76450Y-74071D01*
X75000Y-73421D02*
X75650Y-74071D01*
X75000Y-60035D02*
X75650Y-60685D01*
X75650Y-60685D02*
X76450Y-60685D01*
X76450Y-60685D02*
X77150Y-61385D01*
X77150Y-61385D02*
X77500Y-61385D01*
X75000Y-59735D02*
X75000Y-60035D01*
X74200Y-58935D02*
X75000Y-59735D01*
X66600Y-58935D02*
X74200Y-58935D01*
X66500Y-58835D02*
X66600Y-58935D01*
X75000Y-60035D02*
X75000Y-60035D01*
X75000Y-46650D02*
X75000Y-46650D01*
X66500Y-45450D02*
X66600Y-45550D01*
X66600Y-45550D02*
X74200Y-45550D01*
X74200Y-45550D02*
X75000Y-46350D01*
X75000Y-46350D02*
X75000Y-46650D01*
X77150Y-48000D02*
X77500Y-48000D01*
X76450Y-47300D02*
X77150Y-48000D01*
X75650Y-47300D02*
X76450Y-47300D01*
X75000Y-46650D02*
X75650Y-47300D01*
X49500Y-70271D02*
X49000Y-69771D01*
X46750Y-68271D02*
X45500Y-68271D01*
X48250Y-69771D02*
X46750Y-68271D01*
X49000Y-69771D02*
X48250Y-69771D01*
X49000Y-56385D02*
X48250Y-56385D01*
X48250Y-56385D02*
X46750Y-54885D01*
X46750Y-54885D02*
X45500Y-54885D01*
X49500Y-56885D02*
X49000Y-56385D01*
X49500Y-43500D02*
X49000Y-43000D01*
X46750Y-41500D02*
X45500Y-41500D01*
X48250Y-43000D02*
X46750Y-41500D01*
X49000Y-43000D02*
X48250Y-43000D01*
X44350Y-73771D02*
X43550Y-72971D01*
X44350Y-73771D02*
X46550Y-73771D01*
X46550Y-73771D02*
X47050Y-74271D01*
X48500Y-74271D02*
X47050Y-74271D01*
X41200Y-72971D02*
X40750Y-73421D01*
X43550Y-72971D02*
X41200Y-72971D01*
X43550Y-59585D02*
X41200Y-59585D01*
X41200Y-59585D02*
X40750Y-60035D01*
X48500Y-60885D02*
X47050Y-60885D01*
X46550Y-60385D02*
X47050Y-60885D01*
X44350Y-60385D02*
X46550Y-60385D01*
X44350Y-60385D02*
X43550Y-59585D01*
X44350Y-47000D02*
X43550Y-46200D01*
X44350Y-47000D02*
X46550Y-47000D01*
X46550Y-47000D02*
X47050Y-47500D01*
X48500Y-47500D02*
X47050Y-47500D01*
X41200Y-46200D02*
X40750Y-46650D01*
X43550Y-46200D02*
X41200Y-46200D01*
X91750Y-71771D02*
X89950Y-71771D01*
X89950Y-71771D02*
X89000Y-72721D01*
X89000Y-72721D02*
X88000Y-72721D01*
X88000Y-72721D02*
X87750Y-72471D01*
X87750Y-72471D02*
X81700Y-72471D01*
X81700Y-72471D02*
X80100Y-70871D01*
X80100Y-70871D02*
X66000Y-70871D01*
X49950Y-72621D02*
X55050Y-72621D01*
X66000Y-70871D02*
X56800Y-70871D01*
X56800Y-70871D02*
X55050Y-72621D01*
X66000Y-74271D02*
X65500Y-74771D01*
X66000Y-73671D02*
X66000Y-74271D01*
X66000Y-60285D02*
X66000Y-60885D01*
X66000Y-60885D02*
X65500Y-61385D01*
X56800Y-57485D02*
X55050Y-59235D01*
X66000Y-57485D02*
X56800Y-57485D01*
X49950Y-59235D02*
X55050Y-59235D01*
X80100Y-57485D02*
X66000Y-57485D01*
X81700Y-59085D02*
X80100Y-57485D01*
X87750Y-59085D02*
X81700Y-59085D01*
X88000Y-59335D02*
X87750Y-59085D01*
X89000Y-59335D02*
X88000Y-59335D01*
X89950Y-58385D02*
X89000Y-59335D01*
X91750Y-58385D02*
X89950Y-58385D01*
X91750Y-45000D02*
X89950Y-45000D01*
X89950Y-45000D02*
X89000Y-45950D01*
X89000Y-45950D02*
X88000Y-45950D01*
X88000Y-45950D02*
X87750Y-45700D01*
X87750Y-45700D02*
X81700Y-45700D01*
X81700Y-45700D02*
X80100Y-44100D01*
X80100Y-44100D02*
X66000Y-44100D01*
X49950Y-45850D02*
X55050Y-45850D01*
X66000Y-44100D02*
X56800Y-44100D01*
X56800Y-44100D02*
X55050Y-45850D01*
X66000Y-47500D02*
X65500Y-48000D01*
X66000Y-46900D02*
X66000Y-47500D01*
X52250Y-71771D02*
X46000Y-71771D01*
X46000Y-71771D02*
X45500Y-71271D01*
X46000Y-58385D02*
X45500Y-57885D01*
X52250Y-58385D02*
X46000Y-58385D01*
X52250Y-45000D02*
X46000Y-45000D01*
X46000Y-45000D02*
X45500Y-44500D01*
X49500Y-71271D02*
X49000Y-70771D01*
X46000Y-70771D02*
X45500Y-70271D01*
X49000Y-70771D02*
X46000Y-70771D01*
X49000Y-57385D02*
X46000Y-57385D01*
X46000Y-57385D02*
X45500Y-56885D01*
X49500Y-57885D02*
X49000Y-57385D01*
X49500Y-44500D02*
X49000Y-44000D01*
X46000Y-44000D02*
X45500Y-43500D01*
X49000Y-44000D02*
X46000Y-44000D01*
X60850Y-72571D02*
X56550Y-72571D01*
X74950Y-75221D02*
X79700Y-75221D01*
X79700Y-75221D02*
X79950Y-74971D01*
X79950Y-74971D02*
X79950Y-74571D01*
X79950Y-74571D02*
X79000Y-73621D01*
X79000Y-73621D02*
X79000Y-73121D01*
X79000Y-73121D02*
X77500Y-71621D01*
X77500Y-71621D02*
X71650Y-71621D01*
X71650Y-71621D02*
X71650Y-71621D01*
X71650Y-71621D02*
X71350Y-71621D01*
X71350Y-71621D02*
X71100Y-71871D01*
X71100Y-71871D02*
X66650Y-71871D01*
X66650Y-71871D02*
X66650Y-71871D01*
X66650Y-71871D02*
X66350Y-71871D01*
X66350Y-71871D02*
X66100Y-72121D01*
X66100Y-72121D02*
X61650Y-72121D01*
X61650Y-72121D02*
X61650Y-72121D01*
X61650Y-72121D02*
X61300Y-72121D01*
X61300Y-72121D02*
X60850Y-72571D01*
X74500Y-74771D02*
X74950Y-75221D01*
X51950Y-73721D02*
X51500Y-73271D01*
X55700Y-73721D02*
X51950Y-73721D01*
X56000Y-73421D02*
X55700Y-73721D01*
X56000Y-73121D02*
X56000Y-73421D01*
X56550Y-72571D02*
X56000Y-73121D01*
X56550Y-59185D02*
X56000Y-59735D01*
X56000Y-59735D02*
X56000Y-60035D01*
X56000Y-60035D02*
X55700Y-60335D01*
X55700Y-60335D02*
X51950Y-60335D01*
X51950Y-60335D02*
X51500Y-59885D01*
X74500Y-61385D02*
X74950Y-61835D01*
X61300Y-58735D02*
X60850Y-59185D01*
X61650Y-58735D02*
X61300Y-58735D01*
X61650Y-58735D02*
X61650Y-58735D01*
X66100Y-58735D02*
X61650Y-58735D01*
X66350Y-58485D02*
X66100Y-58735D01*
X66650Y-58485D02*
X66350Y-58485D01*
X66650Y-58485D02*
X66650Y-58485D01*
X71100Y-58485D02*
X66650Y-58485D01*
X71350Y-58235D02*
X71100Y-58485D01*
X71650Y-58235D02*
X71350Y-58235D01*
X71650Y-58235D02*
X71650Y-58235D01*
X77500Y-58235D02*
X71650Y-58235D01*
X79000Y-59735D02*
X77500Y-58235D01*
X79000Y-60235D02*
X79000Y-59735D01*
X79950Y-61185D02*
X79000Y-60235D01*
X79950Y-61585D02*
X79950Y-61185D01*
X79700Y-61835D02*
X79950Y-61585D01*
X74950Y-61835D02*
X79700Y-61835D01*
X60850Y-59185D02*
X56550Y-59185D01*
X60850Y-45800D02*
X56550Y-45800D01*
X74950Y-48450D02*
X79700Y-48450D01*
X79700Y-48450D02*
X79950Y-48200D01*
X79950Y-48200D02*
X79950Y-47800D01*
X79950Y-47800D02*
X79000Y-46850D01*
X79000Y-46850D02*
X79000Y-46350D01*
X79000Y-46350D02*
X77500Y-44850D01*
X77500Y-44850D02*
X71650Y-44850D01*
X71650Y-44850D02*
X71650Y-44850D01*
X71650Y-44850D02*
X71350Y-44850D01*
X71350Y-44850D02*
X71100Y-45100D01*
X71100Y-45100D02*
X66650Y-45100D01*
X66650Y-45100D02*
X66650Y-45100D01*
X66650Y-45100D02*
X66350Y-45100D01*
X66350Y-45100D02*
X66100Y-45350D01*
X66100Y-45350D02*
X61650Y-45350D01*
X61650Y-45350D02*
X61650Y-45350D01*
X61650Y-45350D02*
X61300Y-45350D01*
X61300Y-45350D02*
X60850Y-45800D01*
X74500Y-48000D02*
X74950Y-48450D01*
X51950Y-46950D02*
X51500Y-46500D01*
X55700Y-46950D02*
X51950Y-46950D01*
X56000Y-46650D02*
X55700Y-46950D01*
X56000Y-46350D02*
X56000Y-46650D01*
X56550Y-45800D02*
X56000Y-46350D01*
X90100Y-71271D02*
X92250Y-71271D01*
X92250Y-71271D02*
X92750Y-70771D01*
X90100Y-71271D02*
X88900Y-72471D01*
X88900Y-72471D02*
X88100Y-72471D01*
X88100Y-72471D02*
X87850Y-72221D01*
X87850Y-72221D02*
X81800Y-72221D01*
X81800Y-72221D02*
X80100Y-70521D01*
X67150Y-70521D02*
X80100Y-70521D01*
X67150Y-70521D02*
X56150Y-70521D01*
X54400Y-72271D02*
X48500Y-72271D01*
X56150Y-70521D02*
X54400Y-72271D01*
X67000Y-74271D02*
X66500Y-74771D01*
X67000Y-73671D02*
X67000Y-74271D01*
X67000Y-60285D02*
X67000Y-60885D01*
X67000Y-60885D02*
X66500Y-61385D01*
X56150Y-57135D02*
X54400Y-58885D01*
X54400Y-58885D02*
X48500Y-58885D01*
X67150Y-57135D02*
X56150Y-57135D01*
X67150Y-57135D02*
X80100Y-57135D01*
X81800Y-58835D02*
X80100Y-57135D01*
X87850Y-58835D02*
X81800Y-58835D01*
X88100Y-59085D02*
X87850Y-58835D01*
X88900Y-59085D02*
X88100Y-59085D01*
X90100Y-57885D02*
X88900Y-59085D01*
X92250Y-57885D02*
X92750Y-57385D01*
X90100Y-57885D02*
X92250Y-57885D01*
X90100Y-44500D02*
X92250Y-44500D01*
X92250Y-44500D02*
X92750Y-44000D01*
X90100Y-44500D02*
X88900Y-45700D01*
X88900Y-45700D02*
X88100Y-45700D01*
X88100Y-45700D02*
X87850Y-45450D01*
X87850Y-45450D02*
X81800Y-45450D01*
X81800Y-45450D02*
X80100Y-43750D01*
X67150Y-43750D02*
X80100Y-43750D01*
X67150Y-43750D02*
X56150Y-43750D01*
X54400Y-45500D02*
X48500Y-45500D01*
X56150Y-43750D02*
X54400Y-45500D01*
X67000Y-47500D02*
X66500Y-48000D01*
X67000Y-46900D02*
X67000Y-47500D01*
X42800Y-72721D02*
X43950Y-72721D01*
X42800Y-72721D02*
X42500Y-72421D01*
X40750Y-72421D02*
X42500Y-72421D01*
X46800Y-73721D02*
X47400Y-73721D01*
X45850Y-72771D02*
X46800Y-73721D01*
X44000Y-72771D02*
X45850Y-72771D01*
X43950Y-72721D02*
X44000Y-72771D01*
X57000Y-74771D02*
X56550Y-74321D01*
X48300Y-72821D02*
X47400Y-73721D01*
X48700Y-72821D02*
X48300Y-72821D01*
X49050Y-73171D02*
X48700Y-72821D01*
X49050Y-73471D02*
X49050Y-73171D01*
X49900Y-74321D02*
X49050Y-73471D01*
X56550Y-74321D02*
X49900Y-74321D01*
X56550Y-60935D02*
X49900Y-60935D01*
X49900Y-60935D02*
X49050Y-60085D01*
X49050Y-60085D02*
X49050Y-59785D01*
X49050Y-59785D02*
X48700Y-59435D01*
X48700Y-59435D02*
X48300Y-59435D01*
X48300Y-59435D02*
X47400Y-60335D01*
X57000Y-61385D02*
X56550Y-60935D01*
X43950Y-59335D02*
X44000Y-59385D01*
X44000Y-59385D02*
X45850Y-59385D01*
X45850Y-59385D02*
X46800Y-60335D01*
X46800Y-60335D02*
X47400Y-60335D01*
X40750Y-59035D02*
X42500Y-59035D01*
X42800Y-59335D02*
X42500Y-59035D01*
X42800Y-59335D02*
X43950Y-59335D01*
X42800Y-45950D02*
X43950Y-45950D01*
X42800Y-45950D02*
X42500Y-45650D01*
X40750Y-45650D02*
X42500Y-45650D01*
X46800Y-46950D02*
X47400Y-46950D01*
X45850Y-46000D02*
X46800Y-46950D01*
X44000Y-46000D02*
X45850Y-46000D01*
X43950Y-45950D02*
X44000Y-46000D01*
X57000Y-48000D02*
X56550Y-47550D01*
X48300Y-46050D02*
X47400Y-46950D01*
X48700Y-46050D02*
X48300Y-46050D01*
X49050Y-46400D02*
X48700Y-46050D01*
X49050Y-46700D02*
X49050Y-46400D01*
X49900Y-47550D02*
X49050Y-46700D01*
X56550Y-47550D02*
X49900Y-47550D01*
X40750Y-74421D02*
X40250Y-73921D01*
X40250Y-71921D02*
X40750Y-71421D01*
X40250Y-73921D02*
X40250Y-71921D01*
X45500Y-75271D02*
X41600Y-75271D01*
X41600Y-75271D02*
X40750Y-74421D01*
X41600Y-61885D02*
X40750Y-61035D01*
X45500Y-61885D02*
X41600Y-61885D01*
X40250Y-60535D02*
X40250Y-58535D01*
X40250Y-58535D02*
X40750Y-58035D01*
X40750Y-61035D02*
X40250Y-60535D01*
X40750Y-47650D02*
X40250Y-47150D01*
X40250Y-45150D02*
X40750Y-44650D01*
X40250Y-47150D02*
X40250Y-45150D01*
X45500Y-48500D02*
X41600Y-48500D01*
X41600Y-48500D02*
X40750Y-47650D01*
X77500Y-77771D02*
X76300Y-76571D01*
X72300Y-76571D02*
X70500Y-74771D01*
X76300Y-76571D02*
X72300Y-76571D01*
X76300Y-63185D02*
X72300Y-63185D01*
X72300Y-63185D02*
X70500Y-61385D01*
X77500Y-64385D02*
X76300Y-63185D01*
X77500Y-51000D02*
X76300Y-49800D01*
X72300Y-49800D02*
X70500Y-48000D01*
X76300Y-49800D02*
X72300Y-49800D01*
X76500Y-77771D02*
X75550Y-76821D01*
X65450Y-76821D02*
X64500Y-77771D01*
X75550Y-76821D02*
X65450Y-76821D01*
X75550Y-63435D02*
X65450Y-63435D01*
X65450Y-63435D02*
X64500Y-64385D01*
X76500Y-64385D02*
X75550Y-63435D01*
X76500Y-51000D02*
X75550Y-50050D01*
X65450Y-50050D02*
X64500Y-51000D01*
X75550Y-50050D02*
X65450Y-50050D01*
X75500Y-77771D02*
X74800Y-77071D01*
X69200Y-77071D02*
X68500Y-77771D01*
X74800Y-77071D02*
X69200Y-77071D01*
X74800Y-63685D02*
X69200Y-63685D01*
X69200Y-63685D02*
X68500Y-64385D01*
X75500Y-64385D02*
X74800Y-63685D01*
X75500Y-51000D02*
X74800Y-50300D01*
X69200Y-50300D02*
X68500Y-51000D01*
X74800Y-50300D02*
X69200Y-50300D01*
X74500Y-77771D02*
X74050Y-77321D01*
X69950Y-77321D02*
X69500Y-77771D01*
X74050Y-77321D02*
X69950Y-77321D01*
X74050Y-63935D02*
X69950Y-63935D01*
X69950Y-63935D02*
X69500Y-64385D01*
X74500Y-64385D02*
X74050Y-63935D01*
X74500Y-51000D02*
X74050Y-50550D01*
X69950Y-50550D02*
X69500Y-51000D01*
X74050Y-50550D02*
X69950Y-50550D01*
X45500Y-73271D02*
X44578Y-73271D01*
X45500Y-59885D02*
X44578Y-59885D01*
X45500Y-46500D02*
X44578Y-46500D01*
X89500Y-74921D02*
X89500Y-75271D01*
X90400Y-74021D02*
X89500Y-74921D01*
X90400Y-73671D02*
X90400Y-74021D01*
X89500Y-75271D02*
X89500Y-75071D01*
X89500Y-75271D02*
X89500Y-75771D01*
X89500Y-61885D02*
X89500Y-62385D01*
X89500Y-61885D02*
X89500Y-61685D01*
X90400Y-60285D02*
X90400Y-60635D01*
X90400Y-60635D02*
X89500Y-61535D01*
X89500Y-61535D02*
X89500Y-61885D01*
X89500Y-48150D02*
X89500Y-48500D01*
X90400Y-47250D02*
X89500Y-48150D01*
X90400Y-46900D02*
X90400Y-47250D01*
X89500Y-48500D02*
X89500Y-48300D01*
X89500Y-48500D02*
X89500Y-49000D01*
X73900Y-74321D02*
X74700Y-74321D01*
X73900Y-74321D02*
X73000Y-73421D01*
X73000Y-73421D02*
X73000Y-73121D01*
X73000Y-73121D02*
X72700Y-72821D01*
X72700Y-72821D02*
X56950Y-72821D01*
X56500Y-73271D02*
X56950Y-72821D01*
X75150Y-74771D02*
X75500Y-74771D01*
X74700Y-74321D02*
X75150Y-74771D01*
X74700Y-60935D02*
X75150Y-61385D01*
X75150Y-61385D02*
X75500Y-61385D01*
X56500Y-59885D02*
X56950Y-59435D01*
X72700Y-59435D02*
X56950Y-59435D01*
X73000Y-59735D02*
X72700Y-59435D01*
X73000Y-60035D02*
X73000Y-59735D01*
X73900Y-60935D02*
X73000Y-60035D01*
X73900Y-60935D02*
X74700Y-60935D01*
X73900Y-47550D02*
X74700Y-47550D01*
X73900Y-47550D02*
X73000Y-46650D01*
X73000Y-46650D02*
X73000Y-46350D01*
X73000Y-46350D02*
X72700Y-46050D01*
X72700Y-46050D02*
X56950Y-46050D01*
X56500Y-46500D02*
X56950Y-46050D01*
X75150Y-48000D02*
X75500Y-48000D01*
X74700Y-47550D02*
X75150Y-48000D01*
X88500Y-75271D02*
X88800Y-75271D01*
X90000Y-74071D02*
X88800Y-75271D01*
X90000Y-73371D02*
X90000Y-74071D01*
X88500Y-75271D02*
X88500Y-75771D01*
X88500Y-61885D02*
X88500Y-62385D01*
X90000Y-59985D02*
X90000Y-60685D01*
X90000Y-60685D02*
X88800Y-61885D01*
X88500Y-61885D02*
X88800Y-61885D01*
X88500Y-48500D02*
X88800Y-48500D01*
X90000Y-47300D02*
X88800Y-48500D01*
X90000Y-46600D02*
X90000Y-47300D01*
X88500Y-48500D02*
X88500Y-49000D01*
X91500Y-73971D02*
X91500Y-74621D01*
X91500Y-74621D02*
X92150Y-75271D01*
X92150Y-75271D02*
X92500Y-75271D01*
X92500Y-75271D02*
X92500Y-75771D01*
X92500Y-61885D02*
X92500Y-62385D01*
X92150Y-61885D02*
X92500Y-61885D01*
X91500Y-61235D02*
X92150Y-61885D01*
X91500Y-60585D02*
X91500Y-61235D01*
X91500Y-47200D02*
X91500Y-47850D01*
X91500Y-47850D02*
X92150Y-48500D01*
X92150Y-48500D02*
X92500Y-48500D01*
X92500Y-48500D02*
X92500Y-49000D01*
X91150Y-74921D02*
X91500Y-75271D01*
X91150Y-73671D02*
X91150Y-74921D01*
X91500Y-75271D02*
X91500Y-75771D01*
X91500Y-61885D02*
X91500Y-62385D01*
X91150Y-60285D02*
X91150Y-61535D01*
X91150Y-61535D02*
X91500Y-61885D01*
X91150Y-48150D02*
X91500Y-48500D01*
X91150Y-46900D02*
X91150Y-48150D01*
X91500Y-48500D02*
X91500Y-49000D01*
X90750Y-75021D02*
X90500Y-75271D01*
X90750Y-73371D02*
X90750Y-75021D01*
X90500Y-75271D02*
X90500Y-75771D01*
X90500Y-61885D02*
X90500Y-62385D01*
X90750Y-59985D02*
X90750Y-61635D01*
X90750Y-61635D02*
X90500Y-61885D01*
X90750Y-48250D02*
X90500Y-48500D01*
X90750Y-46600D02*
X90750Y-48250D01*
X90500Y-48500D02*
X90500Y-49000D01*
X91750Y-70771D02*
X90250Y-70771D01*
X70000Y-73671D02*
X70000Y-74271D01*
X70000Y-74271D02*
X69500Y-74771D01*
X80100Y-70171D02*
X70000Y-70171D01*
X81900Y-71971D02*
X80100Y-70171D01*
X87949Y-71971D02*
X81900Y-71971D01*
X88199Y-72221D02*
X87949Y-71971D01*
X88800Y-72221D02*
X88199Y-72221D01*
X90250Y-70771D02*
X88800Y-72221D01*
X69500Y-74771D02*
X69050Y-75221D01*
X67950Y-75221D02*
X67500Y-74771D01*
X69050Y-75221D02*
X67950Y-75221D01*
X69050Y-61835D02*
X67950Y-61835D01*
X67950Y-61835D02*
X67500Y-61385D01*
X69500Y-61385D02*
X69050Y-61835D01*
X90250Y-57385D02*
X88800Y-58835D01*
X88800Y-58835D02*
X88199Y-58835D01*
X88199Y-58835D02*
X87949Y-58585D01*
X87949Y-58585D02*
X81900Y-58585D01*
X81900Y-58585D02*
X80100Y-56785D01*
X80100Y-56785D02*
X70000Y-56785D01*
X70000Y-60885D02*
X69500Y-61385D01*
X70000Y-60285D02*
X70000Y-60885D01*
X91750Y-57385D02*
X90250Y-57385D01*
X91750Y-44000D02*
X90250Y-44000D01*
X70000Y-46900D02*
X70000Y-47500D01*
X70000Y-47500D02*
X69500Y-48000D01*
X80100Y-43400D02*
X70000Y-43400D01*
X81900Y-45200D02*
X80100Y-43400D01*
X87949Y-45200D02*
X81900Y-45200D01*
X88199Y-45450D02*
X87949Y-45200D01*
X88800Y-45450D02*
X88199Y-45450D01*
X90250Y-44000D02*
X88800Y-45450D01*
X69500Y-48000D02*
X69050Y-48450D01*
X67950Y-48450D02*
X67500Y-48000D01*
X69050Y-48450D02*
X67950Y-48450D01*
X74650Y-74071D02*
X74749Y-74071D01*
X76150Y-74771D02*
X76500Y-74771D01*
X75700Y-74321D02*
X76150Y-74771D01*
X75000Y-74321D02*
X75700Y-74321D01*
X74749Y-74071D02*
X75000Y-74321D01*
X74000Y-73421D02*
X74650Y-74071D01*
X74650Y-74071D02*
X74650Y-74071D01*
X74000Y-73121D02*
X74000Y-73421D01*
X73450Y-72571D02*
X74000Y-73121D01*
X61600Y-72571D02*
X73450Y-72571D01*
X61500Y-72471D02*
X61600Y-72571D01*
X61500Y-59085D02*
X61600Y-59185D01*
X61600Y-59185D02*
X73450Y-59185D01*
X73450Y-59185D02*
X74000Y-59735D01*
X74000Y-59735D02*
X74000Y-60035D01*
X74650Y-60685D02*
X74650Y-60685D01*
X74000Y-60035D02*
X74650Y-60685D01*
X74749Y-60685D02*
X75000Y-60935D01*
X75000Y-60935D02*
X75700Y-60935D01*
X75700Y-60935D02*
X76150Y-61385D01*
X76150Y-61385D02*
X76500Y-61385D01*
X74650Y-60685D02*
X74749Y-60685D01*
X74650Y-47299D02*
X74749Y-47299D01*
X76150Y-48000D02*
X76500Y-48000D01*
X75700Y-47550D02*
X76150Y-48000D01*
X75000Y-47550D02*
X75700Y-47550D01*
X74749Y-47299D02*
X75000Y-47550D01*
X74000Y-46649D02*
X74650Y-47299D01*
X74650Y-47299D02*
X74650Y-47300D01*
X74000Y-46350D02*
X74000Y-46649D01*
X73450Y-45800D02*
X74000Y-46350D01*
X61600Y-45800D02*
X73450Y-45800D01*
X61500Y-45700D02*
X61600Y-45800D01*
X85500Y-75271D02*
X86450Y-74321D01*
X88250Y-74321D02*
X88900Y-73671D01*
X86450Y-74321D02*
X88250Y-74321D01*
X85500Y-75271D02*
X85500Y-75071D01*
X85500Y-75271D02*
X85500Y-75771D01*
X85500Y-61885D02*
X85500Y-62385D01*
X85500Y-61885D02*
X85500Y-61685D01*
X86450Y-60935D02*
X88250Y-60935D01*
X88250Y-60935D02*
X88900Y-60285D01*
X85500Y-61885D02*
X86450Y-60935D01*
X85500Y-48500D02*
X86450Y-47550D01*
X88250Y-47550D02*
X88900Y-46900D01*
X86450Y-47550D02*
X88250Y-47550D01*
X85500Y-48500D02*
X85500Y-48300D01*
X85500Y-48500D02*
X85500Y-49000D01*
X88500Y-74571D02*
X87200Y-74571D01*
X86500Y-75271D02*
X87200Y-74571D01*
X89300Y-73771D02*
X88500Y-74571D01*
X89300Y-73371D02*
X89300Y-73771D01*
X86500Y-75271D02*
X86500Y-75771D01*
X86500Y-61885D02*
X86500Y-62385D01*
X89300Y-59985D02*
X89300Y-60385D01*
X89300Y-60385D02*
X88500Y-61185D01*
X86500Y-61885D02*
X87200Y-61185D01*
X88500Y-61185D02*
X87200Y-61185D01*
X88500Y-47800D02*
X87200Y-47800D01*
X86500Y-48500D02*
X87200Y-47800D01*
X89300Y-47000D02*
X88500Y-47800D01*
X89300Y-46600D02*
X89300Y-47000D01*
X86500Y-48500D02*
X86500Y-49000D01*
X87950Y-74821D02*
X88750Y-74821D01*
X87950Y-74821D02*
X87500Y-75271D01*
X89650Y-73921D02*
X88750Y-74821D01*
X89650Y-73671D02*
X89650Y-73921D01*
X87500Y-75271D02*
X87500Y-75771D01*
X87500Y-61885D02*
X87500Y-62385D01*
X89650Y-60285D02*
X89650Y-60535D01*
X89650Y-60535D02*
X88750Y-61435D01*
X87950Y-61435D02*
X87500Y-61885D01*
X87950Y-61435D02*
X88750Y-61435D01*
X87950Y-48050D02*
X88750Y-48050D01*
X87950Y-48050D02*
X87500Y-48500D01*
X89650Y-47150D02*
X88750Y-48050D01*
X89650Y-46900D02*
X89650Y-47150D01*
X87500Y-48500D02*
X87500Y-49000D01*
X89400Y-69271D02*
X92250Y-69271D01*
X88650Y-70021D02*
X87000Y-70021D01*
X86500Y-70521D02*
X87000Y-70021D01*
X89400Y-69271D02*
X88650Y-70021D01*
X92250Y-69271D02*
X92750Y-68771D01*
X80500Y-67271D02*
X80500Y-66821D01*
X75500Y-67271D02*
X75500Y-66821D01*
X70500Y-67271D02*
X70500Y-66821D01*
X65500Y-67271D02*
X65500Y-66821D01*
X60500Y-67271D02*
X60500Y-66821D01*
X55500Y-67271D02*
X55500Y-66821D01*
X50500Y-67271D02*
X50950Y-66821D01*
X50950Y-66821D02*
X55500Y-66821D01*
X85050Y-66821D02*
X85500Y-67271D01*
X80500Y-66821D02*
X85050Y-66821D01*
X75500Y-66821D02*
X80500Y-66821D01*
X70500Y-66821D02*
X75500Y-66821D01*
X65500Y-66821D02*
X70500Y-66821D01*
X60500Y-66821D02*
X65500Y-66821D01*
X55500Y-66821D02*
X60500Y-66821D01*
X55500Y-53435D02*
X60500Y-53435D01*
X60500Y-53435D02*
X65500Y-53435D01*
X65500Y-53435D02*
X70500Y-53435D01*
X70500Y-53435D02*
X75500Y-53435D01*
X75500Y-53435D02*
X80500Y-53435D01*
X80500Y-53435D02*
X85050Y-53435D01*
X85050Y-53435D02*
X85500Y-53885D01*
X50950Y-53435D02*
X55500Y-53435D01*
X50500Y-53885D02*
X50950Y-53435D01*
X55500Y-53885D02*
X55500Y-53435D01*
X60500Y-53885D02*
X60500Y-53435D01*
X65500Y-53885D02*
X65500Y-53435D01*
X70500Y-53885D02*
X70500Y-53435D01*
X75500Y-53885D02*
X75500Y-53435D01*
X80500Y-53885D02*
X80500Y-53435D01*
X92250Y-55885D02*
X92750Y-55385D01*
X89400Y-55885D02*
X88650Y-56635D01*
X86500Y-57135D02*
X87000Y-56635D01*
X88650Y-56635D02*
X87000Y-56635D01*
X89400Y-55885D02*
X92250Y-55885D01*
X89400Y-42500D02*
X92250Y-42500D01*
X88650Y-43250D02*
X87000Y-43250D01*
X86500Y-43750D02*
X87000Y-43250D01*
X89400Y-42500D02*
X88650Y-43250D01*
X92250Y-42500D02*
X92750Y-42000D01*
X80500Y-40500D02*
X80500Y-40050D01*
X75500Y-40500D02*
X75500Y-40050D01*
X70500Y-40500D02*
X70500Y-40050D01*
X65500Y-40500D02*
X65500Y-40050D01*
X60500Y-40500D02*
X60500Y-40050D01*
X55500Y-40500D02*
X55500Y-40050D01*
X50500Y-40500D02*
X50950Y-40050D01*
X50950Y-40050D02*
X55500Y-40050D01*
X85050Y-40050D02*
X85500Y-40500D01*
X80500Y-40050D02*
X85050Y-40050D01*
X75500Y-40050D02*
X80500Y-40050D01*
X70500Y-40050D02*
X75500Y-40050D01*
X65500Y-40050D02*
X70500Y-40050D01*
X60500Y-40050D02*
X65500Y-40050D01*
X55500Y-40050D02*
X60500Y-40050D01*
X85500Y-78271D02*
X83650Y-78271D01*
X73050Y-76321D02*
X81700Y-76321D01*
X81700Y-76321D02*
X83650Y-78271D01*
X73050Y-76321D02*
X71500Y-74771D01*
X92500Y-76771D02*
X92500Y-78271D01*
X91500Y-76771D02*
X91500Y-78271D01*
X90500Y-76771D02*
X90500Y-78271D01*
X89500Y-76771D02*
X89500Y-78271D01*
X88500Y-76771D02*
X88500Y-78271D01*
X87500Y-76771D02*
X87500Y-78271D01*
X86500Y-76771D02*
X86500Y-78271D01*
X85500Y-76771D02*
X85500Y-78271D01*
X90500Y-78271D02*
X91500Y-78271D01*
X91500Y-78271D02*
X92500Y-78271D01*
X88500Y-78271D02*
X89500Y-78271D01*
X89500Y-78271D02*
X90500Y-78271D01*
X85500Y-78271D02*
X86500Y-78271D01*
X86500Y-78271D02*
X87500Y-78271D01*
X87500Y-78271D02*
X88500Y-78271D01*
X87500Y-64885D02*
X88500Y-64885D01*
X86500Y-64885D02*
X87500Y-64885D01*
X85500Y-64885D02*
X86500Y-64885D01*
X89500Y-64885D02*
X90500Y-64885D01*
X88500Y-64885D02*
X89500Y-64885D01*
X91500Y-64885D02*
X92500Y-64885D01*
X90500Y-64885D02*
X91500Y-64885D01*
X85500Y-63385D02*
X85500Y-64885D01*
X86500Y-63385D02*
X86500Y-64885D01*
X87500Y-63385D02*
X87500Y-64885D01*
X88500Y-63385D02*
X88500Y-64885D01*
X89500Y-63385D02*
X89500Y-64885D01*
X90500Y-63385D02*
X90500Y-64885D01*
X91500Y-63385D02*
X91500Y-64885D01*
X92500Y-63385D02*
X92500Y-64885D01*
X73050Y-62935D02*
X71500Y-61385D01*
X81700Y-62935D02*
X83650Y-64885D01*
X73050Y-62935D02*
X81700Y-62935D01*
X85500Y-64885D02*
X83650Y-64885D01*
X85500Y-51500D02*
X83650Y-51500D01*
X73050Y-49550D02*
X81700Y-49550D01*
X81700Y-49550D02*
X83650Y-51500D01*
X73050Y-49550D02*
X71500Y-48000D01*
X92500Y-50000D02*
X92500Y-51500D01*
X91500Y-50000D02*
X91500Y-51500D01*
X90500Y-50000D02*
X90500Y-51500D01*
X89500Y-50000D02*
X89500Y-51500D01*
X88500Y-50000D02*
X88500Y-51500D01*
X87500Y-50000D02*
X87500Y-51500D01*
X86500Y-50000D02*
X86500Y-51500D01*
X85500Y-50000D02*
X85500Y-51500D01*
X90500Y-51500D02*
X91500Y-51500D01*
X91500Y-51500D02*
X92500Y-51500D01*
X88500Y-51500D02*
X89500Y-51500D01*
X89500Y-51500D02*
X90500Y-51500D01*
X85500Y-51500D02*
X86500Y-51500D01*
X86500Y-51500D02*
X87500Y-51500D01*
X87500Y-51500D02*
X88500Y-51500D01*
X89750Y-70271D02*
X92250Y-70271D01*
X92250Y-70271D02*
X92750Y-69771D01*
X54700Y-70471D02*
X55750Y-69421D01*
X78500Y-69421D02*
X79000Y-69921D01*
X55750Y-69421D02*
X58500Y-69421D01*
X58500Y-69421D02*
X63500Y-69421D01*
X63500Y-69421D02*
X68500Y-69421D01*
X68500Y-69421D02*
X73500Y-69421D01*
X73500Y-69421D02*
X78500Y-69421D01*
X78500Y-69421D02*
X78500Y-69421D01*
X79000Y-69921D02*
X80200Y-69921D01*
X80200Y-69921D02*
X82000Y-71721D01*
X82000Y-71721D02*
X83500Y-71721D01*
X89750Y-70271D02*
X89450Y-70571D01*
X88050Y-71721D02*
X86500Y-71721D01*
X88950Y-71071D02*
X89450Y-70571D01*
X88950Y-71721D02*
X88950Y-71071D01*
X88700Y-71971D02*
X88950Y-71721D01*
X88300Y-71971D02*
X88700Y-71971D01*
X88050Y-71721D02*
X88300Y-71971D01*
X83500Y-71471D02*
X83500Y-71721D01*
X86500Y-71721D02*
X86500Y-71521D01*
X83500Y-71721D02*
X86500Y-71721D01*
X54250Y-71771D02*
X54700Y-71321D01*
X54700Y-71321D02*
X54700Y-70471D01*
X54700Y-57935D02*
X54700Y-57085D01*
X54250Y-58385D02*
X54700Y-57935D01*
X83500Y-58335D02*
X86500Y-58335D01*
X86500Y-58335D02*
X86500Y-58135D01*
X83500Y-58085D02*
X83500Y-58335D01*
X88050Y-58335D02*
X88300Y-58585D01*
X88300Y-58585D02*
X88700Y-58585D01*
X88700Y-58585D02*
X88950Y-58335D01*
X88950Y-58335D02*
X88950Y-57685D01*
X88950Y-57685D02*
X89450Y-57185D01*
X88050Y-58335D02*
X86500Y-58335D01*
X89750Y-56885D02*
X89450Y-57185D01*
X82000Y-58335D02*
X83500Y-58335D01*
X80200Y-56535D02*
X82000Y-58335D01*
X79000Y-56535D02*
X80200Y-56535D01*
X78500Y-56035D02*
X78500Y-56035D01*
X73500Y-56035D02*
X78500Y-56035D01*
X68500Y-56035D02*
X73500Y-56035D01*
X63500Y-56035D02*
X68500Y-56035D01*
X58500Y-56035D02*
X63500Y-56035D01*
X55750Y-56035D02*
X58500Y-56035D01*
X78500Y-56035D02*
X79000Y-56535D01*
X54700Y-57085D02*
X55750Y-56035D01*
X92250Y-56885D02*
X92750Y-56385D01*
X89750Y-56885D02*
X92250Y-56885D01*
X89750Y-43500D02*
X92250Y-43500D01*
X92250Y-43500D02*
X92750Y-43000D01*
X54700Y-43700D02*
X55750Y-42650D01*
X78500Y-42650D02*
X79000Y-43150D01*
X55750Y-42650D02*
X58500Y-42650D01*
X58500Y-42650D02*
X63500Y-42650D01*
X63500Y-42650D02*
X68500Y-42650D01*
X68500Y-42650D02*
X73500Y-42650D01*
X73500Y-42650D02*
X78500Y-42650D01*
X78500Y-42650D02*
X78500Y-42650D01*
X79000Y-43150D02*
X80200Y-43150D01*
X80200Y-43150D02*
X82000Y-44950D01*
X82000Y-44950D02*
X83500Y-44950D01*
X89750Y-43500D02*
X89450Y-43800D01*
X88050Y-44950D02*
X86500Y-44950D01*
X88950Y-44300D02*
X89450Y-43800D01*
X88950Y-44950D02*
X88950Y-44300D01*
X88700Y-45200D02*
X88950Y-44950D01*
X88300Y-45200D02*
X88700Y-45200D01*
X88050Y-44950D02*
X88300Y-45200D01*
X83500Y-44700D02*
X83500Y-44950D01*
X86500Y-44950D02*
X86500Y-44750D01*
X83500Y-44950D02*
X86500Y-44950D01*
X54250Y-45000D02*
X54700Y-44550D01*
X54700Y-44550D02*
X54700Y-43700D01*
X77700Y-73971D02*
X78500Y-74771D01*
X76700Y-73971D02*
X77700Y-73971D01*
X76450Y-73721D02*
X76700Y-73971D01*
X76300Y-73721D02*
X76450Y-73721D01*
X76000Y-73421D02*
X76300Y-73721D01*
X76000Y-73121D02*
X76000Y-73421D01*
X74950Y-72071D02*
X76000Y-73121D01*
X71600Y-72071D02*
X74950Y-72071D01*
X71500Y-71971D02*
X71600Y-72071D01*
X71500Y-58585D02*
X71600Y-58685D01*
X71600Y-58685D02*
X74950Y-58685D01*
X74950Y-58685D02*
X76000Y-59735D01*
X76000Y-59735D02*
X76000Y-60035D01*
X76000Y-60035D02*
X76300Y-60335D01*
X76300Y-60335D02*
X76450Y-60335D01*
X76450Y-60335D02*
X76700Y-60585D01*
X76700Y-60585D02*
X77700Y-60585D01*
X77700Y-60585D02*
X78500Y-61385D01*
X77700Y-47200D02*
X78500Y-48000D01*
X76700Y-47200D02*
X77700Y-47200D01*
X76450Y-46950D02*
X76700Y-47200D01*
X76300Y-46950D02*
X76450Y-46950D01*
X76000Y-46650D02*
X76300Y-46950D01*
X76000Y-46350D02*
X76000Y-46650D01*
X74950Y-45300D02*
X76000Y-46350D01*
X71600Y-45300D02*
X74950Y-45300D01*
X71500Y-45200D02*
X71600Y-45300D01*
X45500Y-67271D02*
X47850Y-67271D01*
X49700Y-67771D02*
X50350Y-68421D01*
X48350Y-67771D02*
X49700Y-67771D01*
X47850Y-67271D02*
X48350Y-67771D01*
X47850Y-53885D02*
X48350Y-54385D01*
X48350Y-54385D02*
X49700Y-54385D01*
X49700Y-54385D02*
X50350Y-55035D01*
X45500Y-53885D02*
X47850Y-53885D01*
X45500Y-40500D02*
X47850Y-40500D01*
X49700Y-41000D02*
X50350Y-41650D01*
X48350Y-41000D02*
X49700Y-41000D01*
X47850Y-40500D02*
X48350Y-41000D01*
X52000Y-77771D02*
X48950Y-74721D01*
X48950Y-73721D02*
X48500Y-73271D01*
X48950Y-74721D02*
X48950Y-73721D01*
X48950Y-61335D02*
X48950Y-60335D01*
X48950Y-60335D02*
X48500Y-59885D01*
X52000Y-64385D02*
X48950Y-61335D01*
X52000Y-51000D02*
X48950Y-47950D01*
X48950Y-46950D02*
X48500Y-46500D01*
X48950Y-47950D02*
X48950Y-46950D01*
X76500Y-73271D02*
X76950Y-73721D01*
X78450Y-73721D02*
X79500Y-74771D01*
X76950Y-73721D02*
X78450Y-73721D01*
X76950Y-60335D02*
X78450Y-60335D01*
X78450Y-60335D02*
X79500Y-61385D01*
X76500Y-59885D02*
X76950Y-60335D01*
X76500Y-46500D02*
X76950Y-46950D01*
X78450Y-46950D02*
X79500Y-48000D01*
X76950Y-46950D02*
X78450Y-46950D01*
X52250Y-68771D02*
X49000Y-68771D01*
X49000Y-68771D02*
X48500Y-68271D01*
X49000Y-55385D02*
X48500Y-54885D01*
X52250Y-55385D02*
X49000Y-55385D01*
X52250Y-42000D02*
X49000Y-42000D01*
X49000Y-42000D02*
X48500Y-41500D01*
X52250Y-70771D02*
X51250Y-70771D01*
X51250Y-70771D02*
X50250Y-69771D01*
X51250Y-57385D02*
X50250Y-56385D01*
X52250Y-57385D02*
X51250Y-57385D01*
X52250Y-44000D02*
X51250Y-44000D01*
X51250Y-44000D02*
X50250Y-43000D01*
X45500Y-72271D02*
X46000Y-72271D01*
X46000Y-72271D02*
X47000Y-73271D01*
X44421Y-72271D02*
X43000Y-72271D01*
X45500Y-72271D02*
X44421Y-72271D01*
X45500Y-58885D02*
X44421Y-58885D01*
X44421Y-58885D02*
X43000Y-58885D01*
X46000Y-58885D02*
X47000Y-59885D01*
X45500Y-58885D02*
X46000Y-58885D01*
X45500Y-45500D02*
X46000Y-45500D01*
X46000Y-45500D02*
X47000Y-46500D01*
X44421Y-45500D02*
X43000Y-45500D01*
X45500Y-45500D02*
X44421Y-45500D01*
X80500Y-74771D02*
X81500Y-73771D01*
X81500Y-73771D02*
X81500Y-73271D01*
X81500Y-60385D02*
X81500Y-59885D01*
X80500Y-61385D02*
X81500Y-60385D01*
X80500Y-48000D02*
X81500Y-47000D01*
X81500Y-47000D02*
X81500Y-46500D01*
X54700Y-69971D02*
X54900Y-69771D01*
X54900Y-69771D02*
X55600Y-69071D01*
X59500Y-69071D02*
X55600Y-69071D01*
X64500Y-69071D02*
X59500Y-69071D01*
X69500Y-69071D02*
X64500Y-69071D01*
X74500Y-69071D02*
X69500Y-69071D01*
X79500Y-69071D02*
X74500Y-69071D01*
X79500Y-69071D02*
X80300Y-69071D01*
X80300Y-69071D02*
X81500Y-70271D01*
X81500Y-70271D02*
X82500Y-70271D01*
X91750Y-68771D02*
X88900Y-68771D01*
X86100Y-69771D02*
X83000Y-69771D01*
X86300Y-69971D02*
X86100Y-69771D01*
X86700Y-69971D02*
X86300Y-69971D01*
X87650Y-69021D02*
X86700Y-69971D01*
X88650Y-69021D02*
X87650Y-69021D01*
X83000Y-69771D02*
X82500Y-70271D01*
X88900Y-68771D02*
X88650Y-69021D01*
X84500Y-73271D02*
X84050Y-73721D01*
X82050Y-73721D02*
X82000Y-73671D01*
X84050Y-73721D02*
X82050Y-73721D01*
X54400Y-70271D02*
X54700Y-69971D01*
X51500Y-70271D02*
X54400Y-70271D01*
X51500Y-56885D02*
X54400Y-56885D01*
X54400Y-56885D02*
X54700Y-56585D01*
X84050Y-60335D02*
X82050Y-60335D01*
X82050Y-60335D02*
X82000Y-60285D01*
X84500Y-59885D02*
X84050Y-60335D01*
X88900Y-55385D02*
X88650Y-55635D01*
X83000Y-56385D02*
X82500Y-56885D01*
X88650Y-55635D02*
X87650Y-55635D01*
X87650Y-55635D02*
X86700Y-56585D01*
X86700Y-56585D02*
X86300Y-56585D01*
X86300Y-56585D02*
X86100Y-56385D01*
X86100Y-56385D02*
X83000Y-56385D01*
X91750Y-55385D02*
X88900Y-55385D01*
X81500Y-56885D02*
X82500Y-56885D01*
X80300Y-55685D02*
X81500Y-56885D01*
X79500Y-55685D02*
X80300Y-55685D01*
X79500Y-55685D02*
X74500Y-55685D01*
X74500Y-55685D02*
X69500Y-55685D01*
X69500Y-55685D02*
X64500Y-55685D01*
X64500Y-55685D02*
X59500Y-55685D01*
X59500Y-55685D02*
X55600Y-55685D01*
X54900Y-56385D02*
X55600Y-55685D01*
X54700Y-56585D02*
X54900Y-56385D01*
X54700Y-43200D02*
X54900Y-43000D01*
X54900Y-43000D02*
X55600Y-42300D01*
X59500Y-42300D02*
X55600Y-42300D01*
X64500Y-42300D02*
X59500Y-42300D01*
X69500Y-42300D02*
X64500Y-42300D01*
X74500Y-42300D02*
X69500Y-42300D01*
X79500Y-42300D02*
X74500Y-42300D01*
X79500Y-42300D02*
X80300Y-42300D01*
X80300Y-42300D02*
X81500Y-43500D01*
X81500Y-43500D02*
X82500Y-43500D01*
X91750Y-42000D02*
X88900Y-42000D01*
X86100Y-43000D02*
X83000Y-43000D01*
X86300Y-43200D02*
X86100Y-43000D01*
X86700Y-43200D02*
X86300Y-43200D01*
X87650Y-42250D02*
X86700Y-43200D01*
X88650Y-42250D02*
X87650Y-42250D01*
X83000Y-43000D02*
X82500Y-43500D01*
X88900Y-42000D02*
X88650Y-42250D01*
X84500Y-46500D02*
X84050Y-46950D01*
X82050Y-46950D02*
X82000Y-46900D01*
X84050Y-46950D02*
X82050Y-46950D01*
X54400Y-43500D02*
X54700Y-43200D01*
X51500Y-43500D02*
X54400Y-43500D01*
X80100Y-69471D02*
X81900Y-71271D01*
X82500Y-71271D02*
X81900Y-71271D01*
X91750Y-69771D02*
X89900Y-69771D01*
X89900Y-69771D02*
X88650Y-71021D01*
X83000Y-70771D02*
X82500Y-71271D01*
X84900Y-71021D02*
X88650Y-71021D01*
X84650Y-70771D02*
X84900Y-71021D01*
X83000Y-70771D02*
X84650Y-70771D01*
X83000Y-57385D02*
X84650Y-57385D01*
X84650Y-57385D02*
X84900Y-57635D01*
X84900Y-57635D02*
X88650Y-57635D01*
X83000Y-57385D02*
X82500Y-57885D01*
X89900Y-56385D02*
X88650Y-57635D01*
X91750Y-56385D02*
X89900Y-56385D01*
X82500Y-57885D02*
X81900Y-57885D01*
X80100Y-56085D02*
X81900Y-57885D01*
X80100Y-42700D02*
X81900Y-44500D01*
X82500Y-44500D02*
X81900Y-44500D01*
X91750Y-43000D02*
X89900Y-43000D01*
X89900Y-43000D02*
X88650Y-44250D01*
X83000Y-44000D02*
X82500Y-44500D01*
X84900Y-44250D02*
X88650Y-44250D01*
X84650Y-44000D02*
X84900Y-44250D01*
X83000Y-44000D02*
X84650Y-44000D01*
X88500Y-67271D02*
X92250Y-67271D01*
X92250Y-67271D02*
X92750Y-66771D01*
X79750Y-68071D02*
X81850Y-68071D01*
X79750Y-54685D02*
X81850Y-54685D01*
X92250Y-53885D02*
X92750Y-53385D01*
X88500Y-53885D02*
X92250Y-53885D01*
X88500Y-40500D02*
X92250Y-40500D01*
X92250Y-40500D02*
X92750Y-40000D01*
X79750Y-41300D02*
X81850Y-41300D01*
X92750Y-67771D02*
X92250Y-68271D01*
X88300Y-68021D02*
X86800Y-69521D01*
X88750Y-68021D02*
X88300Y-68021D01*
X86800Y-69521D02*
X86500Y-69521D01*
X89000Y-68271D02*
X88750Y-68021D01*
X92250Y-68271D02*
X89000Y-68271D01*
X80500Y-68721D02*
X75500Y-68721D01*
X80500Y-68721D02*
X80900Y-69121D01*
X75500Y-68721D02*
X70500Y-68721D01*
X70500Y-68721D02*
X65500Y-68721D01*
X65500Y-68721D02*
X60500Y-68721D01*
X60500Y-68721D02*
X55500Y-68721D01*
X55500Y-68721D02*
X55300Y-68721D01*
X55300Y-68721D02*
X54250Y-69771D01*
X80900Y-69121D02*
X81550Y-69771D01*
X81550Y-69771D02*
X82000Y-69771D01*
X85050Y-72821D02*
X80950Y-72821D01*
X85500Y-73271D02*
X85050Y-72821D01*
X80950Y-72821D02*
X80500Y-73271D01*
X80950Y-59435D02*
X80500Y-59885D01*
X85500Y-59885D02*
X85050Y-59435D01*
X85050Y-59435D02*
X80950Y-59435D01*
X81550Y-56385D02*
X82000Y-56385D01*
X80900Y-55735D02*
X81550Y-56385D01*
X55300Y-55335D02*
X54250Y-56385D01*
X55500Y-55335D02*
X55300Y-55335D01*
X60500Y-55335D02*
X55500Y-55335D01*
X65500Y-55335D02*
X60500Y-55335D01*
X70500Y-55335D02*
X65500Y-55335D01*
X75500Y-55335D02*
X70500Y-55335D01*
X80500Y-55335D02*
X80900Y-55735D01*
X80500Y-55335D02*
X75500Y-55335D01*
X92250Y-54885D02*
X89000Y-54885D01*
X89000Y-54885D02*
X88750Y-54635D01*
X86800Y-56135D02*
X86500Y-56135D01*
X88750Y-54635D02*
X88300Y-54635D01*
X88300Y-54635D02*
X86800Y-56135D01*
X92750Y-54385D02*
X92250Y-54885D01*
X92750Y-41000D02*
X92250Y-41500D01*
X88300Y-41250D02*
X86800Y-42750D01*
X88750Y-41250D02*
X88300Y-41250D01*
X86800Y-42750D02*
X86500Y-42750D01*
X89000Y-41500D02*
X88750Y-41250D01*
X92250Y-41500D02*
X89000Y-41500D01*
X80500Y-41950D02*
X75500Y-41950D01*
X80500Y-41950D02*
X80900Y-42350D01*
X75500Y-41950D02*
X70500Y-41950D01*
X70500Y-41950D02*
X65500Y-41950D01*
X65500Y-41950D02*
X60500Y-41950D01*
X60500Y-41950D02*
X55500Y-41950D01*
X55500Y-41950D02*
X55300Y-41950D01*
X55300Y-41950D02*
X54250Y-43000D01*
X80900Y-42350D02*
X81550Y-43000D01*
X81550Y-43000D02*
X82000Y-43000D01*
X85050Y-46050D02*
X80950Y-46050D01*
X85500Y-46500D02*
X85050Y-46050D01*
X80950Y-46050D02*
X80500Y-46500D01*
X82500Y-67721D02*
X82500Y-68271D01*
X82500Y-67271D02*
X82500Y-67721D01*
X77500Y-67271D02*
X77500Y-67721D01*
X72500Y-67271D02*
X72500Y-67721D01*
X67500Y-67271D02*
X67500Y-67721D01*
X62500Y-67271D02*
X62500Y-67721D01*
X57500Y-67271D02*
X57500Y-67721D01*
X52500Y-67271D02*
X52500Y-67721D01*
X51500Y-68271D02*
X52050Y-67721D01*
X87050Y-67721D02*
X87500Y-67271D01*
X52050Y-67721D02*
X52500Y-67721D01*
X52500Y-67721D02*
X57500Y-67721D01*
X57500Y-67721D02*
X62500Y-67721D01*
X62500Y-67721D02*
X67500Y-67721D01*
X67500Y-67721D02*
X72500Y-67721D01*
X72500Y-67721D02*
X77500Y-67721D01*
X77500Y-67721D02*
X82500Y-67721D01*
X82500Y-67721D02*
X87050Y-67721D01*
X91750Y-66771D02*
X88000Y-66771D01*
X88000Y-66771D02*
X87500Y-67271D01*
X87500Y-67271D02*
X87500Y-67271D01*
X87500Y-53885D02*
X87500Y-53885D01*
X88000Y-53385D02*
X87500Y-53885D01*
X91750Y-53385D02*
X88000Y-53385D01*
X82500Y-54335D02*
X87050Y-54335D01*
X77500Y-54335D02*
X82500Y-54335D01*
X72500Y-54335D02*
X77500Y-54335D01*
X67500Y-54335D02*
X72500Y-54335D01*
X62500Y-54335D02*
X67500Y-54335D01*
X57500Y-54335D02*
X62500Y-54335D01*
X52500Y-54335D02*
X57500Y-54335D01*
X52050Y-54335D02*
X52500Y-54335D01*
X87050Y-54335D02*
X87500Y-53885D01*
X51500Y-54885D02*
X52050Y-54335D01*
X52500Y-53885D02*
X52500Y-54335D01*
X57500Y-53885D02*
X57500Y-54335D01*
X62500Y-53885D02*
X62500Y-54335D01*
X67500Y-53885D02*
X67500Y-54335D01*
X72500Y-53885D02*
X72500Y-54335D01*
X77500Y-53885D02*
X77500Y-54335D01*
X82500Y-53885D02*
X82500Y-54335D01*
X82500Y-54335D02*
X82500Y-54885D01*
X82500Y-40950D02*
X82500Y-41500D01*
X82500Y-40500D02*
X82500Y-40950D01*
X77500Y-40500D02*
X77500Y-40950D01*
X72500Y-40500D02*
X72500Y-40950D01*
X67500Y-40500D02*
X67500Y-40950D01*
X62500Y-40500D02*
X62500Y-40950D01*
X57500Y-40500D02*
X57500Y-40950D01*
X52500Y-40500D02*
X52500Y-40950D01*
X51500Y-41500D02*
X52050Y-40950D01*
X87050Y-40950D02*
X87500Y-40500D01*
X52050Y-40950D02*
X52500Y-40950D01*
X52500Y-40950D02*
X57500Y-40950D01*
X57500Y-40950D02*
X62500Y-40950D01*
X62500Y-40950D02*
X67500Y-40950D01*
X67500Y-40950D02*
X72500Y-40950D01*
X72500Y-40950D02*
X77500Y-40950D01*
X77500Y-40950D02*
X82500Y-40950D01*
X82500Y-40950D02*
X87050Y-40950D01*
X91750Y-40000D02*
X88000Y-40000D01*
X88000Y-40000D02*
X87500Y-40500D01*
X87500Y-40500D02*
X87500Y-40500D01*
X79250Y-68071D02*
X79600Y-68421D01*
X79600Y-68421D02*
X81150Y-68421D01*
X81150Y-68421D02*
X81300Y-68571D01*
X57500Y-68071D02*
X55600Y-68071D01*
X55600Y-68071D02*
X54400Y-69271D01*
X57500Y-68071D02*
X62500Y-68071D01*
X62500Y-68071D02*
X67500Y-68071D01*
X67500Y-68071D02*
X72500Y-68071D01*
X72500Y-68071D02*
X77500Y-68071D01*
X77500Y-68071D02*
X79250Y-68071D01*
X91750Y-67771D02*
X88050Y-67771D01*
X83000Y-68771D02*
X82500Y-69271D01*
X88050Y-67771D02*
X86800Y-69021D01*
X86800Y-69021D02*
X84900Y-69021D01*
X84900Y-69021D02*
X84650Y-68771D01*
X84650Y-68771D02*
X83000Y-68771D01*
X82000Y-69271D02*
X82500Y-69271D01*
X81300Y-68571D02*
X82000Y-69271D01*
X54400Y-69271D02*
X54700Y-68971D01*
X52950Y-69271D02*
X54400Y-69271D01*
X54700Y-68971D02*
X54700Y-68971D01*
X51500Y-69271D02*
X52750Y-69271D01*
X52750Y-69271D02*
X52950Y-69271D01*
X52750Y-55885D02*
X52950Y-55885D01*
X51500Y-55885D02*
X52750Y-55885D01*
X54700Y-55585D02*
X54700Y-55585D01*
X52950Y-55885D02*
X54400Y-55885D01*
X54400Y-55885D02*
X54700Y-55585D01*
X81300Y-55185D02*
X82000Y-55885D01*
X82000Y-55885D02*
X82500Y-55885D01*
X84650Y-55385D02*
X83000Y-55385D01*
X84900Y-55635D02*
X84650Y-55385D01*
X86800Y-55635D02*
X84900Y-55635D01*
X88050Y-54385D02*
X86800Y-55635D01*
X83000Y-55385D02*
X82500Y-55885D01*
X91750Y-54385D02*
X88050Y-54385D01*
X77500Y-54685D02*
X79250Y-54685D01*
X72500Y-54685D02*
X77500Y-54685D01*
X67500Y-54685D02*
X72500Y-54685D01*
X62500Y-54685D02*
X67500Y-54685D01*
X57500Y-54685D02*
X62500Y-54685D01*
X55600Y-54685D02*
X54400Y-55885D01*
X57500Y-54685D02*
X55600Y-54685D01*
X81150Y-55035D02*
X81300Y-55185D01*
X79600Y-55035D02*
X81150Y-55035D01*
X79250Y-54685D02*
X79600Y-55035D01*
X79250Y-41300D02*
X79600Y-41650D01*
X79600Y-41650D02*
X81150Y-41650D01*
X81150Y-41650D02*
X81300Y-41800D01*
X57500Y-41300D02*
X55600Y-41300D01*
X55600Y-41300D02*
X54400Y-42500D01*
X57500Y-41300D02*
X62500Y-41300D01*
X62500Y-41300D02*
X67500Y-41300D01*
X67500Y-41300D02*
X72500Y-41300D01*
X72500Y-41300D02*
X77500Y-41300D01*
X77500Y-41300D02*
X79250Y-41300D01*
X91750Y-41000D02*
X88050Y-41000D01*
X83000Y-42000D02*
X82500Y-42500D01*
X88050Y-41000D02*
X86800Y-42250D01*
X86800Y-42250D02*
X84900Y-42250D01*
X84900Y-42250D02*
X84650Y-42000D01*
X84650Y-42000D02*
X83000Y-42000D01*
X82000Y-42500D02*
X82500Y-42500D01*
X81300Y-41800D02*
X82000Y-42500D01*
X54400Y-42500D02*
X54700Y-42200D01*
X52950Y-42500D02*
X54400Y-42500D01*
X54700Y-42200D02*
X54700Y-42200D01*
X51500Y-42500D02*
X52750Y-42500D01*
X52750Y-42500D02*
X52950Y-42500D01*
X81500Y-74771D02*
X82250Y-74021D01*
X86150Y-73271D02*
X86500Y-73271D01*
X85700Y-73721D02*
X86150Y-73271D01*
X84700Y-73721D02*
X85700Y-73721D01*
X84400Y-74021D02*
X84700Y-73721D01*
X82250Y-74021D02*
X84400Y-74021D01*
X82250Y-60635D02*
X84400Y-60635D01*
X84400Y-60635D02*
X84700Y-60335D01*
X84700Y-60335D02*
X85700Y-60335D01*
X85700Y-60335D02*
X86150Y-59885D01*
X86150Y-59885D02*
X86500Y-59885D01*
X81500Y-61385D02*
X82250Y-60635D01*
X81500Y-48000D02*
X82250Y-47250D01*
X86150Y-46500D02*
X86500Y-46500D01*
X85700Y-46950D02*
X86150Y-46500D01*
X84700Y-46950D02*
X85700Y-46950D01*
X84400Y-47250D02*
X84700Y-46950D01*
X82250Y-47250D02*
X84400Y-47250D01*
X81500Y-77771D02*
X81050Y-78221D01*
X66950Y-78221D02*
X66500Y-77771D01*
X81050Y-78221D02*
X66950Y-78221D01*
X81050Y-64835D02*
X66950Y-64835D01*
X66950Y-64835D02*
X66500Y-64385D01*
X81500Y-64385D02*
X81050Y-64835D01*
X81500Y-51000D02*
X81050Y-51450D01*
X66950Y-51450D02*
X66500Y-51000D01*
X81050Y-51450D02*
X66950Y-51450D01*
M02*
